<svg width="36" height="36" viewBox="0 0 36 36" fill="none" xmlns="http://www.w3.org/2000/svg">
<circle cx="18" cy="18" r="18" fill="#4D0D74"/>
<path d="M20.6162 9.53492C19.7046 9.74995 18.9916 10.5057 18.647 11.6236C18.4861 12.1454 18.4157 12.793 18.4685 13.2646C18.5716 14.1963 19.0117 14.9269 19.6643 15.2551C20.034 15.4412 20.3999 15.4727 20.7445 15.3507C20.9859 15.2652 21.3116 15.074 21.5241 14.893C22.0887 14.4139 22.4911 13.6757 22.642 12.8433C22.6936 12.5579 22.7061 12.4133 22.7049 12.0951C22.7049 11.4865 22.6194 11.0426 22.4295 10.649C22.1403 10.0505 21.6826 9.65816 21.1381 9.54121C20.9884 9.50977 20.7395 9.50726 20.6162 9.53492Z" fill="white"/>
<path d="M14.8031 9.59292C14.2989 9.68095 13.8235 10.0783 13.5406 10.6479C13.3859 10.9585 13.313 11.2565 13.2803 11.713C13.2652 11.9129 13.2728 12.2336 13.2954 12.4348C13.4249 13.5766 13.9581 14.5385 14.7616 15.0767C14.9226 15.1849 15.1891 15.3169 15.3702 15.3772C15.4985 15.42 15.5312 15.425 15.6733 15.4313C15.8619 15.4389 15.9964 15.4213 16.1612 15.3684C16.4164 15.2867 16.6252 15.1584 16.8213 14.9623C17.2099 14.5737 17.4513 13.9878 17.5079 13.2987C17.5305 13.0145 17.5054 12.592 17.4438 12.2613C17.1973 10.9195 16.4265 9.92615 15.4054 9.63191C15.2017 9.57406 14.993 9.56023 14.8031 9.59292Z" fill="white"/>
<path d="M24.3383 14.1813C23.4971 14.3196 22.7652 14.8993 22.3088 15.7908C22.0988 16.202 21.9931 16.5365 21.9114 17.0571C21.8825 17.2432 21.8774 17.3136 21.8774 17.5274C21.8774 17.7889 21.8925 17.9185 21.9466 18.1297C22.0912 18.6968 22.432 19.1583 22.8557 19.3633C23.0871 19.4752 23.2984 19.5167 23.536 19.4953C24.1132 19.445 24.6275 19.1847 25.0852 18.7119C25.5895 18.1901 25.9365 17.4683 26.0497 16.71C26.0786 16.5214 26.0987 16.1492 26.0899 15.9971C26.0434 15.2149 25.6234 14.5271 25.0387 14.2756C24.8124 14.1788 24.5634 14.1448 24.3383 14.1813Z" fill="white"/>
<path d="M11.3213 14.5108C10.7743 14.6026 10.3141 14.9849 10.1443 15.4904C10.084 15.669 10.0337 15.9242 10.0123 16.1569C9.93433 17.0006 10.2311 17.9538 10.7894 18.6529C11.2069 19.1748 11.7451 19.5357 12.3474 19.6979C12.8542 19.8337 13.3094 19.7054 13.6954 19.3194C14.0399 18.9748 14.2122 18.4719 14.2122 17.8092C14.2122 17.5514 14.1996 17.4106 14.1544 17.1716C14.001 16.3518 13.5357 15.5671 12.8982 15.0528C12.6052 14.8164 12.2103 14.5989 11.9614 14.5373C11.7652 14.4882 11.5175 14.4782 11.3213 14.5108Z" fill="white"/>
<path d="M17.8464 17.5778C17.4088 17.6268 16.9762 17.7437 16.5499 17.9311C15.8985 18.2191 15.2698 18.6982 14.8637 19.2188C13.9872 20.3429 13.3786 21.5601 13.1309 22.6831C13.1158 22.7522 13.0894 22.8566 13.073 22.9157C12.9888 23.2213 13.0026 23.5683 13.112 23.8714C13.2881 24.3593 13.6691 24.7378 14.1406 24.8962C14.4223 24.9905 14.8435 24.9892 15.3126 24.8912C15.6181 24.8283 15.847 24.7554 16.4958 24.5152C17.3987 24.1794 17.6489 24.1153 18.2563 24.0587C18.5279 24.0336 18.5769 24.0323 18.7643 24.0461C19.2434 24.0801 19.6219 24.1845 20.3487 24.4812C20.9925 24.744 21.3522 24.8861 21.4427 24.9113C22.3481 25.1678 23.2472 24.8522 23.5552 24.1694C23.6898 23.8688 23.7049 23.3797 23.5917 22.9157C23.481 22.4643 23.1528 21.7312 22.8385 21.237C21.952 19.8412 21.3195 19.0653 20.5876 18.4743C19.8998 17.9198 19.3226 17.657 18.6122 17.5778C18.4122 17.5551 18.0501 17.5551 17.8464 17.5778Z" fill="white"/>
</svg>
