<svg width="242" height="40" viewBox="0 0 242 40" fill="none" xmlns="http://www.w3.org/2000/svg">
<rect width="242" height="40" fill="#6EA204"/>
<g clip-path="url(#clip0_111_474)">
<path d="M35.8948 18.5C35.186 13.0677 30.932 8.81375 25.5605 8.11175L25.4998 8.105C25.0498 8.039 24.53 8.00075 24.0005 8H23.9998C17.408 8.0465 12.0815 13.4008 12.0815 20C12.0815 26.0697 16.5875 31.0865 22.4375 31.8883L22.4998 31.895C22.9498 31.961 23.4695 31.9993 23.999 32H23.9998C30.6223 31.994 35.9893 26.6233 35.9893 20C35.9893 19.4712 35.9548 18.9508 35.8888 18.44L35.8955 18.5H35.8948ZM31.7998 26.885C29.8858 29.042 27.107 30.3942 24.0125 30.3942C18.2713 30.3942 13.6175 25.7405 13.6175 19.9992C13.6175 14.258 18.2713 9.60425 24.0125 9.60425C29.2775 9.60425 33.629 13.5192 34.3138 18.5968L34.3198 18.65C34.3723 19.0452 34.4023 19.5013 34.4023 19.9655C34.4023 22.622 33.416 25.0475 31.7893 26.897L31.799 26.885H31.7998ZM24.8548 13.25H23.0548V19.1H17.2498V20.9H23.0548V26.75H24.8548V20.9H30.7498V19.1H24.8548V13.25Z" fill="white"/>
</g>
<path d="M50.9355 16.749L48.2285 25H46.0479L49.7461 15.0469H51.1338L50.9355 16.749ZM53.1846 25L50.4707 16.749L50.252 15.0469H51.6533L55.3721 25H53.1846ZM53.0615 21.2949V22.9014H47.8047V21.2949H53.0615ZM59.3506 25H57.1836L57.1973 23.4004H59.3506C59.8883 23.4004 60.3418 23.2796 60.7109 23.0381C61.0801 22.792 61.3581 22.4342 61.5449 21.9648C61.7363 21.4954 61.832 20.9281 61.832 20.2627V19.7773C61.832 19.2669 61.7773 18.818 61.668 18.4307C61.5632 18.0433 61.4059 17.7174 61.1963 17.4531C60.9867 17.1888 60.7292 16.9906 60.4238 16.8584C60.1185 16.7217 59.7676 16.6533 59.3711 16.6533H57.1426V15.0469H59.3711C60.0365 15.0469 60.6449 15.1608 61.1963 15.3887C61.7523 15.612 62.2331 15.9333 62.6387 16.3525C63.0443 16.7718 63.3564 17.2731 63.5752 17.8564C63.7985 18.4352 63.9102 19.0801 63.9102 19.791V20.2627C63.9102 20.9691 63.7985 21.6139 63.5752 22.1973C63.3564 22.7806 63.0443 23.2819 62.6387 23.7012C62.2376 24.1159 61.7568 24.4372 61.1963 24.665C60.6403 24.8883 60.0251 25 59.3506 25ZM58.3457 15.0469V25H56.2949V15.0469H58.3457ZM67.5811 15.0469V25H65.5371V15.0469H67.5811ZM75.2715 21.6982H77.3154C77.2744 22.3682 77.0898 22.9629 76.7617 23.4824C76.4382 24.002 75.9847 24.4076 75.4014 24.6992C74.8226 24.9909 74.1253 25.1367 73.3096 25.1367C72.6715 25.1367 72.0996 25.0273 71.5938 24.8086C71.0879 24.5853 70.6549 24.2663 70.2949 23.8516C69.9395 23.4368 69.6683 22.9355 69.4814 22.3477C69.2946 21.7598 69.2012 21.1012 69.2012 20.3721V19.6816C69.2012 18.9525 69.2969 18.2939 69.4883 17.7061C69.6842 17.1136 69.9622 16.61 70.3223 16.1953C70.6868 15.7806 71.1221 15.4616 71.6279 15.2383C72.1338 15.015 72.6989 14.9033 73.3232 14.9033C74.1527 14.9033 74.8522 15.0537 75.4219 15.3545C75.9961 15.6553 76.4404 16.07 76.7549 16.5986C77.0739 17.1273 77.2653 17.7288 77.3291 18.4033H75.2783C75.2555 18.0023 75.1758 17.6628 75.0391 17.3848C74.9023 17.1022 74.695 16.8903 74.417 16.749C74.1436 16.6032 73.779 16.5303 73.3232 16.5303C72.9814 16.5303 72.6829 16.5941 72.4277 16.7217C72.1725 16.8493 71.9583 17.043 71.7852 17.3027C71.612 17.5625 71.4821 17.8906 71.3955 18.2871C71.3135 18.679 71.2725 19.1393 71.2725 19.668V20.3721C71.2725 20.887 71.3112 21.3405 71.3887 21.7324C71.4661 22.1198 71.5846 22.4479 71.7441 22.7168C71.9082 22.9811 72.1178 23.1816 72.373 23.3184C72.6328 23.4505 72.945 23.5166 73.3096 23.5166C73.738 23.5166 74.0911 23.4482 74.3691 23.3115C74.6471 23.1748 74.859 22.972 75.0049 22.7031C75.1553 22.4342 75.2441 22.0993 75.2715 21.6982ZM80.8428 15.0469V25H78.7988V15.0469H80.8428ZM90.9395 19.791V20.2627C90.9395 21.0192 90.8369 21.6982 90.6318 22.2998C90.4268 22.9014 90.1374 23.4141 89.7637 23.8379C89.39 24.2572 88.9434 24.5785 88.4238 24.8018C87.9089 25.0251 87.3369 25.1367 86.708 25.1367C86.0837 25.1367 85.5117 25.0251 84.9922 24.8018C84.4772 24.5785 84.0306 24.2572 83.6523 23.8379C83.2741 23.4141 82.9801 22.9014 82.7705 22.2998C82.5654 21.6982 82.4629 21.0192 82.4629 20.2627V19.791C82.4629 19.0299 82.5654 18.3509 82.7705 17.7539C82.9756 17.1523 83.265 16.6396 83.6387 16.2158C84.0169 15.792 84.4635 15.4684 84.9785 15.2451C85.498 15.0218 86.07 14.9102 86.6943 14.9102C87.3232 14.9102 87.8952 15.0218 88.4102 15.2451C88.9297 15.4684 89.3763 15.792 89.75 16.2158C90.1283 16.6396 90.4199 17.1523 90.625 17.7539C90.8346 18.3509 90.9395 19.0299 90.9395 19.791ZM88.8682 20.2627V19.7773C88.8682 19.2487 88.8203 18.7839 88.7246 18.3828C88.6289 17.9818 88.4876 17.6445 88.3008 17.3711C88.1139 17.0977 87.8861 16.8926 87.6172 16.7559C87.3483 16.6146 87.0407 16.5439 86.6943 16.5439C86.348 16.5439 86.0404 16.6146 85.7715 16.7559C85.5072 16.8926 85.2816 17.0977 85.0947 17.3711C84.9124 17.6445 84.7734 17.9818 84.6777 18.3828C84.582 18.7839 84.5342 19.2487 84.5342 19.7773V20.2627C84.5342 20.7868 84.582 21.2516 84.6777 21.6572C84.7734 22.0583 84.9147 22.3978 85.1016 22.6758C85.2884 22.9492 85.5163 23.1566 85.7852 23.2979C86.054 23.4391 86.3617 23.5098 86.708 23.5098C87.0544 23.5098 87.362 23.4391 87.6309 23.2979C87.8997 23.1566 88.1253 22.9492 88.3076 22.6758C88.4899 22.3978 88.6289 22.0583 88.7246 21.6572C88.8203 21.2516 88.8682 20.7868 88.8682 20.2627ZM100.517 15.0469V25H98.4658L94.4668 18.3281V25H92.416V15.0469H94.4668L98.4727 21.7256V15.0469H100.517ZM106.471 16.749L103.764 25H101.583L105.281 15.0469H106.669L106.471 16.749ZM108.72 25L106.006 16.749L105.787 15.0469H107.188L110.907 25H108.72ZM108.597 21.2949V22.9014H103.34V21.2949H108.597ZM111.83 15.0469H115.542C116.303 15.0469 116.957 15.1608 117.504 15.3887C118.055 15.6165 118.479 15.9538 118.775 16.4004C119.072 16.847 119.22 17.3962 119.22 18.0479C119.22 18.5811 119.129 19.0391 118.946 19.4219C118.769 19.8001 118.516 20.1169 118.188 20.3721C117.864 20.6227 117.483 20.8232 117.046 20.9736L116.396 21.3154H113.17L113.156 19.7158H115.556C115.916 19.7158 116.214 19.652 116.451 19.5244C116.688 19.3968 116.866 19.2191 116.984 18.9912C117.107 18.7633 117.169 18.499 117.169 18.1982C117.169 17.8792 117.11 17.6035 116.991 17.3711C116.873 17.1387 116.693 16.9609 116.451 16.8379C116.21 16.7148 115.907 16.6533 115.542 16.6533H113.881V25H111.83V15.0469ZM117.395 25L115.125 20.5635L117.292 20.5498L119.589 24.9043V25H117.395ZM132.386 15.0469V25H130.335L126.336 18.3281V25H124.285V15.0469H126.336L130.342 21.7256V15.0469H132.386ZM142.346 19.791V20.2627C142.346 21.0192 142.243 21.6982 142.038 22.2998C141.833 22.9014 141.544 23.4141 141.17 23.8379C140.796 24.2572 140.35 24.5785 139.83 24.8018C139.315 25.0251 138.743 25.1367 138.114 25.1367C137.49 25.1367 136.918 25.0251 136.398 24.8018C135.883 24.5785 135.437 24.2572 135.059 23.8379C134.68 23.4141 134.386 22.9014 134.177 22.2998C133.972 21.6982 133.869 21.0192 133.869 20.2627V19.791C133.869 19.0299 133.972 18.3509 134.177 17.7539C134.382 17.1523 134.671 16.6396 135.045 16.2158C135.423 15.792 135.87 15.4684 136.385 15.2451C136.904 15.0218 137.476 14.9102 138.101 14.9102C138.729 14.9102 139.301 15.0218 139.816 15.2451C140.336 15.4684 140.783 15.792 141.156 16.2158C141.535 16.6396 141.826 17.1523 142.031 17.7539C142.241 18.3509 142.346 19.0299 142.346 19.791ZM140.274 20.2627V19.7773C140.274 19.2487 140.227 18.7839 140.131 18.3828C140.035 17.9818 139.894 17.6445 139.707 17.3711C139.52 17.0977 139.292 16.8926 139.023 16.7559C138.755 16.6146 138.447 16.5439 138.101 16.5439C137.754 16.5439 137.447 16.6146 137.178 16.7559C136.913 16.8926 136.688 17.0977 136.501 17.3711C136.319 17.6445 136.18 17.9818 136.084 18.3828C135.988 18.7839 135.94 19.2487 135.94 19.7773V20.2627C135.94 20.7868 135.988 21.2516 136.084 21.6572C136.18 22.0583 136.321 22.3978 136.508 22.6758C136.695 22.9492 136.923 23.1566 137.191 23.2979C137.46 23.4391 137.768 23.5098 138.114 23.5098C138.461 23.5098 138.768 23.4391 139.037 23.2979C139.306 23.1566 139.532 22.9492 139.714 22.6758C139.896 22.3978 140.035 22.0583 140.131 21.6572C140.227 21.2516 140.274 20.7868 140.274 20.2627ZM147.261 22.9219L149.605 15.0469H151.889L148.423 25H146.919L147.261 22.9219ZM145.101 15.0469L147.438 22.9219L147.794 25H146.276L142.831 15.0469H145.101ZM160.898 19.791V20.2627C160.898 21.0192 160.796 21.6982 160.591 22.2998C160.386 22.9014 160.096 23.4141 159.723 23.8379C159.349 24.2572 158.902 24.5785 158.383 24.8018C157.868 25.0251 157.296 25.1367 156.667 25.1367C156.043 25.1367 155.471 25.0251 154.951 24.8018C154.436 24.5785 153.99 24.2572 153.611 23.8379C153.233 23.4141 152.939 22.9014 152.729 22.2998C152.524 21.6982 152.422 21.0192 152.422 20.2627V19.791C152.422 19.0299 152.524 18.3509 152.729 17.7539C152.935 17.1523 153.224 16.6396 153.598 16.2158C153.976 15.792 154.423 15.4684 154.938 15.2451C155.457 15.0218 156.029 14.9102 156.653 14.9102C157.282 14.9102 157.854 15.0218 158.369 15.2451C158.889 15.4684 159.335 15.792 159.709 16.2158C160.087 16.6396 160.379 17.1523 160.584 17.7539C160.794 18.3509 160.898 19.0299 160.898 19.791ZM158.827 20.2627V19.7773C158.827 19.2487 158.779 18.7839 158.684 18.3828C158.588 17.9818 158.447 17.6445 158.26 17.3711C158.073 17.0977 157.845 16.8926 157.576 16.7559C157.307 16.6146 157 16.5439 156.653 16.5439C156.307 16.5439 155.999 16.6146 155.73 16.7559C155.466 16.8926 155.241 17.0977 155.054 17.3711C154.871 17.6445 154.732 17.9818 154.637 18.3828C154.541 18.7839 154.493 19.2487 154.493 19.7773V20.2627C154.493 20.7868 154.541 21.2516 154.637 21.6572C154.732 22.0583 154.874 22.3978 155.061 22.6758C155.247 22.9492 155.475 23.1566 155.744 23.2979C156.013 23.4391 156.321 23.5098 156.667 23.5098C157.013 23.5098 157.321 23.4391 157.59 23.2979C157.859 23.1566 158.084 22.9492 158.267 22.6758C158.449 22.3978 158.588 22.0583 158.684 21.6572C158.779 21.2516 158.827 20.7868 158.827 20.2627ZM169.737 21.4521H167.201V19.8525H169.737C170.129 19.8525 170.448 19.7887 170.694 19.6611C170.94 19.529 171.12 19.3467 171.234 19.1143C171.348 18.8818 171.405 18.6198 171.405 18.3281C171.405 18.0319 171.348 17.7562 171.234 17.501C171.12 17.2458 170.94 17.0407 170.694 16.8857C170.448 16.7308 170.129 16.6533 169.737 16.6533H167.912V25H165.861V15.0469H169.737C170.517 15.0469 171.184 15.1882 171.74 15.4707C172.301 15.7487 172.729 16.1338 173.025 16.626C173.322 17.1182 173.47 17.681 173.47 18.3145C173.47 18.957 173.322 19.513 173.025 19.9824C172.729 20.4518 172.301 20.8141 171.74 21.0693C171.184 21.3245 170.517 21.4521 169.737 21.4521ZM174.885 15.0469H178.597C179.358 15.0469 180.012 15.1608 180.559 15.3887C181.11 15.6165 181.534 15.9538 181.83 16.4004C182.126 16.847 182.274 17.3962 182.274 18.0479C182.274 18.5811 182.183 19.0391 182.001 19.4219C181.823 19.8001 181.57 20.1169 181.242 20.3721C180.919 20.6227 180.538 20.8232 180.101 20.9736L179.451 21.3154H176.225L176.211 19.7158H178.61C178.97 19.7158 179.269 19.652 179.506 19.5244C179.743 19.3968 179.921 19.2191 180.039 18.9912C180.162 18.7633 180.224 18.499 180.224 18.1982C180.224 17.8792 180.164 17.6035 180.046 17.3711C179.927 17.1387 179.747 16.9609 179.506 16.8379C179.264 16.7148 178.961 16.6533 178.597 16.6533H176.936V25H174.885V15.0469ZM180.449 25L178.18 20.5635L180.347 20.5498L182.644 24.9043V25H180.449ZM192.029 19.791V20.2627C192.029 21.0192 191.927 21.6982 191.722 22.2998C191.517 22.9014 191.227 23.4141 190.854 23.8379C190.48 24.2572 190.033 24.5785 189.514 24.8018C188.999 25.0251 188.427 25.1367 187.798 25.1367C187.174 25.1367 186.602 25.0251 186.082 24.8018C185.567 24.5785 185.12 24.2572 184.742 23.8379C184.364 23.4141 184.07 22.9014 183.86 22.2998C183.655 21.6982 183.553 21.0192 183.553 20.2627V19.791C183.553 19.0299 183.655 18.3509 183.86 17.7539C184.065 17.1523 184.355 16.6396 184.729 16.2158C185.107 15.792 185.553 15.4684 186.068 15.2451C186.588 15.0218 187.16 14.9102 187.784 14.9102C188.413 14.9102 188.985 15.0218 189.5 15.2451C190.02 15.4684 190.466 15.792 190.84 16.2158C191.218 16.6396 191.51 17.1523 191.715 17.7539C191.924 18.3509 192.029 19.0299 192.029 19.791ZM189.958 20.2627V19.7773C189.958 19.2487 189.91 18.7839 189.814 18.3828C189.719 17.9818 189.577 17.6445 189.391 17.3711C189.204 17.0977 188.976 16.8926 188.707 16.7559C188.438 16.6146 188.131 16.5439 187.784 16.5439C187.438 16.5439 187.13 16.6146 186.861 16.7559C186.597 16.8926 186.371 17.0977 186.185 17.3711C186.002 17.6445 185.863 17.9818 185.768 18.3828C185.672 18.7839 185.624 19.2487 185.624 19.7773V20.2627C185.624 20.7868 185.672 21.2516 185.768 21.6572C185.863 22.0583 186.005 22.3978 186.191 22.6758C186.378 22.9492 186.606 23.1566 186.875 23.2979C187.144 23.4391 187.451 23.5098 187.798 23.5098C188.144 23.5098 188.452 23.4391 188.721 23.2979C188.99 23.1566 189.215 22.9492 189.397 22.6758C189.58 22.3978 189.719 22.0583 189.814 21.6572C189.91 21.2516 189.958 20.7868 189.958 20.2627ZM196.562 25H194.395L194.408 23.4004H196.562C197.099 23.4004 197.553 23.2796 197.922 23.0381C198.291 22.792 198.569 22.4342 198.756 21.9648C198.947 21.4954 199.043 20.9281 199.043 20.2627V19.7773C199.043 19.2669 198.988 18.818 198.879 18.4307C198.774 18.0433 198.617 17.7174 198.407 17.4531C198.198 17.1888 197.94 16.9906 197.635 16.8584C197.329 16.7217 196.979 16.6533 196.582 16.6533H194.354V15.0469H196.582C197.247 15.0469 197.856 15.1608 198.407 15.3887C198.963 15.612 199.444 15.9333 199.85 16.3525C200.255 16.7718 200.567 17.2731 200.786 17.8564C201.009 18.4352 201.121 19.0801 201.121 19.791V20.2627C201.121 20.9691 201.009 21.6139 200.786 22.1973C200.567 22.7806 200.255 23.2819 199.85 23.7012C199.449 24.1159 198.968 24.4372 198.407 24.665C197.851 24.8883 197.236 25 196.562 25ZM195.557 15.0469V25H193.506V15.0469H195.557ZM208.107 15.0469H210.151V21.623C210.151 22.3887 209.987 23.0335 209.659 23.5576C209.336 24.0817 208.887 24.4759 208.312 24.7402C207.743 25.0046 207.087 25.1367 206.344 25.1367C205.601 25.1367 204.94 25.0046 204.361 24.7402C203.787 24.4759 203.336 24.0817 203.008 23.5576C202.684 23.0335 202.522 22.3887 202.522 21.623V15.0469H204.573V21.623C204.573 22.0697 204.644 22.4342 204.785 22.7168C204.926 22.9993 205.129 23.2067 205.394 23.3389C205.662 23.471 205.979 23.5371 206.344 23.5371C206.717 23.5371 207.034 23.471 207.294 23.3389C207.558 23.2067 207.759 22.9993 207.896 22.7168C208.037 22.4342 208.107 22.0697 208.107 21.623V15.0469ZM216.29 15.0469V25H214.246V15.0469H216.29ZM219.353 15.0469V16.6533H211.231V15.0469H219.353ZM228.506 19.791V20.2627C228.506 21.0192 228.403 21.6982 228.198 22.2998C227.993 22.9014 227.704 23.4141 227.33 23.8379C226.956 24.2572 226.51 24.5785 225.99 24.8018C225.475 25.0251 224.903 25.1367 224.274 25.1367C223.65 25.1367 223.078 25.0251 222.559 24.8018C222.044 24.5785 221.597 24.2572 221.219 23.8379C220.84 23.4141 220.547 22.9014 220.337 22.2998C220.132 21.6982 220.029 21.0192 220.029 20.2627V19.791C220.029 19.0299 220.132 18.3509 220.337 17.7539C220.542 17.1523 220.831 16.6396 221.205 16.2158C221.583 15.792 222.03 15.4684 222.545 15.2451C223.064 15.0218 223.636 14.9102 224.261 14.9102C224.89 14.9102 225.462 15.0218 225.977 15.2451C226.496 15.4684 226.943 15.792 227.316 16.2158C227.695 16.6396 227.986 17.1523 228.191 17.7539C228.401 18.3509 228.506 19.0299 228.506 19.791ZM226.435 20.2627V19.7773C226.435 19.2487 226.387 18.7839 226.291 18.3828C226.195 17.9818 226.054 17.6445 225.867 17.3711C225.68 17.0977 225.452 16.8926 225.184 16.7559C224.915 16.6146 224.607 16.5439 224.261 16.5439C223.914 16.5439 223.607 16.6146 223.338 16.7559C223.074 16.8926 222.848 17.0977 222.661 17.3711C222.479 17.6445 222.34 17.9818 222.244 18.3828C222.148 18.7839 222.101 19.2487 222.101 19.7773V20.2627C222.101 20.7868 222.148 21.2516 222.244 21.6572C222.34 22.0583 222.481 22.3978 222.668 22.6758C222.855 22.9492 223.083 23.1566 223.352 23.2979C223.62 23.4391 223.928 23.5098 224.274 23.5098C224.621 23.5098 224.928 23.4391 225.197 23.2979C225.466 23.1566 225.692 22.9492 225.874 22.6758C226.056 22.3978 226.195 22.0583 226.291 21.6572C226.387 21.2516 226.435 20.7868 226.435 20.2627Z" fill="white"/>
<defs>
<clipPath id="clip0_111_474">
<rect width="24" height="24" fill="white" transform="translate(12 8)"/>
</clipPath>
</defs>
</svg>
