<svg width="1280" height="36" viewBox="0 0 1280 36" fill="none" xmlns="http://www.w3.org/2000/svg">
<g clip-path="url(#clip0_139_7)">
<circle cx="445" cy="18" r="8" fill="#CE1126"/>
<path d="M445 17.23L448 14.23L448.75 15L445.75 18L448.75 21L447.99 21.75L444.99 18.75L441.99 21.75L441.24 21L444.24 18L441.24 15L442 14.23L445 17.23Z" fill="white"/>
</g>
<path d="M468.479 21.9268V23H463.208V21.9268H468.479ZM463.475 13.0469V23H462.155V13.0469H463.475ZM467.781 17.3262V18.3994H463.208V17.3262H467.781ZM468.41 13.0469V14.127H463.208V13.0469H468.41ZM472.553 18.249V19.2881H469.217V18.249H472.553ZM475.048 17.0732V23H473.776V15.6035H474.979L475.048 17.0732ZM474.788 19.0215L474.2 19.001C474.205 18.4951 474.271 18.028 474.398 17.5996C474.526 17.1667 474.715 16.7907 474.966 16.4717C475.216 16.1527 475.529 15.9066 475.902 15.7334C476.276 15.5557 476.709 15.4668 477.201 15.4668C477.548 15.4668 477.867 15.5169 478.158 15.6172C478.45 15.7129 478.703 15.8656 478.917 16.0752C479.131 16.2848 479.298 16.5537 479.416 16.8818C479.535 17.21 479.594 17.6064 479.594 18.0713V23H478.329V18.1328C478.329 17.7454 478.263 17.4355 478.131 17.2031C478.003 16.9707 477.821 16.8021 477.584 16.6973C477.347 16.5879 477.069 16.5332 476.75 16.5332C476.376 16.5332 476.064 16.5993 475.813 16.7314C475.563 16.8636 475.362 17.0459 475.212 17.2783C475.062 17.5107 474.952 17.7773 474.884 18.0781C474.82 18.3743 474.788 18.6888 474.788 19.0215ZM479.58 18.3242L478.732 18.584C478.737 18.1784 478.803 17.7887 478.931 17.415C479.063 17.0413 479.252 16.7087 479.498 16.417C479.749 16.1253 480.056 15.8952 480.421 15.7266C480.785 15.5534 481.202 15.4668 481.672 15.4668C482.068 15.4668 482.419 15.5192 482.725 15.624C483.035 15.7288 483.294 15.8906 483.504 16.1094C483.718 16.3236 483.88 16.5993 483.989 16.9365C484.099 17.2738 484.153 17.6748 484.153 18.1396V23H482.882V18.126C482.882 17.7113 482.816 17.39 482.684 17.1621C482.556 16.9297 482.374 16.7679 482.137 16.6768C481.904 16.5811 481.626 16.5332 481.303 16.5332C481.025 16.5332 480.779 16.5811 480.564 16.6768C480.35 16.7725 480.17 16.9046 480.024 17.0732C479.879 17.2373 479.767 17.4264 479.689 17.6406C479.617 17.8548 479.58 18.0827 479.58 18.3242ZM490.429 21.7354V17.9277C490.429 17.6361 490.369 17.3831 490.251 17.1689C490.137 16.9502 489.964 16.7816 489.731 16.6631C489.499 16.5446 489.212 16.4854 488.87 16.4854C488.551 16.4854 488.271 16.54 488.029 16.6494C487.792 16.7588 487.605 16.9023 487.469 17.0801C487.337 17.2578 487.271 17.4492 487.271 17.6543H486.006C486.006 17.39 486.074 17.1279 486.211 16.8682C486.348 16.6084 486.544 16.3737 486.799 16.1641C487.059 15.9499 487.368 15.7812 487.729 15.6582C488.093 15.5306 488.499 15.4668 488.945 15.4668C489.483 15.4668 489.957 15.5579 490.367 15.7402C490.782 15.9225 491.105 16.1982 491.338 16.5674C491.575 16.932 491.693 17.39 491.693 17.9414V21.3867C491.693 21.6328 491.714 21.8949 491.755 22.1729C491.8 22.4508 491.867 22.6901 491.953 22.8906V23H490.634C490.57 22.8542 490.52 22.6605 490.483 22.4189C490.447 22.1729 490.429 21.945 490.429 21.7354ZM490.647 18.5156L490.661 19.4043H489.383C489.023 19.4043 488.701 19.4339 488.419 19.4932C488.136 19.5479 487.899 19.6322 487.708 19.7461C487.517 19.86 487.371 20.0036 487.271 20.1768C487.17 20.3454 487.12 20.5436 487.12 20.7715C487.12 21.0039 487.173 21.2158 487.277 21.4072C487.382 21.5986 487.539 21.7513 487.749 21.8652C487.963 21.9746 488.225 22.0293 488.535 22.0293C488.923 22.0293 489.264 21.9473 489.561 21.7832C489.857 21.6191 490.091 21.4186 490.265 21.1816C490.442 20.9447 490.538 20.7145 490.552 20.4912L491.092 21.0996C491.06 21.291 490.973 21.5029 490.832 21.7354C490.691 21.9678 490.502 22.1911 490.265 22.4053C490.032 22.6149 489.754 22.7904 489.431 22.9316C489.112 23.0684 488.752 23.1367 488.351 23.1367C487.849 23.1367 487.41 23.0387 487.031 22.8428C486.658 22.6468 486.366 22.3848 486.156 22.0566C485.951 21.724 485.849 21.3525 485.849 20.9424C485.849 20.5459 485.926 20.1973 486.081 19.8965C486.236 19.5911 486.459 19.3382 486.751 19.1377C487.043 18.9326 487.394 18.7777 487.804 18.6729C488.214 18.568 488.672 18.5156 489.178 18.5156H490.647ZM495.057 15.6035V23H493.785V15.6035H495.057ZM493.689 13.6416C493.689 13.4365 493.751 13.2633 493.874 13.1221C494.002 12.9808 494.188 12.9102 494.435 12.9102C494.676 12.9102 494.861 12.9808 494.988 13.1221C495.12 13.2633 495.187 13.4365 495.187 13.6416C495.187 13.8376 495.12 14.0062 494.988 14.1475C494.861 14.2842 494.676 14.3525 494.435 14.3525C494.188 14.3525 494.002 14.2842 493.874 14.1475C493.751 14.0062 493.689 13.8376 493.689 13.6416ZM498.461 12.5V23H497.189V12.5H498.461ZM503.629 19.3838V19.2266C503.629 18.6934 503.706 18.1989 503.861 17.7432C504.016 17.2829 504.24 16.8841 504.531 16.5469C504.823 16.2051 505.176 15.9408 505.591 15.7539C506.006 15.5625 506.47 15.4668 506.985 15.4668C507.505 15.4668 507.972 15.5625 508.387 15.7539C508.806 15.9408 509.161 16.2051 509.453 16.5469C509.749 16.8841 509.975 17.2829 510.13 17.7432C510.285 18.1989 510.362 18.6934 510.362 19.2266V19.3838C510.362 19.917 510.285 20.4115 510.13 20.8672C509.975 21.3229 509.749 21.7217 509.453 22.0635C509.161 22.4007 508.808 22.665 508.394 22.8564C507.983 23.0433 507.519 23.1367 506.999 23.1367C506.479 23.1367 506.012 23.0433 505.598 22.8564C505.183 22.665 504.827 22.4007 504.531 22.0635C504.24 21.7217 504.016 21.3229 503.861 20.8672C503.706 20.4115 503.629 19.917 503.629 19.3838ZM504.894 19.2266V19.3838C504.894 19.7529 504.937 20.1016 505.023 20.4297C505.11 20.7533 505.24 21.0404 505.413 21.291C505.591 21.5417 505.812 21.7399 506.076 21.8857C506.34 22.027 506.648 22.0977 506.999 22.0977C507.345 22.0977 507.648 22.027 507.908 21.8857C508.173 21.7399 508.391 21.5417 508.564 21.291C508.738 21.0404 508.868 20.7533 508.954 20.4297C509.045 20.1016 509.091 19.7529 509.091 19.3838V19.2266C509.091 18.862 509.045 18.5179 508.954 18.1943C508.868 17.8662 508.735 17.5768 508.558 17.3262C508.384 17.071 508.166 16.8704 507.901 16.7246C507.642 16.5788 507.336 16.5059 506.985 16.5059C506.639 16.5059 506.334 16.5788 506.069 16.7246C505.81 16.8704 505.591 17.071 505.413 17.3262C505.24 17.5768 505.11 17.8662 505.023 18.1943C504.937 18.5179 504.894 18.862 504.894 19.2266ZM516.474 21.291V15.6035H517.745V23H516.535L516.474 21.291ZM516.713 19.7324L517.239 19.7188C517.239 20.2109 517.187 20.6667 517.082 21.0859C516.982 21.5007 516.818 21.8607 516.59 22.166C516.362 22.4714 516.063 22.7106 515.694 22.8838C515.325 23.0524 514.876 23.1367 514.348 23.1367C513.988 23.1367 513.657 23.0843 513.356 22.9795C513.06 22.8747 512.805 22.7129 512.591 22.4941C512.377 22.2754 512.21 21.9906 512.092 21.6396C511.978 21.2887 511.921 20.8672 511.921 20.375V15.6035H513.186V20.3887C513.186 20.7214 513.222 20.9971 513.295 21.2158C513.372 21.43 513.475 21.6009 513.603 21.7285C513.735 21.8516 513.881 21.9382 514.04 21.9883C514.204 22.0384 514.373 22.0635 514.546 22.0635C515.084 22.0635 515.51 21.9609 515.824 21.7559C516.139 21.5462 516.364 21.266 516.501 20.915C516.642 20.5596 516.713 20.1654 516.713 19.7324ZM527.452 21.0381C527.452 20.8558 527.411 20.6872 527.329 20.5322C527.252 20.3727 527.09 20.2292 526.844 20.1016C526.602 19.9694 526.238 19.8555 525.75 19.7598C525.34 19.6732 524.968 19.5706 524.636 19.4521C524.308 19.3337 524.027 19.1901 523.795 19.0215C523.567 18.8529 523.392 18.6546 523.269 18.4268C523.146 18.1989 523.084 17.9323 523.084 17.627C523.084 17.3353 523.148 17.0596 523.275 16.7998C523.408 16.54 523.592 16.3099 523.829 16.1094C524.071 15.9089 524.36 15.7516 524.697 15.6377C525.035 15.5238 525.41 15.4668 525.825 15.4668C526.418 15.4668 526.924 15.5716 527.343 15.7812C527.762 15.9909 528.083 16.2712 528.307 16.6221C528.53 16.9684 528.642 17.3535 528.642 17.7773H527.377C527.377 17.5723 527.315 17.374 527.192 17.1826C527.074 16.9867 526.898 16.8249 526.666 16.6973C526.438 16.5697 526.158 16.5059 525.825 16.5059C525.474 16.5059 525.189 16.5605 524.971 16.6699C524.757 16.7747 524.599 16.9092 524.499 17.0732C524.403 17.2373 524.355 17.4105 524.355 17.5928C524.355 17.7295 524.378 17.8525 524.424 17.9619C524.474 18.0667 524.561 18.1647 524.684 18.2559C524.807 18.3424 524.98 18.4245 525.203 18.502C525.426 18.5794 525.711 18.6569 526.058 18.7344C526.664 18.8711 527.163 19.0352 527.555 19.2266C527.947 19.418 528.238 19.6527 528.43 19.9307C528.621 20.2087 528.717 20.5459 528.717 20.9424C528.717 21.266 528.648 21.5622 528.512 21.8311C528.38 22.0999 528.186 22.3324 527.931 22.5283C527.68 22.7197 527.379 22.8701 527.028 22.9795C526.682 23.0843 526.292 23.1367 525.859 23.1367C525.208 23.1367 524.656 23.0205 524.205 22.7881C523.754 22.5557 523.412 22.2549 523.18 21.8857C522.947 21.5166 522.831 21.127 522.831 20.7168H524.103C524.121 21.0632 524.221 21.3389 524.403 21.5439C524.586 21.7445 524.809 21.888 525.073 21.9746C525.338 22.0566 525.6 22.0977 525.859 22.0977C526.206 22.0977 526.495 22.0521 526.728 21.9609C526.965 21.8698 527.145 21.7445 527.268 21.585C527.391 21.4255 527.452 21.2432 527.452 21.0381ZM533.447 23.1367C532.932 23.1367 532.465 23.0501 532.046 22.877C531.631 22.6992 531.273 22.4508 530.973 22.1318C530.676 21.8128 530.449 21.4346 530.289 20.9971C530.13 20.5596 530.05 20.0811 530.05 19.5615V19.2744C530.05 18.6729 530.139 18.1374 530.316 17.668C530.494 17.194 530.736 16.793 531.041 16.4648C531.346 16.1367 531.693 15.8883 532.08 15.7197C532.467 15.5511 532.868 15.4668 533.283 15.4668C533.812 15.4668 534.268 15.5579 534.65 15.7402C535.038 15.9225 535.354 16.1777 535.601 16.5059C535.847 16.8294 536.029 17.2122 536.147 17.6543C536.266 18.0918 536.325 18.5703 536.325 19.0898V19.6572H530.802V18.625H535.061V18.5293C535.042 18.2012 534.974 17.8822 534.855 17.5723C534.742 17.2624 534.559 17.0072 534.309 16.8066C534.058 16.6061 533.716 16.5059 533.283 16.5059C532.996 16.5059 532.732 16.5674 532.49 16.6904C532.249 16.8089 532.041 16.9867 531.868 17.2236C531.695 17.4606 531.561 17.75 531.465 18.0918C531.369 18.4336 531.321 18.8278 531.321 19.2744V19.5615C531.321 19.9124 531.369 20.2428 531.465 20.5527C531.565 20.8581 531.709 21.127 531.896 21.3594C532.087 21.5918 532.317 21.7741 532.586 21.9062C532.859 22.0384 533.169 22.1045 533.516 22.1045C533.962 22.1045 534.34 22.0133 534.65 21.8311C534.96 21.6488 535.231 21.4049 535.464 21.0996L536.229 21.708C536.07 21.9495 535.867 22.1797 535.621 22.3984C535.375 22.6172 535.072 22.7949 534.712 22.9316C534.356 23.0684 533.935 23.1367 533.447 23.1367ZM539.066 17.1826V23H537.802V15.6035H538.998L539.066 17.1826ZM538.766 19.0215L538.239 19.001C538.244 18.4951 538.319 18.028 538.465 17.5996C538.611 17.1667 538.816 16.7907 539.08 16.4717C539.344 16.1527 539.659 15.9066 540.023 15.7334C540.393 15.5557 540.8 15.4668 541.247 15.4668C541.612 15.4668 541.94 15.5169 542.231 15.6172C542.523 15.7129 542.771 15.8678 542.977 16.082C543.186 16.2962 543.346 16.5742 543.455 16.916C543.564 17.2533 543.619 17.6657 543.619 18.1533V23H542.348V18.1396C542.348 17.7523 542.291 17.4424 542.177 17.21C542.063 16.973 541.896 16.8021 541.678 16.6973C541.459 16.5879 541.19 16.5332 540.871 16.5332C540.557 16.5332 540.27 16.5993 540.01 16.7314C539.755 16.8636 539.534 17.0459 539.347 17.2783C539.164 17.5107 539.021 17.7773 538.916 18.0781C538.816 18.3743 538.766 18.6888 538.766 19.0215ZM546.805 12.5V23H545.54V12.5H546.805ZM546.504 19.0215L545.978 19.001C545.982 18.4951 546.057 18.028 546.203 17.5996C546.349 17.1667 546.554 16.7907 546.818 16.4717C547.083 16.1527 547.397 15.9066 547.762 15.7334C548.131 15.5557 548.539 15.4668 548.985 15.4668C549.35 15.4668 549.678 15.5169 549.97 15.6172C550.261 15.7129 550.51 15.8678 550.715 16.082C550.924 16.2962 551.084 16.5742 551.193 16.916C551.303 17.2533 551.357 17.6657 551.357 18.1533V23H550.086V18.1396C550.086 17.7523 550.029 17.4424 549.915 17.21C549.801 16.973 549.635 16.8021 549.416 16.6973C549.197 16.5879 548.928 16.5332 548.609 16.5332C548.295 16.5332 548.008 16.5993 547.748 16.7314C547.493 16.8636 547.272 17.0459 547.085 17.2783C546.903 17.5107 546.759 17.7773 546.654 18.0781C546.554 18.3743 546.504 18.6888 546.504 19.0215ZM557.612 21.7354V17.9277C557.612 17.6361 557.553 17.3831 557.435 17.1689C557.321 16.9502 557.147 16.7816 556.915 16.6631C556.683 16.5446 556.396 16.4854 556.054 16.4854C555.735 16.4854 555.454 16.54 555.213 16.6494C554.976 16.7588 554.789 16.9023 554.652 17.0801C554.52 17.2578 554.454 17.4492 554.454 17.6543H553.189C553.189 17.39 553.258 17.1279 553.395 16.8682C553.531 16.6084 553.727 16.3737 553.982 16.1641C554.242 15.9499 554.552 15.7812 554.912 15.6582C555.277 15.5306 555.682 15.4668 556.129 15.4668C556.667 15.4668 557.141 15.5579 557.551 15.7402C557.965 15.9225 558.289 16.1982 558.521 16.5674C558.758 16.932 558.877 17.39 558.877 17.9414V21.3867C558.877 21.6328 558.897 21.8949 558.938 22.1729C558.984 22.4508 559.05 22.6901 559.137 22.8906V23H557.817C557.754 22.8542 557.703 22.6605 557.667 22.4189C557.631 22.1729 557.612 21.945 557.612 21.7354ZM557.831 18.5156L557.845 19.4043H556.566C556.206 19.4043 555.885 19.4339 555.603 19.4932C555.32 19.5479 555.083 19.6322 554.892 19.7461C554.7 19.86 554.554 20.0036 554.454 20.1768C554.354 20.3454 554.304 20.5436 554.304 20.7715C554.304 21.0039 554.356 21.2158 554.461 21.4072C554.566 21.5986 554.723 21.7513 554.933 21.8652C555.147 21.9746 555.409 22.0293 555.719 22.0293C556.106 22.0293 556.448 21.9473 556.744 21.7832C557.04 21.6191 557.275 21.4186 557.448 21.1816C557.626 20.9447 557.722 20.7145 557.735 20.4912L558.275 21.0996C558.243 21.291 558.157 21.5029 558.016 21.7354C557.874 21.9678 557.685 22.1911 557.448 22.4053C557.216 22.6149 556.938 22.7904 556.614 22.9316C556.295 23.0684 555.935 23.1367 555.534 23.1367C555.033 23.1367 554.593 23.0387 554.215 22.8428C553.841 22.6468 553.549 22.3848 553.34 22.0566C553.135 21.724 553.032 21.3525 553.032 20.9424C553.032 20.5459 553.11 20.1973 553.265 19.8965C553.42 19.5911 553.643 19.3382 553.935 19.1377C554.226 18.9326 554.577 18.7777 554.987 18.6729C555.397 18.568 555.855 18.5156 556.361 18.5156H557.831ZM567.408 23.1367C566.893 23.1367 566.426 23.0501 566.007 22.877C565.592 22.6992 565.234 22.4508 564.934 22.1318C564.637 21.8128 564.41 21.4346 564.25 20.9971C564.09 20.5596 564.011 20.0811 564.011 19.5615V19.2744C564.011 18.6729 564.1 18.1374 564.277 17.668C564.455 17.194 564.697 16.793 565.002 16.4648C565.307 16.1367 565.654 15.8883 566.041 15.7197C566.428 15.5511 566.829 15.4668 567.244 15.4668C567.773 15.4668 568.229 15.5579 568.611 15.7402C568.999 15.9225 569.315 16.1777 569.562 16.5059C569.808 16.8294 569.99 17.2122 570.108 17.6543C570.227 18.0918 570.286 18.5703 570.286 19.0898V19.6572H564.763V18.625H569.021V18.5293C569.003 18.2012 568.935 17.8822 568.816 17.5723C568.702 17.2624 568.52 17.0072 568.27 16.8066C568.019 16.6061 567.677 16.5059 567.244 16.5059C566.957 16.5059 566.693 16.5674 566.451 16.6904C566.21 16.8089 566.002 16.9867 565.829 17.2236C565.656 17.4606 565.521 17.75 565.426 18.0918C565.33 18.4336 565.282 18.8278 565.282 19.2744V19.5615C565.282 19.9124 565.33 20.2428 565.426 20.5527C565.526 20.8581 565.67 21.127 565.856 21.3594C566.048 21.5918 566.278 21.7741 566.547 21.9062C566.82 22.0384 567.13 22.1045 567.477 22.1045C567.923 22.1045 568.301 22.0133 568.611 21.8311C568.921 21.6488 569.192 21.4049 569.425 21.0996L570.19 21.708C570.031 21.9495 569.828 22.1797 569.582 22.3984C569.336 22.6172 569.033 22.7949 568.673 22.9316C568.317 23.0684 567.896 23.1367 567.408 23.1367ZM576.069 21.0381C576.069 20.8558 576.028 20.6872 575.946 20.5322C575.869 20.3727 575.707 20.2292 575.461 20.1016C575.219 19.9694 574.855 19.8555 574.367 19.7598C573.957 19.6732 573.586 19.5706 573.253 19.4521C572.925 19.3337 572.645 19.1901 572.412 19.0215C572.184 18.8529 572.009 18.6546 571.886 18.4268C571.763 18.1989 571.701 17.9323 571.701 17.627C571.701 17.3353 571.765 17.0596 571.893 16.7998C572.025 16.54 572.209 16.3099 572.446 16.1094C572.688 15.9089 572.977 15.7516 573.314 15.6377C573.652 15.5238 574.028 15.4668 574.442 15.4668C575.035 15.4668 575.541 15.5716 575.96 15.7812C576.379 15.9909 576.701 16.2712 576.924 16.6221C577.147 16.9684 577.259 17.3535 577.259 17.7773H575.994C575.994 17.5723 575.933 17.374 575.81 17.1826C575.691 16.9867 575.516 16.8249 575.283 16.6973C575.055 16.5697 574.775 16.5059 574.442 16.5059C574.091 16.5059 573.807 16.5605 573.588 16.6699C573.374 16.7747 573.216 16.9092 573.116 17.0732C573.021 17.2373 572.973 17.4105 572.973 17.5928C572.973 17.7295 572.995 17.8525 573.041 17.9619C573.091 18.0667 573.178 18.1647 573.301 18.2559C573.424 18.3424 573.597 18.4245 573.82 18.502C574.044 18.5794 574.328 18.6569 574.675 18.7344C575.281 18.8711 575.78 19.0352 576.172 19.2266C576.564 19.418 576.855 19.6527 577.047 19.9307C577.238 20.2087 577.334 20.5459 577.334 20.9424C577.334 21.266 577.266 21.5622 577.129 21.8311C576.997 22.0999 576.803 22.3324 576.548 22.5283C576.297 22.7197 575.996 22.8701 575.646 22.9795C575.299 23.0843 574.91 23.1367 574.477 23.1367C573.825 23.1367 573.273 23.0205 572.822 22.7881C572.371 22.5557 572.029 22.2549 571.797 21.8857C571.564 21.5166 571.448 21.127 571.448 20.7168H572.72C572.738 21.0632 572.838 21.3389 573.021 21.5439C573.203 21.7445 573.426 21.888 573.69 21.9746C573.955 22.0566 574.217 22.0977 574.477 22.0977C574.823 22.0977 575.112 22.0521 575.345 21.9609C575.582 21.8698 575.762 21.7445 575.885 21.585C576.008 21.4255 576.069 21.2432 576.069 21.0381ZM582.092 15.6035V16.5742H578.093V15.6035H582.092ZM579.446 13.8057H580.711V21.168C580.711 21.4186 580.75 21.6077 580.827 21.7354C580.905 21.863 581.005 21.9473 581.128 21.9883C581.251 22.0293 581.383 22.0498 581.524 22.0498C581.629 22.0498 581.739 22.0407 581.853 22.0225C581.971 21.9997 582.06 21.9814 582.119 21.9678L582.126 23C582.026 23.0319 581.894 23.0615 581.729 23.0889C581.57 23.1208 581.376 23.1367 581.148 23.1367C580.839 23.1367 580.554 23.0752 580.294 22.9521C580.034 22.8291 579.827 22.624 579.672 22.3369C579.521 22.0452 579.446 21.6533 579.446 21.1611V13.8057ZM587.937 21.7354V17.9277C587.937 17.6361 587.877 17.3831 587.759 17.1689C587.645 16.9502 587.472 16.7816 587.239 16.6631C587.007 16.5446 586.72 16.4854 586.378 16.4854C586.059 16.4854 585.779 16.54 585.537 16.6494C585.3 16.7588 585.113 16.9023 584.977 17.0801C584.844 17.2578 584.778 17.4492 584.778 17.6543H583.514C583.514 17.39 583.582 17.1279 583.719 16.8682C583.855 16.6084 584.051 16.3737 584.307 16.1641C584.566 15.9499 584.876 15.7812 585.236 15.6582C585.601 15.5306 586.007 15.4668 586.453 15.4668C586.991 15.4668 587.465 15.5579 587.875 15.7402C588.29 15.9225 588.613 16.1982 588.846 16.5674C589.083 16.932 589.201 17.39 589.201 17.9414V21.3867C589.201 21.6328 589.222 21.8949 589.263 22.1729C589.308 22.4508 589.374 22.6901 589.461 22.8906V23H588.142C588.078 22.8542 588.028 22.6605 587.991 22.4189C587.955 22.1729 587.937 21.945 587.937 21.7354ZM588.155 18.5156L588.169 19.4043H586.891C586.531 19.4043 586.209 19.4339 585.927 19.4932C585.644 19.5479 585.407 19.6322 585.216 19.7461C585.024 19.86 584.879 20.0036 584.778 20.1768C584.678 20.3454 584.628 20.5436 584.628 20.7715C584.628 21.0039 584.68 21.2158 584.785 21.4072C584.89 21.5986 585.047 21.7513 585.257 21.8652C585.471 21.9746 585.733 22.0293 586.043 22.0293C586.43 22.0293 586.772 21.9473 587.068 21.7832C587.365 21.6191 587.599 21.4186 587.772 21.1816C587.95 20.9447 588.046 20.7145 588.06 20.4912L588.6 21.0996C588.568 21.291 588.481 21.5029 588.34 21.7354C588.199 21.9678 588.009 22.1911 587.772 22.4053C587.54 22.6149 587.262 22.7904 586.938 22.9316C586.619 23.0684 586.259 23.1367 585.858 23.1367C585.357 23.1367 584.917 23.0387 584.539 22.8428C584.165 22.6468 583.874 22.3848 583.664 22.0566C583.459 21.724 583.356 21.3525 583.356 20.9424C583.356 20.5459 583.434 20.1973 583.589 19.8965C583.744 19.5911 583.967 19.3382 584.259 19.1377C584.55 18.9326 584.901 18.7777 585.312 18.6729C585.722 18.568 586.18 18.5156 586.686 18.5156H588.155ZM588.162 12.6367L589.017 12.7119C589.017 13.0446 588.951 13.3363 588.818 13.5869C588.686 13.8376 588.508 14.0312 588.285 14.168C588.066 14.3047 587.818 14.373 587.54 14.373C587.308 14.373 587.116 14.3411 586.966 14.2773C586.815 14.209 586.681 14.1338 586.562 14.0518C586.444 13.9652 586.319 13.89 586.187 13.8262C586.059 13.7578 585.899 13.7236 585.708 13.7236C585.517 13.7236 585.355 13.7965 585.223 13.9424C585.095 14.0882 585.031 14.2682 585.031 14.4824L584.177 14.4414C584.177 14.1087 584.241 13.8171 584.368 13.5664C584.5 13.3112 584.678 13.113 584.901 12.9717C585.125 12.8258 585.373 12.7529 585.646 12.7529C585.842 12.7529 586.013 12.7871 586.159 12.8555C586.31 12.9193 586.451 12.9945 586.583 13.0811C586.715 13.1631 586.852 13.2383 586.993 13.3066C587.134 13.3704 587.296 13.4023 587.479 13.4023C587.67 13.4023 587.832 13.3294 587.964 13.1836C588.096 13.0332 588.162 12.8509 588.162 12.6367ZM590.855 19.3838V19.2266C590.855 18.6934 590.933 18.1989 591.088 17.7432C591.243 17.2829 591.466 16.8841 591.758 16.5469C592.049 16.2051 592.403 15.9408 592.817 15.7539C593.232 15.5625 593.697 15.4668 594.212 15.4668C594.731 15.4668 595.199 15.5625 595.613 15.7539C596.033 15.9408 596.388 16.2051 596.68 16.5469C596.976 16.8841 597.201 17.2829 597.356 17.7432C597.511 18.1989 597.589 18.6934 597.589 19.2266V19.3838C597.589 19.917 597.511 20.4115 597.356 20.8672C597.201 21.3229 596.976 21.7217 596.68 22.0635C596.388 22.4007 596.035 22.665 595.62 22.8564C595.21 23.0433 594.745 23.1367 594.226 23.1367C593.706 23.1367 593.239 23.0433 592.824 22.8564C592.41 22.665 592.054 22.4007 591.758 22.0635C591.466 21.7217 591.243 21.3229 591.088 20.8672C590.933 20.4115 590.855 19.917 590.855 19.3838ZM592.12 19.2266V19.3838C592.12 19.7529 592.163 20.1016 592.25 20.4297C592.337 20.7533 592.466 21.0404 592.64 21.291C592.817 21.5417 593.038 21.7399 593.303 21.8857C593.567 22.027 593.875 22.0977 594.226 22.0977C594.572 22.0977 594.875 22.027 595.135 21.8857C595.399 21.7399 595.618 21.5417 595.791 21.291C595.964 21.0404 596.094 20.7533 596.181 20.4297C596.272 20.1016 596.317 19.7529 596.317 19.3838V19.2266C596.317 18.862 596.272 18.5179 596.181 18.1943C596.094 17.8662 595.962 17.5768 595.784 17.3262C595.611 17.071 595.392 16.8704 595.128 16.7246C594.868 16.5788 594.563 16.5059 594.212 16.5059C593.866 16.5059 593.56 16.5788 593.296 16.7246C593.036 16.8704 592.817 17.071 592.64 17.3262C592.466 17.5768 592.337 17.8662 592.25 18.1943C592.163 18.5179 592.12 18.862 592.12 19.2266ZM604.021 15.6035V23H602.75V15.6035H604.021ZM602.654 13.6416C602.654 13.4365 602.716 13.2633 602.839 13.1221C602.966 12.9808 603.153 12.9102 603.399 12.9102C603.641 12.9102 603.826 12.9808 603.953 13.1221C604.085 13.2633 604.151 13.4365 604.151 13.6416C604.151 13.8376 604.085 14.0062 603.953 14.1475C603.826 14.2842 603.641 14.3525 603.399 14.3525C603.153 14.3525 602.966 14.2842 602.839 14.1475C602.716 14.0062 602.654 13.8376 602.654 13.6416ZM607.316 17.1826V23H606.052V15.6035H607.248L607.316 17.1826ZM607.016 19.0215L606.489 19.001C606.494 18.4951 606.569 18.028 606.715 17.5996C606.861 17.1667 607.066 16.7907 607.33 16.4717C607.594 16.1527 607.909 15.9066 608.273 15.7334C608.643 15.5557 609.05 15.4668 609.497 15.4668C609.862 15.4668 610.19 15.5169 610.481 15.6172C610.773 15.7129 611.021 15.8678 611.227 16.082C611.436 16.2962 611.596 16.5742 611.705 16.916C611.814 17.2533 611.869 17.6657 611.869 18.1533V23H610.598V18.1396C610.598 17.7523 610.541 17.4424 610.427 17.21C610.313 16.973 610.146 16.8021 609.928 16.6973C609.709 16.5879 609.44 16.5332 609.121 16.5332C608.807 16.5332 608.52 16.5993 608.26 16.7314C608.005 16.8636 607.784 17.0459 607.597 17.2783C607.414 17.5107 607.271 17.7773 607.166 18.0781C607.066 18.3743 607.016 18.6888 607.016 19.0215ZM616.75 22.0977C617.051 22.0977 617.329 22.0361 617.584 21.9131C617.839 21.79 618.049 21.6214 618.213 21.4072C618.377 21.1885 618.47 20.9401 618.493 20.6621H619.696C619.674 21.0996 619.525 21.5075 619.252 21.8857C618.983 22.2594 618.63 22.5625 618.192 22.7949C617.755 23.0228 617.274 23.1367 616.75 23.1367C616.194 23.1367 615.709 23.0387 615.294 22.8428C614.884 22.6468 614.542 22.3779 614.269 22.0361C614 21.6943 613.797 21.3024 613.66 20.8604C613.528 20.4137 613.462 19.9421 613.462 19.4453V19.1582C613.462 18.6615 613.528 18.1921 613.66 17.75C613.797 17.3034 614 16.9092 614.269 16.5674C614.542 16.2256 614.884 15.9567 615.294 15.7607C615.709 15.5648 616.194 15.4668 616.75 15.4668C617.329 15.4668 617.835 15.5853 618.268 15.8223C618.701 16.0547 619.04 16.3737 619.286 16.7793C619.537 17.1803 619.674 17.6361 619.696 18.1465H618.493C618.47 17.8411 618.384 17.5654 618.233 17.3193C618.088 17.0732 617.887 16.8773 617.632 16.7314C617.381 16.5811 617.087 16.5059 616.75 16.5059C616.363 16.5059 616.037 16.5833 615.772 16.7383C615.513 16.8887 615.305 17.0938 615.15 17.3535C615 17.6087 614.891 17.8936 614.822 18.208C614.758 18.5179 614.727 18.8346 614.727 19.1582V19.4453C614.727 19.7689 614.758 20.0879 614.822 20.4023C614.886 20.7168 614.993 21.0016 615.144 21.2568C615.299 21.512 615.506 21.7171 615.766 21.8721C616.03 22.0225 616.358 22.0977 616.75 22.0977ZM620.783 19.3838V19.2266C620.783 18.6934 620.861 18.1989 621.016 17.7432C621.171 17.2829 621.394 16.8841 621.686 16.5469C621.977 16.2051 622.33 15.9408 622.745 15.7539C623.16 15.5625 623.625 15.4668 624.14 15.4668C624.659 15.4668 625.126 15.5625 625.541 15.7539C625.96 15.9408 626.316 16.2051 626.607 16.5469C626.904 16.8841 627.129 17.2829 627.284 17.7432C627.439 18.1989 627.517 18.6934 627.517 19.2266V19.3838C627.517 19.917 627.439 20.4115 627.284 20.8672C627.129 21.3229 626.904 21.7217 626.607 22.0635C626.316 22.4007 625.963 22.665 625.548 22.8564C625.138 23.0433 624.673 23.1367 624.153 23.1367C623.634 23.1367 623.167 23.0433 622.752 22.8564C622.337 22.665 621.982 22.4007 621.686 22.0635C621.394 21.7217 621.171 21.3229 621.016 20.8672C620.861 20.4115 620.783 19.917 620.783 19.3838ZM622.048 19.2266V19.3838C622.048 19.7529 622.091 20.1016 622.178 20.4297C622.264 20.7533 622.394 21.0404 622.567 21.291C622.745 21.5417 622.966 21.7399 623.23 21.8857C623.495 22.027 623.802 22.0977 624.153 22.0977C624.5 22.0977 624.803 22.027 625.062 21.8857C625.327 21.7399 625.546 21.5417 625.719 21.291C625.892 21.0404 626.022 20.7533 626.108 20.4297C626.2 20.1016 626.245 19.7529 626.245 19.3838V19.2266C626.245 18.862 626.2 18.5179 626.108 18.1943C626.022 17.8662 625.89 17.5768 625.712 17.3262C625.539 17.071 625.32 16.8704 625.056 16.7246C624.796 16.5788 624.491 16.5059 624.14 16.5059C623.793 16.5059 623.488 16.5788 623.224 16.7246C622.964 16.8704 622.745 17.071 622.567 17.3262C622.394 17.5768 622.264 17.8662 622.178 18.1943C622.091 18.5179 622.048 18.862 622.048 19.2266ZM630.367 16.7656V23H629.103V15.6035H630.333L630.367 16.7656ZM632.678 15.5625L632.671 16.7383C632.566 16.7155 632.466 16.7018 632.37 16.6973C632.279 16.6882 632.174 16.6836 632.056 16.6836C631.764 16.6836 631.507 16.7292 631.283 16.8203C631.06 16.9115 630.871 17.0391 630.716 17.2031C630.561 17.3672 630.438 17.5632 630.347 17.791C630.26 18.0143 630.203 18.2604 630.176 18.5293L629.82 18.7344C629.82 18.2878 629.864 17.8685 629.95 17.4766C630.041 17.0846 630.18 16.7383 630.367 16.4375C630.554 16.1322 630.791 15.8952 631.078 15.7266C631.37 15.5534 631.716 15.4668 632.117 15.4668C632.208 15.4668 632.313 15.4782 632.432 15.501C632.55 15.5192 632.632 15.5397 632.678 15.5625ZM635.111 16.7656V23H633.847V15.6035H635.077L635.111 16.7656ZM637.422 15.5625L637.415 16.7383C637.31 16.7155 637.21 16.7018 637.114 16.6973C637.023 16.6882 636.918 16.6836 636.8 16.6836C636.508 16.6836 636.251 16.7292 636.027 16.8203C635.804 16.9115 635.615 17.0391 635.46 17.2031C635.305 17.3672 635.182 17.5632 635.091 17.791C635.004 18.0143 634.947 18.2604 634.92 18.5293L634.564 18.7344C634.564 18.2878 634.608 17.8685 634.694 17.4766C634.785 17.0846 634.924 16.7383 635.111 16.4375C635.298 16.1322 635.535 15.8952 635.822 15.7266C636.114 15.5534 636.46 15.4668 636.861 15.4668C636.952 15.4668 637.057 15.4782 637.176 15.501C637.294 15.5192 637.376 15.5397 637.422 15.5625ZM641.523 23.1367C641.008 23.1367 640.541 23.0501 640.122 22.877C639.707 22.6992 639.35 22.4508 639.049 22.1318C638.753 21.8128 638.525 21.4346 638.365 20.9971C638.206 20.5596 638.126 20.0811 638.126 19.5615V19.2744C638.126 18.6729 638.215 18.1374 638.393 17.668C638.57 17.194 638.812 16.793 639.117 16.4648C639.423 16.1367 639.769 15.8883 640.156 15.7197C640.544 15.5511 640.945 15.4668 641.359 15.4668C641.888 15.4668 642.344 15.5579 642.727 15.7402C643.114 15.9225 643.431 16.1777 643.677 16.5059C643.923 16.8294 644.105 17.2122 644.224 17.6543C644.342 18.0918 644.401 18.5703 644.401 19.0898V19.6572H638.878V18.625H643.137V18.5293C643.118 18.2012 643.05 17.8822 642.932 17.5723C642.818 17.2624 642.635 17.0072 642.385 16.8066C642.134 16.6061 641.792 16.5059 641.359 16.5059C641.072 16.5059 640.808 16.5674 640.566 16.6904C640.325 16.8089 640.118 16.9867 639.944 17.2236C639.771 17.4606 639.637 17.75 639.541 18.0918C639.445 18.4336 639.397 18.8278 639.397 19.2744V19.5615C639.397 19.9124 639.445 20.2428 639.541 20.5527C639.641 20.8581 639.785 21.127 639.972 21.3594C640.163 21.5918 640.393 21.7741 640.662 21.9062C640.936 22.0384 641.245 22.1045 641.592 22.1045C642.038 22.1045 642.417 22.0133 642.727 21.8311C643.036 21.6488 643.308 21.4049 643.54 21.0996L644.306 21.708C644.146 21.9495 643.943 22.1797 643.697 22.3984C643.451 22.6172 643.148 22.7949 642.788 22.9316C642.433 23.0684 642.011 23.1367 641.523 23.1367ZM648.975 15.6035V16.5742H644.976V15.6035H648.975ZM646.329 13.8057H647.594V21.168C647.594 21.4186 647.632 21.6077 647.71 21.7354C647.787 21.863 647.888 21.9473 648.011 21.9883C648.134 22.0293 648.266 22.0498 648.407 22.0498C648.512 22.0498 648.621 22.0407 648.735 22.0225C648.854 21.9997 648.943 21.9814 649.002 21.9678L649.009 23C648.909 23.0319 648.776 23.0615 648.612 23.0889C648.453 23.1208 648.259 23.1367 648.031 23.1367C647.721 23.1367 647.437 23.0752 647.177 22.9521C646.917 22.8291 646.71 22.624 646.555 22.3369C646.404 22.0452 646.329 21.6533 646.329 21.1611V13.8057ZM649.986 19.3838V19.2266C649.986 18.6934 650.064 18.1989 650.219 17.7432C650.374 17.2829 650.597 16.8841 650.889 16.5469C651.18 16.2051 651.534 15.9408 651.948 15.7539C652.363 15.5625 652.828 15.4668 653.343 15.4668C653.862 15.4668 654.329 15.5625 654.744 15.7539C655.163 15.9408 655.519 16.2051 655.811 16.5469C656.107 16.8841 656.332 17.2829 656.487 17.7432C656.642 18.1989 656.72 18.6934 656.72 19.2266V19.3838C656.72 19.917 656.642 20.4115 656.487 20.8672C656.332 21.3229 656.107 21.7217 655.811 22.0635C655.519 22.4007 655.166 22.665 654.751 22.8564C654.341 23.0433 653.876 23.1367 653.356 23.1367C652.837 23.1367 652.37 23.0433 651.955 22.8564C651.54 22.665 651.185 22.4007 650.889 22.0635C650.597 21.7217 650.374 21.3229 650.219 20.8672C650.064 20.4115 649.986 19.917 649.986 19.3838ZM651.251 19.2266V19.3838C651.251 19.7529 651.294 20.1016 651.381 20.4297C651.467 20.7533 651.597 21.0404 651.771 21.291C651.948 21.5417 652.169 21.7399 652.434 21.8857C652.698 22.027 653.006 22.0977 653.356 22.0977C653.703 22.0977 654.006 22.027 654.266 21.8857C654.53 21.7399 654.749 21.5417 654.922 21.291C655.095 21.0404 655.225 20.7533 655.312 20.4297C655.403 20.1016 655.448 19.7529 655.448 19.3838V19.2266C655.448 18.862 655.403 18.5179 655.312 18.1943C655.225 17.8662 655.093 17.5768 654.915 17.3262C654.742 17.071 654.523 16.8704 654.259 16.7246C653.999 16.5788 653.694 16.5059 653.343 16.5059C652.996 16.5059 652.691 16.5788 652.427 16.7246C652.167 16.8704 651.948 17.071 651.771 17.3262C651.597 17.5768 651.467 17.8662 651.381 18.1943C651.294 18.5179 651.251 18.862 651.251 19.2266ZM662.612 21.0381C662.612 20.8558 662.571 20.6872 662.489 20.5322C662.412 20.3727 662.25 20.2292 662.004 20.1016C661.762 19.9694 661.398 19.8555 660.91 19.7598C660.5 19.6732 660.129 19.5706 659.796 19.4521C659.468 19.3337 659.188 19.1901 658.955 19.0215C658.727 18.8529 658.552 18.6546 658.429 18.4268C658.306 18.1989 658.244 17.9323 658.244 17.627C658.244 17.3353 658.308 17.0596 658.436 16.7998C658.568 16.54 658.752 16.3099 658.989 16.1094C659.231 15.9089 659.52 15.7516 659.857 15.6377C660.195 15.5238 660.571 15.4668 660.985 15.4668C661.578 15.4668 662.084 15.5716 662.503 15.7812C662.922 15.9909 663.243 16.2712 663.467 16.6221C663.69 16.9684 663.802 17.3535 663.802 17.7773H662.537C662.537 17.5723 662.476 17.374 662.353 17.1826C662.234 16.9867 662.059 16.8249 661.826 16.6973C661.598 16.5697 661.318 16.5059 660.985 16.5059C660.634 16.5059 660.35 16.5605 660.131 16.6699C659.917 16.7747 659.759 16.9092 659.659 17.0732C659.563 17.2373 659.516 17.4105 659.516 17.5928C659.516 17.7295 659.538 17.8525 659.584 17.9619C659.634 18.0667 659.721 18.1647 659.844 18.2559C659.967 18.3424 660.14 18.4245 660.363 18.502C660.587 18.5794 660.871 18.6569 661.218 18.7344C661.824 18.8711 662.323 19.0352 662.715 19.2266C663.107 19.418 663.398 19.6527 663.59 19.9307C663.781 20.2087 663.877 20.5459 663.877 20.9424C663.877 21.266 663.809 21.5622 663.672 21.8311C663.54 22.0999 663.346 22.3324 663.091 22.5283C662.84 22.7197 662.539 22.8701 662.188 22.9795C661.842 23.0843 661.452 23.1367 661.02 23.1367C660.368 23.1367 659.816 23.0205 659.365 22.7881C658.914 22.5557 658.572 22.2549 658.34 21.8857C658.107 21.5166 657.991 21.127 657.991 20.7168H659.263C659.281 21.0632 659.381 21.3389 659.563 21.5439C659.746 21.7445 659.969 21.888 660.233 21.9746C660.498 22.0566 660.76 22.0977 661.02 22.0977C661.366 22.0977 661.655 22.0521 661.888 21.9609C662.125 21.8698 662.305 21.7445 662.428 21.585C662.551 21.4255 662.612 21.2432 662.612 21.0381ZM665.559 22.3301C665.559 22.1159 665.625 21.9359 665.757 21.79C665.894 21.6396 666.09 21.5645 666.345 21.5645C666.6 21.5645 666.794 21.6396 666.926 21.79C667.062 21.9359 667.131 22.1159 667.131 22.3301C667.131 22.5397 667.062 22.7174 666.926 22.8633C666.794 23.0091 666.6 23.082 666.345 23.082C666.09 23.082 665.894 23.0091 665.757 22.8633C665.625 22.7174 665.559 22.5397 665.559 22.3301ZM676.564 19.0967H673.905V18.0234H676.564C677.079 18.0234 677.496 17.9414 677.815 17.7773C678.134 17.6133 678.367 17.3854 678.513 17.0938C678.663 16.8021 678.738 16.4694 678.738 16.0957C678.738 15.7539 678.663 15.4326 678.513 15.1318C678.367 14.8311 678.134 14.5895 677.815 14.4072C677.496 14.2204 677.079 14.127 676.564 14.127H674.213V23H672.894V13.0469H676.564C677.316 13.0469 677.952 13.1768 678.472 13.4365C678.991 13.6963 679.385 14.0563 679.654 14.5166C679.923 14.9723 680.058 15.4941 680.058 16.082C680.058 16.7201 679.923 17.2646 679.654 17.7158C679.385 18.167 678.991 18.5111 678.472 18.748C677.952 18.9805 677.316 19.0967 676.564 19.0967ZM681.104 19.3838V19.2266C681.104 18.6934 681.181 18.1989 681.336 17.7432C681.491 17.2829 681.714 16.8841 682.006 16.5469C682.298 16.2051 682.651 15.9408 683.065 15.7539C683.48 15.5625 683.945 15.4668 684.46 15.4668C684.979 15.4668 685.447 15.5625 685.861 15.7539C686.281 15.9408 686.636 16.2051 686.928 16.5469C687.224 16.8841 687.45 17.2829 687.604 17.7432C687.759 18.1989 687.837 18.6934 687.837 19.2266V19.3838C687.837 19.917 687.759 20.4115 687.604 20.8672C687.45 21.3229 687.224 21.7217 686.928 22.0635C686.636 22.4007 686.283 22.665 685.868 22.8564C685.458 23.0433 684.993 23.1367 684.474 23.1367C683.954 23.1367 683.487 23.0433 683.072 22.8564C682.658 22.665 682.302 22.4007 682.006 22.0635C681.714 21.7217 681.491 21.3229 681.336 20.8672C681.181 20.4115 681.104 19.917 681.104 19.3838ZM682.368 19.2266V19.3838C682.368 19.7529 682.411 20.1016 682.498 20.4297C682.585 20.7533 682.715 21.0404 682.888 21.291C683.065 21.5417 683.286 21.7399 683.551 21.8857C683.815 22.027 684.123 22.0977 684.474 22.0977C684.82 22.0977 685.123 22.027 685.383 21.8857C685.647 21.7399 685.866 21.5417 686.039 21.291C686.212 21.0404 686.342 20.7533 686.429 20.4297C686.52 20.1016 686.565 19.7529 686.565 19.3838V19.2266C686.565 18.862 686.52 18.5179 686.429 18.1943C686.342 17.8662 686.21 17.5768 686.032 17.3262C685.859 17.071 685.64 16.8704 685.376 16.7246C685.116 16.5788 684.811 16.5059 684.46 16.5059C684.114 16.5059 683.808 16.5788 683.544 16.7246C683.284 16.8704 683.065 17.071 682.888 17.3262C682.715 17.5768 682.585 17.8662 682.498 18.1943C682.411 18.5179 682.368 18.862 682.368 19.2266ZM690.688 16.7656V23H689.423V15.6035H690.653L690.688 16.7656ZM692.998 15.5625L692.991 16.7383C692.886 16.7155 692.786 16.7018 692.69 16.6973C692.599 16.6882 692.494 16.6836 692.376 16.6836C692.084 16.6836 691.827 16.7292 691.604 16.8203C691.38 16.9115 691.191 17.0391 691.036 17.2031C690.881 17.3672 690.758 17.5632 690.667 17.791C690.58 18.0143 690.523 18.2604 690.496 18.5293L690.141 18.7344C690.141 18.2878 690.184 17.8685 690.271 17.4766C690.362 17.0846 690.501 16.7383 690.688 16.4375C690.874 16.1322 691.111 15.8952 691.398 15.7266C691.69 15.5534 692.036 15.4668 692.438 15.4668C692.529 15.4668 692.633 15.4782 692.752 15.501C692.87 15.5192 692.952 15.5397 692.998 15.5625ZM699.526 23H698.262V14.8242C698.262 14.291 698.357 13.8421 698.549 13.4775C698.745 13.1084 699.025 12.8304 699.39 12.6436C699.754 12.4521 700.187 12.3564 700.688 12.3564C700.834 12.3564 700.98 12.3656 701.126 12.3838C701.276 12.402 701.422 12.4294 701.563 12.4658L701.495 13.498C701.399 13.4753 701.29 13.4593 701.167 13.4502C701.049 13.4411 700.93 13.4365 700.812 13.4365C700.543 13.4365 700.31 13.4912 700.114 13.6006C699.923 13.7054 699.777 13.8604 699.677 14.0654C699.576 14.2705 699.526 14.5234 699.526 14.8242V23ZM701.099 15.6035V16.5742H697.093V15.6035H701.099ZM706.868 21.7354V17.9277C706.868 17.6361 706.809 17.3831 706.69 17.1689C706.576 16.9502 706.403 16.7816 706.171 16.6631C705.938 16.5446 705.651 16.4854 705.31 16.4854C704.991 16.4854 704.71 16.54 704.469 16.6494C704.232 16.7588 704.045 16.9023 703.908 17.0801C703.776 17.2578 703.71 17.4492 703.71 17.6543H702.445C702.445 17.39 702.514 17.1279 702.65 16.8682C702.787 16.6084 702.983 16.3737 703.238 16.1641C703.498 15.9499 703.808 15.7812 704.168 15.6582C704.533 15.5306 704.938 15.4668 705.385 15.4668C705.923 15.4668 706.396 15.5579 706.807 15.7402C707.221 15.9225 707.545 16.1982 707.777 16.5674C708.014 16.932 708.133 17.39 708.133 17.9414V21.3867C708.133 21.6328 708.153 21.8949 708.194 22.1729C708.24 22.4508 708.306 22.6901 708.393 22.8906V23H707.073C707.009 22.8542 706.959 22.6605 706.923 22.4189C706.886 22.1729 706.868 21.945 706.868 21.7354ZM707.087 18.5156L707.101 19.4043H705.822C705.462 19.4043 705.141 19.4339 704.858 19.4932C704.576 19.5479 704.339 19.6322 704.147 19.7461C703.956 19.86 703.81 20.0036 703.71 20.1768C703.61 20.3454 703.56 20.5436 703.56 20.7715C703.56 21.0039 703.612 21.2158 703.717 21.4072C703.822 21.5986 703.979 21.7513 704.188 21.8652C704.403 21.9746 704.665 22.0293 704.975 22.0293C705.362 22.0293 705.704 21.9473 706 21.7832C706.296 21.6191 706.531 21.4186 706.704 21.1816C706.882 20.9447 706.978 20.7145 706.991 20.4912L707.531 21.0996C707.499 21.291 707.413 21.5029 707.271 21.7354C707.13 21.9678 706.941 22.1911 706.704 22.4053C706.472 22.6149 706.194 22.7904 705.87 22.9316C705.551 23.0684 705.191 23.1367 704.79 23.1367C704.289 23.1367 703.849 23.0387 703.471 22.8428C703.097 22.6468 702.805 22.3848 702.596 22.0566C702.391 21.724 702.288 21.3525 702.288 20.9424C702.288 20.5459 702.366 20.1973 702.521 19.8965C702.675 19.5911 702.899 19.3382 703.19 19.1377C703.482 18.9326 703.833 18.7777 704.243 18.6729C704.653 18.568 705.111 18.5156 705.617 18.5156H707.087ZM712.262 21.8584L714.285 15.6035H715.577L712.918 23H712.07L712.262 21.8584ZM710.573 15.6035L712.658 21.8926L712.802 23H711.954L709.274 15.6035H710.573ZM716.35 19.3838V19.2266C716.35 18.6934 716.427 18.1989 716.582 17.7432C716.737 17.2829 716.96 16.8841 717.252 16.5469C717.544 16.2051 717.897 15.9408 718.312 15.7539C718.726 15.5625 719.191 15.4668 719.706 15.4668C720.226 15.4668 720.693 15.5625 721.107 15.7539C721.527 15.9408 721.882 16.2051 722.174 16.5469C722.47 16.8841 722.696 17.2829 722.851 17.7432C723.006 18.1989 723.083 18.6934 723.083 19.2266V19.3838C723.083 19.917 723.006 20.4115 722.851 20.8672C722.696 21.3229 722.47 21.7217 722.174 22.0635C721.882 22.4007 721.529 22.665 721.114 22.8564C720.704 23.0433 720.239 23.1367 719.72 23.1367C719.2 23.1367 718.733 23.0433 718.318 22.8564C717.904 22.665 717.548 22.4007 717.252 22.0635C716.96 21.7217 716.737 21.3229 716.582 20.8672C716.427 20.4115 716.35 19.917 716.35 19.3838ZM717.614 19.2266V19.3838C717.614 19.7529 717.658 20.1016 717.744 20.4297C717.831 20.7533 717.961 21.0404 718.134 21.291C718.312 21.5417 718.533 21.7399 718.797 21.8857C719.061 22.027 719.369 22.0977 719.72 22.0977C720.066 22.0977 720.369 22.027 720.629 21.8857C720.893 21.7399 721.112 21.5417 721.285 21.291C721.458 21.0404 721.588 20.7533 721.675 20.4297C721.766 20.1016 721.812 19.7529 721.812 19.3838V19.2266C721.812 18.862 721.766 18.5179 721.675 18.1943C721.588 17.8662 721.456 17.5768 721.278 17.3262C721.105 17.071 720.886 16.8704 720.622 16.7246C720.362 16.5788 720.057 16.5059 719.706 16.5059C719.36 16.5059 719.054 16.5788 718.79 16.7246C718.53 16.8704 718.312 17.071 718.134 17.3262C717.961 17.5768 717.831 17.8662 717.744 18.1943C717.658 18.5179 717.614 18.862 717.614 19.2266ZM725.934 16.7656V23H724.669V15.6035H725.899L725.934 16.7656ZM728.244 15.5625L728.237 16.7383C728.132 16.7155 728.032 16.7018 727.937 16.6973C727.845 16.6882 727.741 16.6836 727.622 16.6836C727.33 16.6836 727.073 16.7292 726.85 16.8203C726.626 16.9115 726.437 17.0391 726.282 17.2031C726.127 17.3672 726.004 17.5632 725.913 17.791C725.826 18.0143 725.77 18.2604 725.742 18.5293L725.387 18.7344C725.387 18.2878 725.43 17.8685 725.517 17.4766C725.608 17.0846 725.747 16.7383 725.934 16.4375C726.12 16.1322 726.357 15.8952 726.645 15.7266C726.936 15.5534 727.283 15.4668 727.684 15.4668C727.775 15.4668 727.88 15.4782 727.998 15.501C728.117 15.5192 728.199 15.5397 728.244 15.5625ZM729.714 21.4961V22.5146C729.714 22.9294 729.609 23.3669 729.399 23.8271C729.19 24.292 728.896 24.6794 728.518 24.9893L727.8 24.4902C727.946 24.2897 728.069 24.0846 728.169 23.875C728.269 23.6699 728.344 23.4557 728.395 23.2324C728.449 23.0137 728.477 22.7812 728.477 22.5352V21.4961H729.714ZM737.896 15.6035V16.5742H733.897V15.6035H737.896ZM735.251 13.8057H736.516V21.168C736.516 21.4186 736.554 21.6077 736.632 21.7354C736.709 21.863 736.81 21.9473 736.933 21.9883C737.056 22.0293 737.188 22.0498 737.329 22.0498C737.434 22.0498 737.543 22.0407 737.657 22.0225C737.776 21.9997 737.865 21.9814 737.924 21.9678L737.931 23C737.83 23.0319 737.698 23.0615 737.534 23.0889C737.375 23.1208 737.181 23.1367 736.953 23.1367C736.643 23.1367 736.358 23.0752 736.099 22.9521C735.839 22.8291 735.632 22.624 735.477 22.3369C735.326 22.0452 735.251 21.6533 735.251 21.1611V13.8057ZM742.449 23.1367C741.934 23.1367 741.467 23.0501 741.048 22.877C740.633 22.6992 740.275 22.4508 739.975 22.1318C739.678 21.8128 739.451 21.4346 739.291 20.9971C739.132 20.5596 739.052 20.0811 739.052 19.5615V19.2744C739.052 18.6729 739.141 18.1374 739.318 17.668C739.496 17.194 739.738 16.793 740.043 16.4648C740.348 16.1367 740.695 15.8883 741.082 15.7197C741.469 15.5511 741.87 15.4668 742.285 15.4668C742.814 15.4668 743.27 15.5579 743.652 15.7402C744.04 15.9225 744.356 16.1777 744.603 16.5059C744.849 16.8294 745.031 17.2122 745.149 17.6543C745.268 18.0918 745.327 18.5703 745.327 19.0898V19.6572H739.804V18.625H744.062V18.5293C744.044 18.2012 743.976 17.8822 743.857 17.5723C743.743 17.2624 743.561 17.0072 743.311 16.8066C743.06 16.6061 742.718 16.5059 742.285 16.5059C741.998 16.5059 741.734 16.5674 741.492 16.6904C741.251 16.8089 741.043 16.9867 740.87 17.2236C740.697 17.4606 740.562 17.75 740.467 18.0918C740.371 18.4336 740.323 18.8278 740.323 19.2744V19.5615C740.323 19.9124 740.371 20.2428 740.467 20.5527C740.567 20.8581 740.711 21.127 740.897 21.3594C741.089 21.5918 741.319 21.7741 741.588 21.9062C741.861 22.0384 742.171 22.1045 742.518 22.1045C742.964 22.1045 743.342 22.0133 743.652 21.8311C743.962 21.6488 744.233 21.4049 744.466 21.0996L745.231 21.708C745.072 21.9495 744.869 22.1797 744.623 22.3984C744.377 22.6172 744.074 22.7949 743.714 22.9316C743.358 23.0684 742.937 23.1367 742.449 23.1367ZM748.068 17.1826V23H746.804V15.6035H748L748.068 17.1826ZM747.768 19.0215L747.241 19.001C747.246 18.4951 747.321 18.028 747.467 17.5996C747.613 17.1667 747.818 16.7907 748.082 16.4717C748.346 16.1527 748.661 15.9066 749.025 15.7334C749.395 15.5557 749.802 15.4668 750.249 15.4668C750.614 15.4668 750.942 15.5169 751.233 15.6172C751.525 15.7129 751.773 15.8678 751.979 16.082C752.188 16.2962 752.348 16.5742 752.457 16.916C752.566 17.2533 752.621 17.6657 752.621 18.1533V23H751.35V18.1396C751.35 17.7523 751.293 17.4424 751.179 17.21C751.065 16.973 750.898 16.8021 750.68 16.6973C750.461 16.5879 750.192 16.5332 749.873 16.5332C749.559 16.5332 749.271 16.5993 749.012 16.7314C748.757 16.8636 748.535 17.0459 748.349 17.2783C748.166 17.5107 748.023 17.7773 747.918 18.0781C747.818 18.3743 747.768 18.6888 747.768 19.0215ZM757.639 15.6035V16.5742H753.64V15.6035H757.639ZM754.993 13.8057H756.258V21.168C756.258 21.4186 756.297 21.6077 756.374 21.7354C756.451 21.863 756.552 21.9473 756.675 21.9883C756.798 22.0293 756.93 22.0498 757.071 22.0498C757.176 22.0498 757.285 22.0407 757.399 22.0225C757.518 21.9997 757.607 21.9814 757.666 21.9678L757.673 23C757.573 23.0319 757.44 23.0615 757.276 23.0889C757.117 23.1208 756.923 23.1367 756.695 23.1367C756.385 23.1367 756.101 23.0752 755.841 22.9521C755.581 22.8291 755.374 22.624 755.219 22.3369C755.068 22.0452 754.993 21.6533 754.993 21.1611V13.8057ZM762.191 23.1367C761.676 23.1367 761.209 23.0501 760.79 22.877C760.375 22.6992 760.018 22.4508 759.717 22.1318C759.421 21.8128 759.193 21.4346 759.033 20.9971C758.874 20.5596 758.794 20.0811 758.794 19.5615V19.2744C758.794 18.6729 758.883 18.1374 759.061 17.668C759.238 17.194 759.48 16.793 759.785 16.4648C760.09 16.1367 760.437 15.8883 760.824 15.7197C761.212 15.5511 761.613 15.4668 762.027 15.4668C762.556 15.4668 763.012 15.5579 763.395 15.7402C763.782 15.9225 764.099 16.1777 764.345 16.5059C764.591 16.8294 764.773 17.2122 764.892 17.6543C765.01 18.0918 765.069 18.5703 765.069 19.0898V19.6572H759.546V18.625H763.805V18.5293C763.786 18.2012 763.718 17.8822 763.6 17.5723C763.486 17.2624 763.303 17.0072 763.053 16.8066C762.802 16.6061 762.46 16.5059 762.027 16.5059C761.74 16.5059 761.476 16.5674 761.234 16.6904C760.993 16.8089 760.785 16.9867 760.612 17.2236C760.439 17.4606 760.305 17.75 760.209 18.0918C760.113 18.4336 760.065 18.8278 760.065 19.2744V19.5615C760.065 19.9124 760.113 20.2428 760.209 20.5527C760.309 20.8581 760.453 21.127 760.64 21.3594C760.831 21.5918 761.061 21.7741 761.33 21.9062C761.604 22.0384 761.913 22.1045 762.26 22.1045C762.706 22.1045 763.085 22.0133 763.395 21.8311C763.704 21.6488 763.976 21.4049 764.208 21.0996L764.974 21.708C764.814 21.9495 764.611 22.1797 764.365 22.3984C764.119 22.6172 763.816 22.7949 763.456 22.9316C763.101 23.0684 762.679 23.1367 762.191 23.1367ZM771.283 17.1826V23H770.019V15.6035H771.215L771.283 17.1826ZM770.982 19.0215L770.456 19.001C770.461 18.4951 770.536 18.028 770.682 17.5996C770.827 17.1667 771.033 16.7907 771.297 16.4717C771.561 16.1527 771.876 15.9066 772.24 15.7334C772.609 15.5557 773.017 15.4668 773.464 15.4668C773.828 15.4668 774.157 15.5169 774.448 15.6172C774.74 15.7129 774.988 15.8678 775.193 16.082C775.403 16.2962 775.562 16.5742 775.672 16.916C775.781 17.2533 775.836 17.6657 775.836 18.1533V23H774.564V18.1396C774.564 17.7523 774.507 17.4424 774.394 17.21C774.28 16.973 774.113 16.8021 773.895 16.6973C773.676 16.5879 773.407 16.5332 773.088 16.5332C772.773 16.5332 772.486 16.5993 772.227 16.7314C771.971 16.8636 771.75 17.0459 771.563 17.2783C771.381 17.5107 771.238 17.7773 771.133 18.0781C771.033 18.3743 770.982 18.6888 770.982 19.0215ZM777.422 19.3838V19.2266C777.422 18.6934 777.499 18.1989 777.654 17.7432C777.809 17.2829 778.033 16.8841 778.324 16.5469C778.616 16.2051 778.969 15.9408 779.384 15.7539C779.799 15.5625 780.263 15.4668 780.778 15.4668C781.298 15.4668 781.765 15.5625 782.18 15.7539C782.599 15.9408 782.954 16.2051 783.246 16.5469C783.542 16.8841 783.768 17.2829 783.923 17.7432C784.078 18.1989 784.155 18.6934 784.155 19.2266V19.3838C784.155 19.917 784.078 20.4115 783.923 20.8672C783.768 21.3229 783.542 21.7217 783.246 22.0635C782.954 22.4007 782.601 22.665 782.187 22.8564C781.776 23.0433 781.312 23.1367 780.792 23.1367C780.272 23.1367 779.805 23.0433 779.391 22.8564C778.976 22.665 778.62 22.4007 778.324 22.0635C778.033 21.7217 777.809 21.3229 777.654 20.8672C777.499 20.4115 777.422 19.917 777.422 19.3838ZM778.687 19.2266V19.3838C778.687 19.7529 778.73 20.1016 778.816 20.4297C778.903 20.7533 779.033 21.0404 779.206 21.291C779.384 21.5417 779.605 21.7399 779.869 21.8857C780.133 22.027 780.441 22.0977 780.792 22.0977C781.138 22.0977 781.441 22.027 781.701 21.8857C781.965 21.7399 782.184 21.5417 782.357 21.291C782.531 21.0404 782.66 20.7533 782.747 20.4297C782.838 20.1016 782.884 19.7529 782.884 19.3838V19.2266C782.884 18.862 782.838 18.5179 782.747 18.1943C782.66 17.8662 782.528 17.5768 782.351 17.3262C782.177 17.071 781.959 16.8704 781.694 16.7246C781.435 16.5788 781.129 16.5059 780.778 16.5059C780.432 16.5059 780.127 16.5788 779.862 16.7246C779.603 16.8704 779.384 17.071 779.206 17.3262C779.033 17.5768 778.903 17.8662 778.816 18.1943C778.73 18.5179 778.687 18.862 778.687 19.2266ZM787.881 21.8584L789.904 15.6035H791.196L788.537 23H787.689L787.881 21.8584ZM786.192 15.6035L788.277 21.8926L788.421 23H787.573L784.894 15.6035H786.192ZM796.665 21.7354V17.9277C796.665 17.6361 796.606 17.3831 796.487 17.1689C796.373 16.9502 796.2 16.7816 795.968 16.6631C795.735 16.5446 795.448 16.4854 795.106 16.4854C794.787 16.4854 794.507 16.54 794.266 16.6494C794.029 16.7588 793.842 16.9023 793.705 17.0801C793.573 17.2578 793.507 17.4492 793.507 17.6543H792.242C792.242 17.39 792.311 17.1279 792.447 16.8682C792.584 16.6084 792.78 16.3737 793.035 16.1641C793.295 15.9499 793.605 15.7812 793.965 15.6582C794.329 15.5306 794.735 15.4668 795.182 15.4668C795.719 15.4668 796.193 15.5579 796.604 15.7402C797.018 15.9225 797.342 16.1982 797.574 16.5674C797.811 16.932 797.93 17.39 797.93 17.9414V21.3867C797.93 21.6328 797.95 21.8949 797.991 22.1729C798.037 22.4508 798.103 22.6901 798.189 22.8906V23H796.87C796.806 22.8542 796.756 22.6605 796.72 22.4189C796.683 22.1729 796.665 21.945 796.665 21.7354ZM796.884 18.5156L796.897 19.4043H795.619C795.259 19.4043 794.938 19.4339 794.655 19.4932C794.373 19.5479 794.136 19.6322 793.944 19.7461C793.753 19.86 793.607 20.0036 793.507 20.1768C793.407 20.3454 793.356 20.5436 793.356 20.7715C793.356 21.0039 793.409 21.2158 793.514 21.4072C793.618 21.5986 793.776 21.7513 793.985 21.8652C794.2 21.9746 794.462 22.0293 794.771 22.0293C795.159 22.0293 795.501 21.9473 795.797 21.7832C796.093 21.6191 796.328 21.4186 796.501 21.1816C796.679 20.9447 796.774 20.7145 796.788 20.4912L797.328 21.0996C797.296 21.291 797.21 21.5029 797.068 21.7354C796.927 21.9678 796.738 22.1911 796.501 22.4053C796.269 22.6149 795.991 22.7904 795.667 22.9316C795.348 23.0684 794.988 23.1367 794.587 23.1367C794.086 23.1367 793.646 23.0387 793.268 22.8428C792.894 22.6468 792.602 22.3848 792.393 22.0566C792.188 21.724 792.085 21.3525 792.085 20.9424C792.085 20.5459 792.162 20.1973 792.317 19.8965C792.472 19.5911 792.696 19.3382 792.987 19.1377C793.279 18.9326 793.63 18.7777 794.04 18.6729C794.45 18.568 794.908 18.5156 795.414 18.5156H796.884ZM801.177 17.0732V23H799.905V15.6035H801.108L801.177 17.0732ZM800.917 19.0215L800.329 19.001C800.334 18.4951 800.4 18.028 800.527 17.5996C800.655 17.1667 800.844 16.7907 801.095 16.4717C801.345 16.1527 801.658 15.9066 802.031 15.7334C802.405 15.5557 802.838 15.4668 803.33 15.4668C803.676 15.4668 803.995 15.5169 804.287 15.6172C804.579 15.7129 804.832 15.8656 805.046 16.0752C805.26 16.2848 805.426 16.5537 805.545 16.8818C805.663 17.21 805.723 17.6064 805.723 18.0713V23H804.458V18.1328C804.458 17.7454 804.392 17.4355 804.26 17.2031C804.132 16.9707 803.95 16.8021 803.713 16.6973C803.476 16.5879 803.198 16.5332 802.879 16.5332C802.505 16.5332 802.193 16.5993 801.942 16.7314C801.692 16.8636 801.491 17.0459 801.341 17.2783C801.19 17.5107 801.081 17.7773 801.013 18.0781C800.949 18.3743 800.917 18.6888 800.917 19.0215ZM805.709 18.3242L804.861 18.584C804.866 18.1784 804.932 17.7887 805.06 17.415C805.192 17.0413 805.381 16.7087 805.627 16.417C805.878 16.1253 806.185 15.8952 806.55 15.7266C806.914 15.5534 807.331 15.4668 807.801 15.4668C808.197 15.4668 808.548 15.5192 808.854 15.624C809.163 15.7288 809.423 15.8906 809.633 16.1094C809.847 16.3236 810.009 16.5993 810.118 16.9365C810.228 17.2738 810.282 17.6748 810.282 18.1396V23H809.011V18.126C809.011 17.7113 808.945 17.39 808.812 17.1621C808.685 16.9297 808.503 16.7679 808.266 16.6768C808.033 16.5811 807.755 16.5332 807.432 16.5332C807.154 16.5332 806.908 16.5811 806.693 16.6768C806.479 16.7725 806.299 16.9046 806.153 17.0732C806.007 17.2373 805.896 17.4264 805.818 17.6406C805.745 17.8548 805.709 18.0827 805.709 18.3242ZM815.266 23.1367C814.751 23.1367 814.284 23.0501 813.864 22.877C813.45 22.6992 813.092 22.4508 812.791 22.1318C812.495 21.8128 812.267 21.4346 812.107 20.9971C811.948 20.5596 811.868 20.0811 811.868 19.5615V19.2744C811.868 18.6729 811.957 18.1374 812.135 17.668C812.312 17.194 812.554 16.793 812.859 16.4648C813.165 16.1367 813.511 15.8883 813.898 15.7197C814.286 15.5511 814.687 15.4668 815.102 15.4668C815.63 15.4668 816.086 15.5579 816.469 15.7402C816.856 15.9225 817.173 16.1777 817.419 16.5059C817.665 16.8294 817.847 17.2122 817.966 17.6543C818.084 18.0918 818.144 18.5703 818.144 19.0898V19.6572H812.62V18.625H816.879V18.5293C816.861 18.2012 816.792 17.8822 816.674 17.5723C816.56 17.2624 816.378 17.0072 816.127 16.8066C815.876 16.6061 815.535 16.5059 815.102 16.5059C814.814 16.5059 814.55 16.5674 814.309 16.6904C814.067 16.8089 813.86 16.9867 813.687 17.2236C813.513 17.4606 813.379 17.75 813.283 18.0918C813.188 18.4336 813.14 18.8278 813.14 19.2744V19.5615C813.14 19.9124 813.188 20.2428 813.283 20.5527C813.383 20.8581 813.527 21.127 813.714 21.3594C813.905 21.5918 814.135 21.7741 814.404 21.9062C814.678 22.0384 814.988 22.1045 815.334 22.1045C815.781 22.1045 816.159 22.0133 816.469 21.8311C816.779 21.6488 817.05 21.4049 817.282 21.0996L818.048 21.708C817.888 21.9495 817.686 22.1797 817.439 22.3984C817.193 22.6172 816.89 22.7949 816.53 22.9316C816.175 23.0684 815.753 23.1367 815.266 23.1367ZM820.885 17.1826V23H819.62V15.6035H820.816L820.885 17.1826ZM820.584 19.0215L820.058 19.001C820.062 18.4951 820.137 18.028 820.283 17.5996C820.429 17.1667 820.634 16.7907 820.898 16.4717C821.163 16.1527 821.477 15.9066 821.842 15.7334C822.211 15.5557 822.619 15.4668 823.065 15.4668C823.43 15.4668 823.758 15.5169 824.05 15.6172C824.341 15.7129 824.59 15.8678 824.795 16.082C825.005 16.2962 825.164 16.5742 825.273 16.916C825.383 17.2533 825.438 17.6657 825.438 18.1533V23H824.166V18.1396C824.166 17.7523 824.109 17.4424 823.995 17.21C823.881 16.973 823.715 16.8021 823.496 16.6973C823.277 16.5879 823.008 16.5332 822.689 16.5332C822.375 16.5332 822.088 16.5993 821.828 16.7314C821.573 16.8636 821.352 17.0459 821.165 17.2783C820.983 17.5107 820.839 17.7773 820.734 18.0781C820.634 18.3743 820.584 18.6888 820.584 19.0215ZM830.455 15.6035V16.5742H826.456V15.6035H830.455ZM827.81 13.8057H829.074V21.168C829.074 21.4186 829.113 21.6077 829.19 21.7354C829.268 21.863 829.368 21.9473 829.491 21.9883C829.614 22.0293 829.746 22.0498 829.888 22.0498C829.993 22.0498 830.102 22.0407 830.216 22.0225C830.334 21.9997 830.423 21.9814 830.482 21.9678L830.489 23C830.389 23.0319 830.257 23.0615 830.093 23.0889C829.933 23.1208 829.74 23.1367 829.512 23.1367C829.202 23.1367 828.917 23.0752 828.657 22.9521C828.397 22.8291 828.19 22.624 828.035 22.3369C827.885 22.0452 827.81 21.6533 827.81 21.1611V13.8057ZM835.008 23.1367C834.493 23.1367 834.026 23.0501 833.606 22.877C833.192 22.6992 832.834 22.4508 832.533 22.1318C832.237 21.8128 832.009 21.4346 831.85 20.9971C831.69 20.5596 831.61 20.0811 831.61 19.5615V19.2744C831.61 18.6729 831.699 18.1374 831.877 17.668C832.055 17.194 832.296 16.793 832.602 16.4648C832.907 16.1367 833.253 15.8883 833.641 15.7197C834.028 15.5511 834.429 15.4668 834.844 15.4668C835.372 15.4668 835.828 15.5579 836.211 15.7402C836.598 15.9225 836.915 16.1777 837.161 16.5059C837.407 16.8294 837.59 17.2122 837.708 17.6543C837.826 18.0918 837.886 18.5703 837.886 19.0898V19.6572H832.362V18.625H836.621V18.5293C836.603 18.2012 836.535 17.8822 836.416 17.5723C836.302 17.2624 836.12 17.0072 835.869 16.8066C835.618 16.6061 835.277 16.5059 834.844 16.5059C834.557 16.5059 834.292 16.5674 834.051 16.6904C833.809 16.8089 833.602 16.9867 833.429 17.2236C833.256 17.4606 833.121 17.75 833.025 18.0918C832.93 18.4336 832.882 18.8278 832.882 19.2744V19.5615C832.882 19.9124 832.93 20.2428 833.025 20.5527C833.126 20.8581 833.269 21.127 833.456 21.3594C833.647 21.5918 833.878 21.7741 834.146 21.9062C834.42 22.0384 834.73 22.1045 835.076 22.1045C835.523 22.1045 835.901 22.0133 836.211 21.8311C836.521 21.6488 836.792 21.4049 837.024 21.0996L837.79 21.708C837.631 21.9495 837.428 22.1797 837.182 22.3984C836.936 22.6172 836.632 22.7949 836.272 22.9316C835.917 23.0684 835.495 23.1367 835.008 23.1367ZM839.383 22.3301C839.383 22.1159 839.449 21.9359 839.581 21.79C839.718 21.6396 839.914 21.5645 840.169 21.5645C840.424 21.5645 840.618 21.6396 840.75 21.79C840.887 21.9359 840.955 22.1159 840.955 22.3301C840.955 22.5397 840.887 22.7174 840.75 22.8633C840.618 23.0091 840.424 23.082 840.169 23.082C839.914 23.082 839.718 23.0091 839.581 22.8633C839.449 22.7174 839.383 22.5397 839.383 22.3301Z" fill="#444444"/>
<rect x="0.5" y="0.5" width="1279" height="35" stroke="#CE1126"/>
<defs>
<clipPath id="clip0_139_7">
<rect width="16" height="16" fill="white" transform="translate(437 10)"/>
</clipPath>
</defs>
</svg>
