<svg width="210" height="48" viewBox="0 0 210 48" fill="none" xmlns="http://www.w3.org/2000/svg">
<path d="M110.382 26.5851V29.3057H101.554V15.6237H104.659V26.5851H110.382ZM69.5731 29.3057C72.7565 29.3057 75.432 27.127 76.1996 24.1919L83.9437 30.2427L91.6766 24.2032V29.317H100.504V26.5964H94.781V15.635H91.6653V20.7488L84.2485 26.5512L82.5891 25.253L86.145 22.476L90.0171 19.4506L87.8045 17.7234L80.3877 23.5258L78.7283 22.2276L86.145 16.4252L83.9324 14.698L76.1996 20.7488C75.432 17.8024 72.7565 15.635 69.5731 15.635H64.0303V29.317H69.5731V29.3057ZM67.1347 26.5851V18.3443H69.5731C71.6389 18.3443 73.3097 20.1844 73.3097 22.4647C73.3097 24.745 71.6389 26.5851 69.5731 26.5851H67.1347Z" fill="white"/>
<path d="M120.621 16.7525H116.388L116.196 16.9444V29.0573L116.004 29.2492H115.236L115.044 29.0573V16.9557L114.852 16.7637H110.619L110.427 16.5718V15.9961L110.619 15.8042H120.621L120.813 15.9961V16.5718L120.621 16.7525Z" fill="white"/>
<path d="M120.271 24.8353L120.079 25.0272C120.079 26.1786 120.847 28.4928 123.353 28.4928C124.888 28.4928 125.656 27.7252 126.04 26.5737L126.232 26.3818H126.999L127.191 26.5737C126.999 27.7252 126.04 29.4637 123.342 29.4637C120.26 29.4637 118.917 27.1608 118.917 24.4627V24.0789C118.917 21.3922 120.452 19.4618 123.15 19.4618C125.848 19.4618 127.383 21.3809 127.383 24.0789V24.6546L127.191 24.8466H120.271V24.8353ZM126.232 23.6838C126.232 22.3404 125.464 20.4101 123.15 20.4101C120.836 20.4101 120.068 22.3291 120.068 23.6838L120.26 23.8757H126.028L126.232 23.6838Z" fill="white"/>
<path d="M132.802 28.4928C134.721 28.4928 135.488 27.3414 135.692 26.1899L135.884 25.998H136.651L136.843 26.1899C136.651 28.109 135.116 29.4637 132.802 29.4637C130.307 29.4637 128.376 27.9284 128.376 24.4627C128.376 20.9971 130.296 19.4618 132.802 19.4618C135.105 19.4618 136.651 20.8052 136.843 22.7355L136.651 22.9275H135.884L135.692 22.7355C135.5 21.5841 134.732 20.4326 132.802 20.4326C130.883 20.4326 129.528 21.776 129.528 24.474C129.528 27.172 130.871 28.4928 132.802 28.4928Z" fill="white"/>
<path d="M146.1 29.2605H145.332L145.14 29.0686V23.3C145.14 21.3809 144.181 20.4101 142.645 20.4101C140.534 20.4101 139.564 21.7535 139.564 23.8758V29.0686L139.372 29.2605H138.604L138.412 29.0686V15.9849L138.604 15.793H139.372L139.564 15.9849V20.9858H139.755C140.331 20.0263 141.483 19.4505 142.837 19.4505C144.948 19.4505 146.303 20.7939 146.303 23.3V29.0686L146.1 29.2605Z" fill="white"/>
<path d="M155.921 29.2605H155.153L154.962 29.0686V23.3C154.962 21.3809 154.002 20.4101 152.467 20.4101C150.356 20.4101 149.385 21.7535 149.385 23.8758V29.0686L149.193 29.2605H148.425L148.233 29.0686V19.8344L148.425 19.6425H149.001L149.193 19.8344L149.385 20.9858H149.577C150.152 20.0263 151.304 19.4506 152.659 19.4506C154.77 19.4506 156.124 20.7939 156.124 23.3V29.0686L155.921 29.2605Z" fill="white"/>
<path d="M157.693 24.4515C157.693 21.1777 159.612 19.4506 162.119 19.4506C164.613 19.4506 166.544 21.1777 166.544 24.4515C166.544 27.7253 164.625 29.4524 162.119 29.4524C159.612 29.4524 157.693 27.714 157.693 24.4515ZM158.845 24.4515C158.845 26.9463 160.188 28.4929 162.119 28.4929C164.038 28.4929 165.392 26.9576 165.392 24.4515C165.392 21.9454 164.049 20.4101 162.119 20.4101C160.188 20.4101 158.845 21.9454 158.845 24.4515Z" fill="white"/>
<path d="M168.655 29.2605H167.887L167.695 29.0686V15.9849L167.887 15.793H168.655L168.847 15.9849V29.0573L168.655 29.2605Z" fill="white"/>
<path d="M170.416 24.4515C170.416 21.1777 172.335 19.4506 174.841 19.4506C177.336 19.4506 179.266 21.1777 179.266 24.4515C179.266 27.7253 177.347 29.4524 174.841 29.4524C172.335 29.4524 170.416 27.714 170.416 24.4515ZM171.567 24.4515C171.567 26.9463 172.911 28.4929 174.841 28.4929C176.772 28.4929 178.115 26.9576 178.115 24.4515C178.115 21.9454 176.772 20.4101 174.841 20.4101C172.911 20.4101 171.567 21.9454 171.567 24.4515Z" fill="white"/>
<path d="M187.361 27.9172C186.977 28.6848 186.017 29.4524 184.279 29.4524C181.592 29.4524 180.237 27.3414 180.237 24.4515C180.237 21.5616 181.581 19.4506 184.279 19.4506C186.006 19.4506 186.965 20.2182 187.361 20.9858H187.552L187.744 19.8344L187.936 19.6425H188.512L188.704 19.8344V27.9059C188.704 31.7554 187.169 33.2906 184.663 33.2906C182.36 33.2906 181.197 32.1392 181.005 30.6039L181.197 30.412H181.964L182.156 30.6039C182.348 31.5634 182.924 32.3311 184.651 32.3311C186.954 32.3311 187.541 30.412 187.541 27.9059H187.361V27.9172ZM187.552 24.4515C187.552 21.7648 186.401 20.4101 184.471 20.4101C182.54 20.4101 181.389 21.7535 181.389 24.4515C181.389 27.1495 182.54 28.4929 184.471 28.4929C186.401 28.4929 187.552 27.1382 187.552 24.4515Z" fill="white"/>
<path d="M191.605 18.1072H190.837L190.646 17.9153V16.7638L190.837 16.5719H191.605L191.797 16.7638V17.9153L191.605 18.1072ZM191.605 29.2605H190.837L190.646 29.0686V19.8344L190.837 19.6425H191.605L191.797 19.8344V29.0686L191.605 29.2605Z" fill="white"/>
<path d="M194.721 24.8353L194.529 25.0272C194.529 26.1786 195.297 28.4928 197.803 28.4928C199.338 28.4928 200.106 27.7252 200.489 26.5737L200.681 26.3818H201.449L201.641 26.5737C201.449 27.7252 200.489 29.4637 197.791 29.4637C194.71 29.4637 193.366 27.1608 193.366 24.4627V24.0789C193.366 21.3922 194.901 19.4618 197.6 19.4618C200.286 19.4618 201.833 21.3809 201.833 24.0789V24.6546L201.641 24.8466H194.721V24.8353ZM200.681 23.6838C200.681 22.3404 199.914 20.4101 197.6 20.4101C195.297 20.4101 194.518 22.3291 194.518 23.6838L194.71 23.8757H200.478L200.681 23.6838Z" fill="white"/>
<path d="M206.269 29.4524C203.966 29.4524 202.612 28.109 202.612 26.3705L202.804 26.1786H203.571L203.763 26.3705C203.763 27.522 204.531 28.4815 206.258 28.4815C208.177 28.4815 208.753 27.7139 208.753 26.7544C208.753 25.2191 207.793 25.0272 205.863 24.6434C203.944 24.2595 202.781 23.4919 202.781 21.9566C202.781 20.6133 203.933 19.4618 206.055 19.4618C207.974 19.4618 209.521 20.2294 209.521 22.1485L209.329 22.3404H208.561L208.369 22.1485C208.369 21.189 207.793 20.4213 206.066 20.4213C204.723 20.4213 203.955 20.9971 203.955 21.9566C203.955 23.3 205.107 23.4919 207.037 23.8757C208.956 24.2595 209.927 25.0272 209.927 26.7656C209.927 28.3009 208.764 29.4524 206.269 29.4524Z" fill="white"/>
<path d="M51.4206 15.0592V20.0262C51.4206 20.0375 51.4093 20.0375 51.4093 20.0262C50.7094 19.1344 49.4789 18.6151 47.9888 18.6151C45.144 18.6151 43.5071 20.5794 43.3378 23.9322C43.3378 23.9322 43.3265 24.2934 43.3265 24.3386C43.3039 27.2849 42.5814 28.6283 41.0913 28.6283C40.0302 28.6283 39.0029 28.2896 39.1045 26.9011C39.1158 26.7544 39.2399 23.887 38.811 21.9228C38.382 19.9359 36.7903 18.5926 34.4309 18.5926C32.0603 18.5926 29.3509 20.3197 29.667 25.1626C29.667 25.5465 29.8025 26.3705 29.2268 27.443C28.8204 28.1993 28.0302 28.696 26.2352 28.6283L22.1487 28.6735C19.4394 28.6735 18.7169 26.348 18.6717 25.3207L18.7282 25.2642H25.7837C26.0772 25.2642 26.4046 25.2191 26.6191 25.0385C26.9577 24.745 26.9464 24.4514 26.9464 24.1241C26.9464 21.2793 25.445 19.2134 23.0405 18.7393C22.7131 18.6716 22.3745 18.6377 22.0471 18.6377C20.6699 18.6377 19.3716 18.999 18.3782 20.0037C17.3735 21.0197 16.8204 22.5436 16.8204 23.966V24.5643C16.8204 26.1109 17.2832 27.5672 18.0621 28.6622L15.4093 28.6848C13.3886 28.6848 11.7517 27.2398 11.7517 25.2191V15.0479C11.7517 14.5399 11.3453 14.1335 10.8373 14.1335C10.3293 14.1335 9.91162 14.5512 9.91162 15.0592V25.49C9.91162 28.2558 12.1581 30.491 14.9126 30.491H22.1035H23.8646H26.7207C28.9558 30.491 30.0847 29.5879 30.6604 28.6622H30.6717C31.6313 29.9378 33.0537 30.4684 34.4196 30.4684C36.3161 30.4684 37.1741 29.633 37.6934 28.8654H37.7047C38.3255 30.0281 39.5222 30.4797 40.8994 30.4797C42.5024 30.4797 43.5974 30.0394 44.2635 28.6622H44.2747C45.1101 29.8362 46.3857 30.491 47.9888 30.491H48.2033C50.9916 30.491 53.2719 28.2106 53.2719 25.4223V15.0253C53.2719 14.5286 52.8655 14.1222 52.3688 14.1222C51.8495 14.1222 51.4206 14.5399 51.4206 15.0592ZM45.1666 24.3047C45.2117 22.4985 45.7987 20.4665 48.2145 20.4665C50.7319 20.4665 51.2625 22.6904 51.2625 24.553C51.2625 26.4157 50.7319 28.6396 48.2145 28.6396C45.7536 28.6396 45.1891 26.5286 45.1666 24.6885C45.1666 24.6434 45.1666 24.6095 45.1666 24.5643V24.3047ZM37.2418 24.5192C37.2418 27.2059 36.2484 28.6283 34.3632 28.6283C32.5908 28.6283 31.4845 27.0592 31.4845 24.5192C31.4845 21.9905 32.5908 20.4101 34.3632 20.4101C36.2484 20.4213 37.2418 21.8324 37.2418 24.5192ZM18.7846 23.3451C18.8185 22.2614 19.5071 20.4891 21.889 20.4891C22.8486 20.4891 23.6049 20.7261 24.1242 21.189C24.9144 21.9002 25.0048 22.9613 25.0048 23.3903C25.0048 23.3903 25.0048 23.3903 24.9935 23.3903H18.8298L18.7846 23.3451Z" fill="white"/>
<path d="M40.7413 31.6876C40.5043 31.4957 40.222 31.4279 39.9398 31.4957C39.7818 31.5295 39.635 31.6198 39.5109 31.744C38.3481 32.8503 36.9031 33.5389 35.3227 33.7421C35.1082 33.7647 34.8824 33.7873 34.668 33.7986C34.5664 33.7986 34.4648 33.8099 34.3519 33.8099C32.5118 33.8099 30.7507 33.1325 29.3622 31.8908C29.1929 31.7327 29.001 31.6537 28.7978 31.6311C28.4704 31.6086 28.1656 31.7553 27.985 32.015C27.7141 32.3988 27.7705 32.9293 28.1092 33.2341C29.8476 34.8033 32.049 35.65 34.3519 35.65C34.476 35.65 34.6115 35.65 34.7357 35.6387C35.0066 35.6274 35.2776 35.6048 35.5485 35.5709C37.5353 35.3113 39.3528 34.442 40.7978 33.0535C40.9784 32.8729 41.08 32.6246 41.08 32.3649C41.0687 32.094 40.9445 31.8569 40.7413 31.6876Z" fill="#F2AF00"/>
<path d="M42.604 18.491C40.8655 15.4205 37.6143 13.603 34.1035 13.7497C33.9567 13.761 33.8213 13.761 33.6745 13.7723C30.6604 14.0319 27.9511 15.7478 26.4271 18.3781C26.2126 18.7507 26.2803 19.2135 26.5851 19.4957L26.6077 19.5183C26.7883 19.6876 27.0141 19.7779 27.2625 19.7666C27.5786 19.7554 27.8608 19.586 28.0188 19.3151C29.2493 17.2041 31.428 15.8269 33.8438 15.6124C33.9567 15.6011 34.0696 15.5898 34.1825 15.5898C37.0047 15.4769 39.6237 16.9444 41.0122 19.4167C41.1703 19.6989 41.4751 19.8795 41.8025 19.8795C41.8137 19.8795 41.825 19.8795 41.8363 19.8795C42.2089 19.8682 42.5362 19.6312 42.6491 19.2699L42.6604 19.2361C42.7507 18.9877 42.7281 18.7168 42.604 18.491Z" fill="#F2AF00"/>
</svg>
