<svg width="1280" height="48" viewBox="0 0 1280 48" fill="none" xmlns="http://www.w3.org/2000/svg">
<rect width="1280" height="48" fill="#00447C"/>
<path d="M47.1914 27.9268V29H42.2148V27.9268H47.1914ZM42.4746 19.0469V29H41.1553V19.0469H42.4746ZM51.5801 29.1367C51.0651 29.1367 50.598 29.0501 50.1787 28.877C49.764 28.6992 49.4062 28.4508 49.1055 28.1318C48.8092 27.8128 48.5814 27.4346 48.4219 26.9971C48.2624 26.5596 48.1826 26.0811 48.1826 25.5615V25.2744C48.1826 24.6729 48.2715 24.1374 48.4492 23.668C48.627 23.194 48.8685 22.793 49.1738 22.4648C49.4792 22.1367 49.8255 21.8883 50.2129 21.7197C50.6003 21.5511 51.0013 21.4668 51.416 21.4668C51.9447 21.4668 52.4004 21.5579 52.7832 21.7402C53.1706 21.9225 53.4873 22.1777 53.7334 22.5059C53.9795 22.8294 54.1618 23.2122 54.2803 23.6543C54.3988 24.0918 54.458 24.5703 54.458 25.0898V25.6572H48.9346V24.625H53.1934V24.5293C53.1751 24.2012 53.1068 23.8822 52.9883 23.5723C52.8743 23.2624 52.6921 23.0072 52.4414 22.8066C52.1908 22.6061 51.849 22.5059 51.416 22.5059C51.1289 22.5059 50.8646 22.5674 50.623 22.6904C50.3815 22.8089 50.1742 22.9867 50.001 23.2236C49.8278 23.4606 49.6934 23.75 49.5977 24.0918C49.502 24.4336 49.4541 24.8278 49.4541 25.2744V25.5615C49.4541 25.9124 49.502 26.2428 49.5977 26.5527C49.6979 26.8581 49.8415 27.127 50.0283 27.3594C50.2197 27.5918 50.4499 27.7741 50.7188 27.9062C50.9922 28.0384 51.3021 28.1045 51.6484 28.1045C52.0951 28.1045 52.4733 28.0133 52.7832 27.8311C53.0931 27.6488 53.3643 27.4049 53.5967 27.0996L54.3623 27.708C54.2028 27.9495 54 28.1797 53.7539 28.3984C53.5078 28.6172 53.2048 28.7949 52.8447 28.9316C52.4893 29.0684 52.0677 29.1367 51.5801 29.1367ZM60.2959 27.7354V23.9277C60.2959 23.6361 60.2367 23.3831 60.1182 23.1689C60.0042 22.9502 59.8311 22.7816 59.5986 22.6631C59.3662 22.5446 59.0791 22.4854 58.7373 22.4854C58.4183 22.4854 58.138 22.54 57.8965 22.6494C57.6595 22.7588 57.4727 22.9023 57.3359 23.0801C57.2038 23.2578 57.1377 23.4492 57.1377 23.6543H55.873C55.873 23.39 55.9414 23.1279 56.0781 22.8682C56.2148 22.6084 56.4108 22.3737 56.666 22.1641C56.9258 21.9499 57.2357 21.7812 57.5957 21.6582C57.9603 21.5306 58.3659 21.4668 58.8125 21.4668C59.3503 21.4668 59.8242 21.5579 60.2344 21.7402C60.6491 21.9225 60.9727 22.1982 61.2051 22.5674C61.4421 22.932 61.5605 23.39 61.5605 23.9414V27.3867C61.5605 27.6328 61.5811 27.8949 61.6221 28.1729C61.6676 28.4508 61.7337 28.6901 61.8203 28.8906V29H60.501C60.4372 28.8542 60.387 28.6605 60.3506 28.4189C60.3141 28.1729 60.2959 27.945 60.2959 27.7354ZM60.5146 24.5156L60.5283 25.4043H59.25C58.89 25.4043 58.5687 25.4339 58.2861 25.4932C58.0036 25.5479 57.7666 25.6322 57.5752 25.7461C57.3838 25.86 57.238 26.0036 57.1377 26.1768C57.0374 26.3454 56.9873 26.5436 56.9873 26.7715C56.9873 27.0039 57.0397 27.2158 57.1445 27.4072C57.2493 27.5986 57.4066 27.7513 57.6162 27.8652C57.8304 27.9746 58.0924 28.0293 58.4023 28.0293C58.7897 28.0293 59.1315 27.9473 59.4277 27.7832C59.724 27.6191 59.9587 27.4186 60.1318 27.1816C60.3096 26.9447 60.4053 26.7145 60.4189 26.4912L60.959 27.0996C60.9271 27.291 60.8405 27.5029 60.6992 27.7354C60.5579 27.9678 60.3688 28.1911 60.1318 28.4053C59.8994 28.6149 59.6214 28.7904 59.2979 28.9316C58.9788 29.0684 58.6188 29.1367 58.2178 29.1367C57.7165 29.1367 57.2767 29.0387 56.8984 28.8428C56.5247 28.6468 56.2331 28.3848 56.0234 28.0566C55.8184 27.724 55.7158 27.3525 55.7158 26.9424C55.7158 26.5459 55.7933 26.1973 55.9482 25.8965C56.1032 25.5911 56.3265 25.3382 56.6182 25.1377C56.9098 24.9326 57.2607 24.7777 57.6709 24.6729C58.0811 24.568 58.5391 24.5156 59.0449 24.5156H60.5146ZM68.2119 27.5645V18.5H69.4834V29H68.3213L68.2119 27.5645ZM63.2354 25.3838V25.2402C63.2354 24.6751 63.3037 24.1624 63.4404 23.7021C63.5817 23.2373 63.7799 22.8385 64.0352 22.5059C64.2949 22.1732 64.6025 21.918 64.958 21.7402C65.318 21.5579 65.7191 21.4668 66.1611 21.4668C66.626 21.4668 67.0316 21.5488 67.3779 21.7129C67.7288 21.8724 68.0251 22.1071 68.2666 22.417C68.5127 22.7223 68.7064 23.0915 68.8477 23.5244C68.9889 23.9574 69.0869 24.4473 69.1416 24.9941V25.623C69.0915 26.1654 68.9935 26.653 68.8477 27.0859C68.7064 27.5189 68.5127 27.888 68.2666 28.1934C68.0251 28.4987 67.7288 28.7334 67.3779 28.8975C67.027 29.057 66.6169 29.1367 66.1475 29.1367C65.7145 29.1367 65.318 29.0433 64.958 28.8564C64.6025 28.6696 64.2949 28.4076 64.0352 28.0703C63.7799 27.7331 63.5817 27.3366 63.4404 26.8809C63.3037 26.4206 63.2354 25.9215 63.2354 25.3838ZM64.5068 25.2402V25.3838C64.5068 25.7529 64.5433 26.0993 64.6162 26.4229C64.6937 26.7464 64.8122 27.0312 64.9717 27.2773C65.1312 27.5234 65.334 27.7171 65.5801 27.8584C65.8262 27.9951 66.1201 28.0635 66.4619 28.0635C66.8812 28.0635 67.2253 27.9746 67.4941 27.7969C67.7676 27.6191 67.9863 27.3844 68.1504 27.0928C68.3145 26.8011 68.4421 26.4844 68.5332 26.1426V24.4951C68.4785 24.2445 68.3988 24.0029 68.2939 23.7705C68.1937 23.5335 68.0615 23.3239 67.8975 23.1416C67.738 22.9548 67.5397 22.8066 67.3027 22.6973C67.0703 22.5879 66.7946 22.5332 66.4756 22.5332C66.1292 22.5332 65.8307 22.6061 65.5801 22.752C65.334 22.8932 65.1312 23.0892 64.9717 23.3398C64.8122 23.5859 64.6937 23.873 64.6162 24.2012C64.5433 24.5247 64.5068 24.8711 64.5068 25.2402ZM78.7871 25.0967H76.1279V24.0234H78.7871C79.3021 24.0234 79.7191 23.9414 80.0381 23.7773C80.3571 23.6133 80.5895 23.3854 80.7354 23.0938C80.8857 22.8021 80.9609 22.4694 80.9609 22.0957C80.9609 21.7539 80.8857 21.4326 80.7354 21.1318C80.5895 20.8311 80.3571 20.5895 80.0381 20.4072C79.7191 20.2204 79.3021 20.127 78.7871 20.127H76.4355V29H75.1162V19.0469H78.7871C79.5391 19.0469 80.1748 19.1768 80.6943 19.4365C81.2139 19.6963 81.6081 20.0563 81.877 20.5166C82.1458 20.9723 82.2803 21.4941 82.2803 22.082C82.2803 22.7201 82.1458 23.2646 81.877 23.7158C81.6081 24.167 81.2139 24.5111 80.6943 24.748C80.1748 24.9805 79.5391 25.0967 78.7871 25.0967ZM86.7305 29.1367C86.2155 29.1367 85.7484 29.0501 85.3291 28.877C84.9144 28.6992 84.5566 28.4508 84.2559 28.1318C83.9596 27.8128 83.7318 27.4346 83.5723 26.9971C83.4128 26.5596 83.333 26.0811 83.333 25.5615V25.2744C83.333 24.6729 83.4219 24.1374 83.5996 23.668C83.7773 23.194 84.0189 22.793 84.3242 22.4648C84.6296 22.1367 84.9759 21.8883 85.3633 21.7197C85.7507 21.5511 86.1517 21.4668 86.5664 21.4668C87.0951 21.4668 87.5508 21.5579 87.9336 21.7402C88.321 21.9225 88.6377 22.1777 88.8838 22.5059C89.1299 22.8294 89.3122 23.2122 89.4307 23.6543C89.5492 24.0918 89.6084 24.5703 89.6084 25.0898V25.6572H84.085V24.625H88.3438V24.5293C88.3255 24.2012 88.2572 23.8822 88.1387 23.5723C88.0247 23.2624 87.8424 23.0072 87.5918 22.8066C87.3411 22.6061 86.9993 22.5059 86.5664 22.5059C86.2793 22.5059 86.015 22.5674 85.7734 22.6904C85.5319 22.8089 85.3245 22.9867 85.1514 23.2236C84.9782 23.4606 84.8438 23.75 84.748 24.0918C84.6523 24.4336 84.6045 24.8278 84.6045 25.2744V25.5615C84.6045 25.9124 84.6523 26.2428 84.748 26.5527C84.8483 26.8581 84.9919 27.127 85.1787 27.3594C85.3701 27.5918 85.6003 27.7741 85.8691 27.9062C86.1426 28.0384 86.4525 28.1045 86.7988 28.1045C87.2454 28.1045 87.6237 28.0133 87.9336 27.8311C88.2435 27.6488 88.5146 27.4049 88.7471 27.0996L89.5127 27.708C89.3532 27.9495 89.1504 28.1797 88.9043 28.3984C88.6582 28.6172 88.3551 28.7949 87.9951 28.9316C87.6396 29.0684 87.2181 29.1367 86.7305 29.1367ZM94.1816 21.6035V22.5742H90.1826V21.6035H94.1816ZM91.5361 19.8057H92.8008V27.168C92.8008 27.4186 92.8395 27.6077 92.917 27.7354C92.9945 27.863 93.0947 27.9473 93.2178 27.9883C93.3408 28.0293 93.473 28.0498 93.6143 28.0498C93.7191 28.0498 93.8285 28.0407 93.9424 28.0225C94.0609 27.9997 94.1497 27.9814 94.209 27.9678L94.2158 29C94.1156 29.0319 93.9834 29.0615 93.8193 29.0889C93.6598 29.1208 93.4661 29.1367 93.2383 29.1367C92.9284 29.1367 92.6436 29.0752 92.3838 28.9521C92.124 28.8291 91.9167 28.624 91.7617 28.3369C91.6113 28.0452 91.5361 27.6533 91.5361 27.1611V19.8057ZM99.9717 27.0381C99.9717 26.8558 99.9307 26.6872 99.8486 26.5322C99.7712 26.3727 99.6094 26.2292 99.3633 26.1016C99.1217 25.9694 98.7572 25.8555 98.2695 25.7598C97.8594 25.6732 97.488 25.5706 97.1553 25.4521C96.8271 25.3337 96.5469 25.1901 96.3145 25.0215C96.0866 24.8529 95.9111 24.6546 95.7881 24.4268C95.665 24.1989 95.6035 23.9323 95.6035 23.627C95.6035 23.3353 95.6673 23.0596 95.7949 22.7998C95.9271 22.54 96.1117 22.3099 96.3486 22.1094C96.5902 21.9089 96.8796 21.7516 97.2168 21.6377C97.554 21.5238 97.93 21.4668 98.3447 21.4668C98.9372 21.4668 99.443 21.5716 99.8623 21.7812C100.282 21.9909 100.603 22.2712 100.826 22.6221C101.049 22.9684 101.161 23.3535 101.161 23.7773H99.8965C99.8965 23.5723 99.835 23.374 99.7119 23.1826C99.5934 22.9867 99.418 22.8249 99.1855 22.6973C98.9577 22.5697 98.6774 22.5059 98.3447 22.5059C97.9938 22.5059 97.709 22.5605 97.4902 22.6699C97.276 22.7747 97.1188 22.9092 97.0186 23.0732C96.9229 23.2373 96.875 23.4105 96.875 23.5928C96.875 23.7295 96.8978 23.8525 96.9434 23.9619C96.9935 24.0667 97.0801 24.1647 97.2031 24.2559C97.3262 24.3424 97.4993 24.4245 97.7227 24.502C97.946 24.5794 98.2308 24.6569 98.5771 24.7344C99.1833 24.8711 99.6823 25.0352 100.074 25.2266C100.466 25.418 100.758 25.6527 100.949 25.9307C101.141 26.2087 101.236 26.5459 101.236 26.9424C101.236 27.266 101.168 27.5622 101.031 27.8311C100.899 28.0999 100.705 28.3324 100.45 28.5283C100.2 28.7197 99.8988 28.8701 99.5479 28.9795C99.2015 29.0843 98.8118 29.1367 98.3789 29.1367C97.7272 29.1367 97.1758 29.0205 96.7246 28.7881C96.2734 28.5557 95.9316 28.2549 95.6992 27.8857C95.4668 27.5166 95.3506 27.127 95.3506 26.7168H96.6221C96.6403 27.0632 96.7406 27.3389 96.9229 27.5439C97.1051 27.7445 97.3285 27.888 97.5928 27.9746C97.8571 28.0566 98.1191 28.0977 98.3789 28.0977C98.7253 28.0977 99.0146 28.0521 99.2471 27.9609C99.484 27.8698 99.6641 27.7445 99.7871 27.585C99.9102 27.4255 99.9717 27.2432 99.9717 27.0381ZM104.162 18.5V29H102.897V18.5H104.162ZM103.861 25.0215L103.335 25.001C103.34 24.4951 103.415 24.028 103.561 23.5996C103.706 23.1667 103.911 22.7907 104.176 22.4717C104.44 22.1527 104.755 21.9066 105.119 21.7334C105.488 21.5557 105.896 21.4668 106.343 21.4668C106.707 21.4668 107.035 21.5169 107.327 21.6172C107.619 21.7129 107.867 21.8678 108.072 22.082C108.282 22.2962 108.441 22.5742 108.551 22.916C108.66 23.2533 108.715 23.6657 108.715 24.1533V29H107.443V24.1396C107.443 23.7523 107.386 23.4424 107.272 23.21C107.159 22.973 106.992 22.8021 106.773 22.6973C106.555 22.5879 106.286 22.5332 105.967 22.5332C105.652 22.5332 105.365 22.5993 105.105 22.7314C104.85 22.8636 104.629 23.0459 104.442 23.2783C104.26 23.5107 104.117 23.7773 104.012 24.0781C103.911 24.3743 103.861 24.6888 103.861 25.0215ZM110.273 25.3838V25.2266C110.273 24.6934 110.351 24.1989 110.506 23.7432C110.661 23.2829 110.884 22.8841 111.176 22.5469C111.467 22.2051 111.821 21.9408 112.235 21.7539C112.65 21.5625 113.115 21.4668 113.63 21.4668C114.149 21.4668 114.617 21.5625 115.031 21.7539C115.451 21.9408 115.806 22.2051 116.098 22.5469C116.394 22.8841 116.619 23.2829 116.774 23.7432C116.929 24.1989 117.007 24.6934 117.007 25.2266V25.3838C117.007 25.917 116.929 26.4115 116.774 26.8672C116.619 27.3229 116.394 27.7217 116.098 28.0635C115.806 28.4007 115.453 28.665 115.038 28.8564C114.628 29.0433 114.163 29.1367 113.644 29.1367C113.124 29.1367 112.657 29.0433 112.242 28.8564C111.827 28.665 111.472 28.4007 111.176 28.0635C110.884 27.7217 110.661 27.3229 110.506 26.8672C110.351 26.4115 110.273 25.917 110.273 25.3838ZM111.538 25.2266V25.3838C111.538 25.7529 111.581 26.1016 111.668 26.4297C111.755 26.7533 111.884 27.0404 112.058 27.291C112.235 27.5417 112.456 27.7399 112.721 27.8857C112.985 28.027 113.293 28.0977 113.644 28.0977C113.99 28.0977 114.293 28.027 114.553 27.8857C114.817 27.7399 115.036 27.5417 115.209 27.291C115.382 27.0404 115.512 26.7533 115.599 26.4297C115.69 26.1016 115.735 25.7529 115.735 25.3838V25.2266C115.735 24.862 115.69 24.5179 115.599 24.1943C115.512 23.8662 115.38 23.5768 115.202 23.3262C115.029 23.071 114.81 22.8704 114.546 22.7246C114.286 22.5788 113.981 22.5059 113.63 22.5059C113.284 22.5059 112.978 22.5788 112.714 22.7246C112.454 22.8704 112.235 23.071 112.058 23.3262C111.884 23.5768 111.755 23.8662 111.668 24.1943C111.581 24.5179 111.538 24.862 111.538 25.2266ZM119.857 23.0254V31.8438H118.586V21.6035H119.748L119.857 23.0254ZM124.841 25.2402V25.3838C124.841 25.9215 124.777 26.4206 124.649 26.8809C124.522 27.3366 124.335 27.7331 124.089 28.0703C123.847 28.4076 123.549 28.6696 123.193 28.8564C122.838 29.0433 122.43 29.1367 121.97 29.1367C121.5 29.1367 121.086 29.0592 120.726 28.9043C120.366 28.7493 120.06 28.5238 119.81 28.2275C119.559 27.9313 119.358 27.5758 119.208 27.1611C119.062 26.7464 118.962 26.2793 118.907 25.7598V24.9941C118.962 24.4473 119.064 23.9574 119.215 23.5244C119.365 23.0915 119.563 22.7223 119.81 22.417C120.06 22.1071 120.363 21.8724 120.719 21.7129C121.074 21.5488 121.484 21.4668 121.949 21.4668C122.414 21.4668 122.826 21.5579 123.187 21.7402C123.547 21.918 123.85 22.1732 124.096 22.5059C124.342 22.8385 124.526 23.2373 124.649 23.7021C124.777 24.1624 124.841 24.6751 124.841 25.2402ZM123.569 25.3838V25.2402C123.569 24.8711 123.531 24.5247 123.453 24.2012C123.376 23.873 123.255 23.5859 123.091 23.3398C122.931 23.0892 122.726 22.8932 122.476 22.752C122.225 22.6061 121.926 22.5332 121.58 22.5332C121.261 22.5332 120.983 22.5879 120.746 22.6973C120.514 22.8066 120.315 22.9548 120.151 23.1416C119.987 23.3239 119.853 23.5335 119.748 23.7705C119.648 24.0029 119.573 24.2445 119.522 24.4951V26.2656C119.614 26.5846 119.741 26.8854 119.905 27.168C120.069 27.446 120.288 27.6715 120.562 27.8447C120.835 28.0133 121.179 28.0977 121.594 28.0977C121.936 28.0977 122.229 28.027 122.476 27.8857C122.726 27.7399 122.931 27.5417 123.091 27.291C123.255 27.0404 123.376 26.7533 123.453 26.4297C123.531 26.1016 123.569 25.7529 123.569 25.3838Z" fill="white"/>
<path d="M133.914 19.0469V30.8457H133.224V19.0469H133.914ZM145.986 25.8965H146.827C146.759 26.5664 146.574 27.1452 146.273 27.6328C145.973 28.1159 145.562 28.4873 145.043 28.7471C144.523 29.0068 143.897 29.1367 143.163 29.1367C142.598 29.1367 142.085 29.0296 141.625 28.8154C141.169 28.6012 140.777 28.2982 140.449 27.9062C140.121 27.5098 139.868 27.0358 139.69 26.4844C139.513 25.9329 139.424 25.32 139.424 24.6455V23.4014C139.424 22.7269 139.513 22.1162 139.69 21.5693C139.868 21.0179 140.123 20.5439 140.456 20.1475C140.789 19.751 141.188 19.4456 141.652 19.2314C142.117 19.0173 142.641 18.9102 143.225 18.9102C143.931 18.9102 144.542 19.04 145.057 19.2998C145.572 19.555 145.977 19.9242 146.273 20.4072C146.574 20.8903 146.759 21.4736 146.827 22.1572H145.986C145.923 21.6195 145.781 21.1637 145.562 20.79C145.344 20.4163 145.041 20.1315 144.653 19.9355C144.271 19.735 143.794 19.6348 143.225 19.6348C142.76 19.6348 142.345 19.7236 141.98 19.9014C141.616 20.0791 141.306 20.3343 141.051 20.667C140.796 20.9951 140.6 21.3893 140.463 21.8496C140.331 22.3099 140.265 22.8226 140.265 23.3877V24.6455C140.265 25.1924 140.328 25.696 140.456 26.1562C140.584 26.6165 140.771 27.0153 141.017 27.3525C141.267 27.6898 141.573 27.9518 141.933 28.1387C142.293 28.3255 142.703 28.4189 143.163 28.4189C143.751 28.4189 144.241 28.3255 144.633 28.1387C145.029 27.9473 145.337 27.6647 145.556 27.291C145.774 26.9173 145.918 26.4525 145.986 25.8965ZM148.235 25.418V25.1924C148.235 24.6546 148.313 24.1579 148.468 23.7021C148.623 23.2464 148.844 22.8522 149.131 22.5195C149.423 22.1868 149.771 21.9294 150.177 21.7471C150.582 21.5602 151.034 21.4668 151.53 21.4668C152.032 21.4668 152.485 21.5602 152.891 21.7471C153.296 21.9294 153.645 22.1868 153.937 22.5195C154.228 22.8522 154.451 23.2464 154.606 23.7021C154.761 24.1579 154.839 24.6546 154.839 25.1924V25.418C154.839 25.9557 154.761 26.4525 154.606 26.9082C154.451 27.3594 154.228 27.7513 153.937 28.084C153.649 28.4167 153.303 28.6764 152.897 28.8633C152.492 29.0456 152.041 29.1367 151.544 29.1367C151.043 29.1367 150.589 29.0456 150.184 28.8633C149.778 28.6764 149.429 28.4167 149.138 28.084C148.846 27.7513 148.623 27.3594 148.468 26.9082C148.313 26.4525 148.235 25.9557 148.235 25.418ZM149.049 25.1924V25.418C149.049 25.8236 149.104 26.2087 149.213 26.5732C149.322 26.9333 149.482 27.2546 149.691 27.5371C149.901 27.8151 150.161 28.0339 150.471 28.1934C150.781 28.3529 151.138 28.4326 151.544 28.4326C151.945 28.4326 152.298 28.3529 152.604 28.1934C152.913 28.0339 153.173 27.8151 153.383 27.5371C153.592 27.2546 153.75 26.9333 153.854 26.5732C153.964 26.2087 154.019 25.8236 154.019 25.418V25.1924C154.019 24.7913 153.964 24.4108 153.854 24.0508C153.75 23.6908 153.59 23.3695 153.376 23.0869C153.166 22.8044 152.907 22.5811 152.597 22.417C152.287 22.2529 151.931 22.1709 151.53 22.1709C151.129 22.1709 150.774 22.2529 150.464 22.417C150.159 22.5811 149.899 22.8044 149.685 23.0869C149.475 23.3695 149.315 23.6908 149.206 24.0508C149.101 24.4108 149.049 24.7913 149.049 25.1924ZM157.341 23.0254V31.8438H156.521V21.6035H157.286L157.341 23.0254ZM162.481 25.2334V25.377C162.481 25.9284 162.418 26.4342 162.29 26.8945C162.162 27.3548 161.978 27.7536 161.736 28.0908C161.499 28.4235 161.205 28.681 160.854 28.8633C160.504 29.0456 160.105 29.1367 159.658 29.1367C159.216 29.1367 158.822 29.0684 158.476 28.9316C158.129 28.7949 157.831 28.6012 157.58 28.3506C157.334 28.0954 157.136 27.7992 156.985 27.4619C156.84 27.1201 156.737 26.7464 156.678 26.3408V24.4473C156.746 24.0007 156.858 23.5951 157.013 23.2305C157.168 22.8659 157.366 22.5514 157.607 22.2871C157.854 22.0228 158.145 21.82 158.482 21.6787C158.82 21.5374 159.205 21.4668 159.638 21.4668C160.089 21.4668 160.49 21.5557 160.841 21.7334C161.196 21.9066 161.495 22.1595 161.736 22.4922C161.982 22.8203 162.167 23.2168 162.29 23.6816C162.418 24.1419 162.481 24.6592 162.481 25.2334ZM161.661 25.377V25.2334C161.661 24.8005 161.616 24.3994 161.524 24.0303C161.438 23.6611 161.303 23.3398 161.121 23.0664C160.943 22.7884 160.715 22.5719 160.438 22.417C160.164 22.262 159.838 22.1846 159.46 22.1846C159.068 22.1846 158.733 22.2507 158.455 22.3828C158.182 22.5104 157.954 22.6813 157.771 22.8955C157.589 23.1051 157.446 23.3353 157.341 23.5859C157.236 23.8366 157.159 24.0827 157.108 24.3242V26.5049C157.195 26.8512 157.334 27.1725 157.525 27.4688C157.717 27.7604 157.972 27.9951 158.291 28.1729C158.615 28.346 159.009 28.4326 159.474 28.4326C159.847 28.4326 160.171 28.3551 160.444 28.2002C160.718 28.0452 160.943 27.8288 161.121 27.5508C161.303 27.2728 161.438 26.9492 161.524 26.5801C161.616 26.2109 161.661 25.8099 161.661 25.377ZM166.412 28.2617L168.716 21.6035H169.598L166.467 30.1895C166.403 30.3581 166.321 30.5449 166.221 30.75C166.125 30.9551 165.997 31.151 165.838 31.3379C165.683 31.5293 165.487 31.6842 165.25 31.8027C165.018 31.9258 164.733 31.9873 164.396 31.9873C164.309 31.9873 164.197 31.9759 164.061 31.9531C163.928 31.9349 163.833 31.9167 163.773 31.8984L163.767 31.208C163.817 31.2217 163.89 31.2331 163.985 31.2422C164.081 31.2513 164.147 31.2559 164.184 31.2559C164.48 31.2559 164.728 31.2057 164.929 31.1055C165.134 31.0052 165.305 30.8548 165.441 30.6543C165.578 30.4583 165.699 30.2122 165.804 29.916L166.412 28.2617ZM164.259 21.6035L166.617 27.9541L166.836 28.8086L166.241 29.1436L163.37 21.6035H164.259ZM171.689 22.8271V29H170.876V21.6035H171.669L171.689 22.8271ZM174.308 21.5488L174.287 22.3008C174.196 22.2871 174.107 22.2757 174.021 22.2666C173.934 22.2575 173.84 22.2529 173.74 22.2529C173.385 22.2529 173.073 22.319 172.804 22.4512C172.539 22.5788 172.316 22.7588 172.134 22.9912C171.951 23.2191 171.812 23.488 171.717 23.7979C171.621 24.1032 171.566 24.4313 171.553 24.7822L171.252 24.8984C171.252 24.4154 171.302 23.9665 171.402 23.5518C171.503 23.137 171.655 22.7747 171.86 22.4648C172.07 22.1504 172.332 21.9066 172.646 21.7334C172.965 21.5557 173.339 21.4668 173.768 21.4668C173.872 21.4668 173.975 21.4759 174.075 21.4941C174.18 21.5078 174.257 21.526 174.308 21.5488ZM176.502 21.6035V29H175.688V21.6035H176.502ZM175.545 19.4639C175.545 19.3089 175.593 19.179 175.688 19.0742C175.789 18.9648 175.925 18.9102 176.099 18.9102C176.272 18.9102 176.409 18.9648 176.509 19.0742C176.614 19.179 176.666 19.3089 176.666 19.4639C176.666 19.6143 176.614 19.7441 176.509 19.8535C176.409 19.9583 176.272 20.0107 176.099 20.0107C175.925 20.0107 175.789 19.9583 175.688 19.8535C175.593 19.7441 175.545 19.6143 175.545 19.4639ZM183.604 21.6035H184.363V28.8701C184.363 29.5127 184.24 30.0641 183.994 30.5244C183.753 30.9847 183.409 31.3379 182.962 31.584C182.52 31.8301 181.998 31.9531 181.396 31.9531C181.091 31.9531 180.777 31.9053 180.453 31.8096C180.134 31.7184 179.831 31.5771 179.544 31.3857C179.261 31.1989 179.02 30.9665 178.819 30.6885L179.277 30.1895C179.578 30.554 179.899 30.8206 180.241 30.9893C180.583 31.1624 180.952 31.249 181.349 31.249C181.818 31.249 182.215 31.1556 182.538 30.9688C182.866 30.7819 183.115 30.513 183.283 30.1621C183.456 29.8112 183.543 29.3896 183.543 28.8975V23.2305L183.604 21.6035ZM178.409 25.377V25.2334C178.409 24.6592 178.473 24.1419 178.601 23.6816C178.733 23.2168 178.922 22.8203 179.168 22.4922C179.414 22.1595 179.713 21.9066 180.063 21.7334C180.419 21.5557 180.82 21.4668 181.267 21.4668C181.695 21.4668 182.076 21.5374 182.408 21.6787C182.741 21.82 183.028 22.0228 183.27 22.2871C183.511 22.5514 183.705 22.8659 183.851 23.2305C184.001 23.5951 184.11 24.0007 184.179 24.4473V26.2725C184.124 26.6917 184.024 27.0768 183.878 27.4277C183.732 27.7741 183.538 28.0771 183.297 28.3369C183.055 28.5921 182.764 28.7904 182.422 28.9316C182.085 29.0684 181.695 29.1367 181.253 29.1367C180.811 29.1367 180.414 29.0456 180.063 28.8633C179.713 28.681 179.414 28.4235 179.168 28.0908C178.922 27.7536 178.733 27.3548 178.601 26.8945C178.473 26.4342 178.409 25.9284 178.409 25.377ZM179.229 25.2334V25.377C179.229 25.8099 179.273 26.2109 179.359 26.5801C179.446 26.9492 179.578 27.2705 179.756 27.5439C179.934 27.8174 180.159 28.0316 180.433 28.1865C180.706 28.3415 181.027 28.4189 181.396 28.4189C181.866 28.4189 182.26 28.3301 182.579 28.1523C182.898 27.9701 183.151 27.7308 183.338 27.4346C183.525 27.1338 183.661 26.8057 183.748 26.4502V24.3242C183.698 24.0827 183.62 23.8366 183.516 23.5859C183.415 23.3353 183.274 23.1051 183.092 22.8955C182.914 22.6813 182.686 22.5104 182.408 22.3828C182.135 22.2507 181.802 22.1846 181.41 22.1846C181.036 22.1846 180.711 22.262 180.433 22.417C180.159 22.5719 179.934 22.7884 179.756 23.0664C179.578 23.3398 179.446 23.6611 179.359 24.0303C179.273 24.3994 179.229 24.8005 179.229 25.2334ZM187.316 18.5V29H186.503V18.5H187.316ZM187.132 24.8438L186.77 24.6387C186.797 24.2012 186.886 23.791 187.036 23.4082C187.187 23.0254 187.389 22.6882 187.645 22.3965C187.904 22.1048 188.207 21.877 188.554 21.7129C188.905 21.5488 189.292 21.4668 189.716 21.4668C190.085 21.4668 190.415 21.5169 190.707 21.6172C190.999 21.7174 191.247 21.877 191.452 22.0957C191.657 22.3145 191.812 22.5947 191.917 22.9365C192.026 23.2783 192.081 23.6953 192.081 24.1875V29H191.261V24.1807C191.261 23.6702 191.19 23.2715 191.049 22.9844C190.908 22.6927 190.707 22.4854 190.447 22.3623C190.188 22.2393 189.88 22.1777 189.524 22.1777C189.132 22.1777 188.788 22.2643 188.492 22.4375C188.201 22.6061 187.954 22.8271 187.754 23.1006C187.558 23.3695 187.408 23.6589 187.303 23.9688C187.198 24.2741 187.141 24.5658 187.132 24.8438ZM196.982 21.6035V22.2734H193.277V21.6035H196.982ZM194.638 19.7031H195.451V27.2021C195.451 27.5439 195.497 27.8014 195.588 27.9746C195.679 28.1478 195.798 28.264 195.943 28.3232C196.089 28.3825 196.246 28.4121 196.415 28.4121C196.538 28.4121 196.657 28.4053 196.771 28.3916C196.884 28.3734 196.987 28.3551 197.078 28.3369L197.112 29.0273C197.012 29.0592 196.882 29.0843 196.723 29.1025C196.563 29.1253 196.404 29.1367 196.244 29.1367C195.93 29.1367 195.652 29.0798 195.41 28.9658C195.169 28.8473 194.979 28.6468 194.843 28.3643C194.706 28.0771 194.638 27.6875 194.638 27.1953V19.7031ZM208.036 24.8506H208.713C208.713 25.5661 208.519 26.1038 208.132 26.4639C207.744 26.8193 207.22 26.9971 206.56 26.9971C206.104 26.9971 205.705 26.8854 205.363 26.6621C205.021 26.4388 204.755 26.1289 204.563 25.7324C204.377 25.3359 204.283 24.8757 204.283 24.3516V23.6885C204.283 23.1644 204.377 22.7041 204.563 22.3076C204.755 21.9111 205.021 21.6012 205.363 21.3779C205.705 21.1546 206.104 21.043 206.56 21.043C207.22 21.043 207.744 21.2207 208.132 21.5762C208.524 21.9316 208.72 22.4671 208.72 23.1826H208.043C208.043 22.6585 207.915 22.2734 207.66 22.0273C207.41 21.7812 207.043 21.6582 206.56 21.6582C206.218 21.6582 205.926 21.7471 205.685 21.9248C205.448 22.1025 205.268 22.3441 205.145 22.6494C205.021 22.9548 204.96 23.2988 204.96 23.6816V24.3516C204.96 24.7344 205.021 25.0807 205.145 25.3906C205.268 25.696 205.448 25.9375 205.685 26.1152C205.926 26.2884 206.218 26.375 206.56 26.375C207.043 26.375 207.41 26.2542 207.66 26.0127C207.911 25.7712 208.036 25.3838 208.036 24.8506ZM202.362 24.0166C202.362 24.6501 202.472 25.2425 202.69 25.7939C202.914 26.3454 203.221 26.8285 203.613 27.2432C204.005 27.6533 204.459 27.9746 204.974 28.207C205.493 28.4349 206.047 28.5488 206.635 28.5488C207.218 28.5488 207.767 28.4349 208.282 28.207C208.797 27.9746 209.251 27.6533 209.643 27.2432C210.035 26.8285 210.34 26.3454 210.559 25.7939C210.782 25.2425 210.894 24.6501 210.894 24.0166C210.894 23.3786 210.782 22.7861 210.559 22.2393C210.34 21.6924 210.035 21.2139 209.643 20.8037C209.251 20.3936 208.797 20.0745 208.282 19.8467C207.767 19.6188 207.218 19.5049 206.635 19.5049C206.047 19.5049 205.493 19.6188 204.974 19.8467C204.459 20.0745 204.005 20.3936 203.613 20.8037C203.221 21.2139 202.914 21.6924 202.69 22.2393C202.472 22.7861 202.362 23.3786 202.362 24.0166ZM201.781 24.0166C201.781 23.292 201.907 22.6198 202.157 22C202.408 21.3802 202.757 20.8402 203.203 20.3799C203.65 19.915 204.165 19.555 204.748 19.2998C205.336 19.04 205.965 18.9102 206.635 18.9102C207.305 18.9102 207.931 19.04 208.515 19.2998C209.103 19.555 209.618 19.915 210.06 20.3799C210.506 20.8402 210.855 21.3802 211.105 22C211.356 22.6198 211.481 23.292 211.481 24.0166C211.481 24.7412 211.356 25.4134 211.105 26.0332C210.855 26.653 210.506 27.1976 210.06 27.667C209.618 28.1318 209.103 28.4941 208.515 28.7539C207.931 29.0137 207.305 29.1436 206.635 29.1436C205.965 29.1436 205.336 29.0137 204.748 28.7539C204.165 28.4941 203.65 28.1318 203.203 27.667C202.757 27.1976 202.408 26.653 202.157 26.0332C201.907 25.4134 201.781 24.7412 201.781 24.0166ZM222.829 28.2959V29H216.602V28.3643L219.862 24.666C220.268 24.2057 220.591 23.8024 220.833 23.4561C221.075 23.1051 221.248 22.7861 221.353 22.499C221.462 22.2074 221.517 21.9248 221.517 21.6514C221.517 21.2503 221.437 20.8971 221.277 20.5918C221.122 20.2865 220.89 20.0472 220.58 19.874C220.27 19.7008 219.887 19.6143 219.432 19.6143C218.976 19.6143 218.579 19.7122 218.242 19.9082C217.905 20.1042 217.645 20.3776 217.463 20.7285C217.285 21.0749 217.196 21.4691 217.196 21.9111H216.383C216.383 21.3643 216.504 20.863 216.745 20.4072C216.991 19.9515 217.342 19.5892 217.798 19.3203C218.254 19.0469 218.798 18.9102 219.432 18.9102C220.033 18.9102 220.55 19.0173 220.983 19.2314C221.416 19.4411 221.749 19.7441 221.981 20.1406C222.218 20.5371 222.337 21.0156 222.337 21.5762C222.337 21.877 222.282 22.18 222.173 22.4854C222.068 22.7907 221.922 23.096 221.735 23.4014C221.553 23.7021 221.343 24.0007 221.106 24.2969C220.874 24.5931 220.63 24.8848 220.375 25.1719L217.6 28.2959H222.829ZM230.362 23.1689V24.8438C230.362 25.5729 230.294 26.2087 230.157 26.751C230.021 27.2887 229.82 27.7354 229.556 28.0908C229.296 28.4417 228.977 28.7038 228.599 28.877C228.225 29.0501 227.797 29.1367 227.313 29.1367C226.931 29.1367 226.58 29.082 226.261 28.9727C225.942 28.8633 225.657 28.6969 225.406 28.4736C225.16 28.2458 224.951 27.9609 224.777 27.6191C224.604 27.2773 224.472 26.8763 224.381 26.416C224.29 25.9512 224.244 25.4271 224.244 24.8438V23.1689C224.244 22.4352 224.312 21.8018 224.449 21.2686C224.59 20.7354 224.791 20.2933 225.051 19.9424C225.315 19.5915 225.636 19.3317 226.015 19.1631C226.393 18.9899 226.821 18.9033 227.3 18.9033C227.683 18.9033 228.034 18.9603 228.353 19.0742C228.676 19.1836 228.961 19.3477 229.207 19.5664C229.458 19.7852 229.667 20.0654 229.836 20.4072C230.009 20.7445 230.139 21.1432 230.226 21.6035C230.317 22.0638 230.362 22.5856 230.362 23.1689ZM229.549 24.9395V23.0664C229.549 22.6152 229.517 22.2051 229.453 21.8359C229.394 21.4668 229.305 21.1432 229.187 20.8652C229.068 20.5872 228.918 20.3548 228.735 20.168C228.558 19.9811 228.348 19.8421 228.106 19.751C227.869 19.6553 227.601 19.6074 227.3 19.6074C226.931 19.6074 226.605 19.6826 226.322 19.833C226.044 19.9788 225.812 20.1976 225.625 20.4893C225.438 20.7764 225.297 21.1364 225.201 21.5693C225.11 22.0023 225.064 22.5013 225.064 23.0664V24.9395C225.064 25.3861 225.094 25.7939 225.153 26.1631C225.213 26.5277 225.304 26.8512 225.427 27.1338C225.55 27.4163 225.7 27.6556 225.878 27.8516C226.06 28.043 226.27 28.1888 226.507 28.2891C226.748 28.3848 227.017 28.4326 227.313 28.4326C227.692 28.4326 228.02 28.3574 228.298 28.207C228.576 28.0521 228.808 27.8265 228.995 27.5303C229.182 27.2295 229.321 26.8626 229.412 26.4297C229.503 25.9922 229.549 25.4954 229.549 24.9395ZM238.36 28.2959V29H232.133V28.3643L235.394 24.666C235.799 24.2057 236.123 23.8024 236.364 23.4561C236.606 23.1051 236.779 22.7861 236.884 22.499C236.993 22.2074 237.048 21.9248 237.048 21.6514C237.048 21.2503 236.968 20.8971 236.809 20.5918C236.654 20.2865 236.421 20.0472 236.111 19.874C235.801 19.7008 235.419 19.6143 234.963 19.6143C234.507 19.6143 234.111 19.7122 233.773 19.9082C233.436 20.1042 233.176 20.3776 232.994 20.7285C232.816 21.0749 232.728 21.4691 232.728 21.9111H231.914C231.914 21.3643 232.035 20.863 232.276 20.4072C232.522 19.9515 232.873 19.5892 233.329 19.3203C233.785 19.0469 234.329 18.9102 234.963 18.9102C235.564 18.9102 236.082 19.0173 236.515 19.2314C236.948 19.4411 237.28 19.7441 237.513 20.1406C237.75 20.5371 237.868 21.0156 237.868 21.5762C237.868 21.877 237.813 22.18 237.704 22.4854C237.599 22.7907 237.453 23.096 237.267 23.4014C237.084 23.7021 236.875 24.0007 236.638 24.2969C236.405 24.5931 236.161 24.8848 235.906 25.1719L233.131 28.2959H238.36ZM246.126 28.2959V29H239.898V28.3643L243.159 24.666C243.565 24.2057 243.888 23.8024 244.13 23.4561C244.371 23.1051 244.545 22.7861 244.649 22.499C244.759 22.2074 244.813 21.9248 244.813 21.6514C244.813 21.2503 244.734 20.8971 244.574 20.5918C244.419 20.2865 244.187 20.0472 243.877 19.874C243.567 19.7008 243.184 19.6143 242.729 19.6143C242.273 19.6143 241.876 19.7122 241.539 19.9082C241.202 20.1042 240.942 20.3776 240.76 20.7285C240.582 21.0749 240.493 21.4691 240.493 21.9111H239.68C239.68 21.3643 239.8 20.863 240.042 20.4072C240.288 19.9515 240.639 19.5892 241.095 19.3203C241.55 19.0469 242.095 18.9102 242.729 18.9102C243.33 18.9102 243.847 19.0173 244.28 19.2314C244.713 19.4411 245.046 19.7441 245.278 20.1406C245.515 20.5371 245.634 21.0156 245.634 21.5762C245.634 21.877 245.579 22.18 245.47 22.4854C245.365 22.7907 245.219 23.096 245.032 23.4014C244.85 23.7021 244.64 24.0007 244.403 24.2969C244.171 24.5931 243.927 24.8848 243.672 25.1719L240.896 28.2959H246.126ZM248.58 27.708V28.665C248.58 29.0843 248.493 29.4876 248.32 29.875C248.147 30.2669 247.912 30.5973 247.616 30.8662L247.138 30.5107C247.279 30.3193 247.397 30.1279 247.493 29.9365C247.589 29.7497 247.66 29.5537 247.705 29.3486C247.755 29.1436 247.78 28.9225 247.78 28.6855V27.708H248.58ZM257.159 19.0469V29H256.325V19.0469H257.159ZM260.57 19.0469V19.7715H252.921V19.0469H260.57ZM260.864 25.418V25.1924C260.864 24.6546 260.942 24.1579 261.097 23.7021C261.252 23.2464 261.473 22.8522 261.76 22.5195C262.051 22.1868 262.4 21.9294 262.806 21.7471C263.211 21.5602 263.662 21.4668 264.159 21.4668C264.66 21.4668 265.114 21.5602 265.52 21.7471C265.925 21.9294 266.274 22.1868 266.565 22.5195C266.857 22.8522 267.08 23.2464 267.235 23.7021C267.39 24.1579 267.468 24.6546 267.468 25.1924V25.418C267.468 25.9557 267.39 26.4525 267.235 26.9082C267.08 27.3594 266.857 27.7513 266.565 28.084C266.278 28.4167 265.932 28.6764 265.526 28.8633C265.121 29.0456 264.67 29.1367 264.173 29.1367C263.672 29.1367 263.218 29.0456 262.812 28.8633C262.407 28.6764 262.058 28.4167 261.767 28.084C261.475 27.7513 261.252 27.3594 261.097 26.9082C260.942 26.4525 260.864 25.9557 260.864 25.418ZM261.678 25.1924V25.418C261.678 25.8236 261.732 26.2087 261.842 26.5732C261.951 26.9333 262.111 27.2546 262.32 27.5371C262.53 27.8151 262.79 28.0339 263.1 28.1934C263.41 28.3529 263.767 28.4326 264.173 28.4326C264.574 28.4326 264.927 28.3529 265.232 28.1934C265.542 28.0339 265.802 27.8151 266.012 27.5371C266.221 27.2546 266.379 26.9333 266.483 26.5732C266.593 26.2087 266.647 25.8236 266.647 25.418V25.1924C266.647 24.7913 266.593 24.4108 266.483 24.0508C266.379 23.6908 266.219 23.3695 266.005 23.0869C265.795 22.8044 265.535 22.5811 265.226 22.417C264.916 22.2529 264.56 22.1709 264.159 22.1709C263.758 22.1709 263.403 22.2529 263.093 22.417C262.787 22.5811 262.528 22.8044 262.313 23.0869C262.104 23.3695 261.944 23.6908 261.835 24.0508C261.73 24.4108 261.678 24.7913 261.678 25.1924ZM273.969 27.5645V18.5H274.789V29H274.023L273.969 27.5645ZM268.835 25.377V25.2334C268.835 24.6592 268.901 24.1419 269.033 23.6816C269.165 23.2168 269.354 22.8203 269.601 22.4922C269.851 22.1595 270.152 21.9066 270.503 21.7334C270.854 21.5557 271.25 21.4668 271.692 21.4668C272.125 21.4668 272.508 21.5374 272.841 21.6787C273.174 21.82 273.458 22.0228 273.695 22.2871C273.937 22.5514 274.131 22.8659 274.276 23.2305C274.427 23.5951 274.536 24.0007 274.604 24.4473V26.2725C274.55 26.6917 274.45 27.0768 274.304 27.4277C274.158 27.7741 273.964 28.0771 273.723 28.3369C273.481 28.5921 273.189 28.7904 272.848 28.9316C272.51 29.0684 272.121 29.1367 271.679 29.1367C271.241 29.1367 270.847 29.0456 270.496 28.8633C270.145 28.681 269.847 28.4235 269.601 28.0908C269.354 27.7536 269.165 27.3548 269.033 26.8945C268.901 26.4342 268.835 25.9284 268.835 25.377ZM269.655 25.2334V25.377C269.655 25.8099 269.699 26.2109 269.785 26.5801C269.872 26.9492 270.004 27.2705 270.182 27.5439C270.359 27.8174 270.585 28.0316 270.858 28.1865C271.132 28.3415 271.455 28.4189 271.829 28.4189C272.299 28.4189 272.693 28.3301 273.012 28.1523C273.331 27.9701 273.586 27.7308 273.777 27.4346C273.969 27.1338 274.108 26.8057 274.194 26.4502V24.3242C274.14 24.0827 274.06 23.8366 273.955 23.5859C273.85 23.3353 273.707 23.1051 273.524 22.8955C273.347 22.6813 273.119 22.5104 272.841 22.3828C272.567 22.2507 272.235 22.1846 271.843 22.1846C271.465 22.1846 271.139 22.262 270.865 22.417C270.592 22.5719 270.364 22.7884 270.182 23.0664C270.004 23.3398 269.872 23.6611 269.785 24.0303C269.699 24.3994 269.655 24.8005 269.655 25.2334ZM276.491 25.418V25.1924C276.491 24.6546 276.569 24.1579 276.724 23.7021C276.879 23.2464 277.1 22.8522 277.387 22.5195C277.678 22.1868 278.027 21.9294 278.433 21.7471C278.838 21.5602 279.289 21.4668 279.786 21.4668C280.287 21.4668 280.741 21.5602 281.146 21.7471C281.552 21.9294 281.901 22.1868 282.192 22.5195C282.484 22.8522 282.707 23.2464 282.862 23.7021C283.017 24.1579 283.095 24.6546 283.095 25.1924V25.418C283.095 25.9557 283.017 26.4525 282.862 26.9082C282.707 27.3594 282.484 27.7513 282.192 28.084C281.905 28.4167 281.559 28.6764 281.153 28.8633C280.748 29.0456 280.297 29.1367 279.8 29.1367C279.299 29.1367 278.845 29.0456 278.439 28.8633C278.034 28.6764 277.685 28.4167 277.394 28.084C277.102 27.7513 276.879 27.3594 276.724 26.9082C276.569 26.4525 276.491 25.9557 276.491 25.418ZM277.305 25.1924V25.418C277.305 25.8236 277.359 26.2087 277.469 26.5732C277.578 26.9333 277.738 27.2546 277.947 27.5371C278.157 27.8151 278.417 28.0339 278.727 28.1934C279.036 28.3529 279.394 28.4326 279.8 28.4326C280.201 28.4326 280.554 28.3529 280.859 28.1934C281.169 28.0339 281.429 27.8151 281.639 27.5371C281.848 27.2546 282.006 26.9333 282.11 26.5732C282.22 26.2087 282.274 25.8236 282.274 25.418V25.1924C282.274 24.7913 282.22 24.4108 282.11 24.0508C282.006 23.6908 281.846 23.3695 281.632 23.0869C281.422 22.8044 281.162 22.5811 280.853 22.417C280.543 22.2529 280.187 22.1709 279.786 22.1709C279.385 22.1709 279.03 22.2529 278.72 22.417C278.414 22.5811 278.155 22.8044 277.94 23.0869C277.731 23.3695 277.571 23.6908 277.462 24.0508C277.357 24.4108 277.305 24.7913 277.305 25.1924ZM289.22 27.1133C289.22 26.9128 289.17 26.7145 289.069 26.5186C288.969 26.3226 288.775 26.1426 288.488 25.9785C288.206 25.8145 287.789 25.6755 287.237 25.5615C286.827 25.4704 286.46 25.3678 286.137 25.2539C285.818 25.14 285.549 25.0033 285.33 24.8438C285.111 24.6842 284.945 24.4928 284.831 24.2695C284.717 24.0462 284.66 23.7819 284.66 23.4766C284.66 23.2031 284.719 22.9456 284.838 22.7041C284.961 22.458 285.134 22.2438 285.357 22.0615C285.585 21.8747 285.859 21.7288 286.178 21.624C286.501 21.5192 286.864 21.4668 287.265 21.4668C287.834 21.4668 288.322 21.5648 288.728 21.7607C289.138 21.9521 289.45 22.2142 289.664 22.5469C289.883 22.8796 289.992 23.2555 289.992 23.6748H289.179C289.179 23.4196 289.104 23.1781 288.953 22.9502C288.807 22.7223 288.591 22.5355 288.304 22.3896C288.021 22.2438 287.675 22.1709 287.265 22.1709C286.841 22.1709 286.497 22.2347 286.232 22.3623C285.968 22.4899 285.774 22.6517 285.651 22.8477C285.533 23.0436 285.474 23.2464 285.474 23.4561C285.474 23.6201 285.499 23.7705 285.549 23.9072C285.604 24.0394 285.699 24.1624 285.836 24.2764C285.977 24.3903 286.178 24.4974 286.438 24.5977C286.697 24.6979 287.035 24.7959 287.449 24.8916C288.046 25.0238 288.534 25.1855 288.912 25.377C289.295 25.5638 289.577 25.7962 289.76 26.0742C289.942 26.3477 290.033 26.6803 290.033 27.0723C290.033 27.3776 289.969 27.6579 289.842 27.9131C289.714 28.1637 289.53 28.3802 289.288 28.5625C289.051 28.7448 288.764 28.8861 288.427 28.9863C288.094 29.0866 287.72 29.1367 287.306 29.1367C286.681 29.1367 286.153 29.0342 285.72 28.8291C285.291 28.6195 284.965 28.346 284.742 28.0088C284.523 27.667 284.414 27.3047 284.414 26.9219H285.228C285.255 27.3047 285.376 27.6077 285.59 27.8311C285.804 28.0498 286.066 28.2048 286.376 28.2959C286.69 28.387 287 28.4326 287.306 28.4326C287.725 28.4326 288.076 28.3711 288.358 28.248C288.641 28.125 288.855 27.9632 289.001 27.7627C289.147 27.5622 289.22 27.3457 289.22 27.1133ZM294.853 25.418V25.1924C294.853 24.6546 294.93 24.1579 295.085 23.7021C295.24 23.2464 295.461 22.8522 295.748 22.5195C296.04 22.1868 296.388 21.9294 296.794 21.7471C297.2 21.5602 297.651 21.4668 298.147 21.4668C298.649 21.4668 299.102 21.5602 299.508 21.7471C299.913 21.9294 300.262 22.1868 300.554 22.5195C300.845 22.8522 301.069 23.2464 301.224 23.7021C301.379 24.1579 301.456 24.6546 301.456 25.1924V25.418C301.456 25.9557 301.379 26.4525 301.224 26.9082C301.069 27.3594 300.845 27.7513 300.554 28.084C300.267 28.4167 299.92 28.6764 299.515 28.8633C299.109 29.0456 298.658 29.1367 298.161 29.1367C297.66 29.1367 297.206 29.0456 296.801 28.8633C296.395 28.6764 296.047 28.4167 295.755 28.084C295.463 27.7513 295.24 27.3594 295.085 26.9082C294.93 26.4525 294.853 25.9557 294.853 25.418ZM295.666 25.1924V25.418C295.666 25.8236 295.721 26.2087 295.83 26.5732C295.939 26.9333 296.099 27.2546 296.309 27.5371C296.518 27.8151 296.778 28.0339 297.088 28.1934C297.398 28.3529 297.756 28.4326 298.161 28.4326C298.562 28.4326 298.915 28.3529 299.221 28.1934C299.531 28.0339 299.79 27.8151 300 27.5371C300.21 27.2546 300.367 26.9333 300.472 26.5732C300.581 26.2087 300.636 25.8236 300.636 25.418V25.1924C300.636 24.7913 300.581 24.4108 300.472 24.0508C300.367 23.6908 300.207 23.3695 299.993 23.0869C299.784 22.8044 299.524 22.5811 299.214 22.417C298.904 22.2529 298.549 22.1709 298.147 22.1709C297.746 22.1709 297.391 22.2529 297.081 22.417C296.776 22.5811 296.516 22.8044 296.302 23.0869C296.092 23.3695 295.933 23.6908 295.823 24.0508C295.718 24.4108 295.666 24.7913 295.666 25.1924ZM307.581 27.1133C307.581 26.9128 307.531 26.7145 307.431 26.5186C307.33 26.3226 307.137 26.1426 306.85 25.9785C306.567 25.8145 306.15 25.6755 305.599 25.5615C305.188 25.4704 304.822 25.3678 304.498 25.2539C304.179 25.14 303.91 25.0033 303.691 24.8438C303.473 24.6842 303.306 24.4928 303.192 24.2695C303.078 24.0462 303.021 23.7819 303.021 23.4766C303.021 23.2031 303.081 22.9456 303.199 22.7041C303.322 22.458 303.495 22.2438 303.719 22.0615C303.947 21.8747 304.22 21.7288 304.539 21.624C304.863 21.5192 305.225 21.4668 305.626 21.4668C306.196 21.4668 306.683 21.5648 307.089 21.7607C307.499 21.9521 307.811 22.2142 308.025 22.5469C308.244 22.8796 308.354 23.2555 308.354 23.6748H307.54C307.54 23.4196 307.465 23.1781 307.314 22.9502C307.169 22.7223 306.952 22.5355 306.665 22.3896C306.382 22.2438 306.036 22.1709 305.626 22.1709C305.202 22.1709 304.858 22.2347 304.594 22.3623C304.329 22.4899 304.136 22.6517 304.013 22.8477C303.894 23.0436 303.835 23.2464 303.835 23.4561C303.835 23.6201 303.86 23.7705 303.91 23.9072C303.965 24.0394 304.061 24.1624 304.197 24.2764C304.339 24.3903 304.539 24.4974 304.799 24.5977C305.059 24.6979 305.396 24.7959 305.811 24.8916C306.408 25.0238 306.895 25.1855 307.273 25.377C307.656 25.5638 307.939 25.7962 308.121 26.0742C308.303 26.3477 308.395 26.6803 308.395 27.0723C308.395 27.3776 308.331 27.6579 308.203 27.9131C308.076 28.1637 307.891 28.3802 307.649 28.5625C307.412 28.7448 307.125 28.8861 306.788 28.9863C306.455 29.0866 306.082 29.1367 305.667 29.1367C305.043 29.1367 304.514 29.0342 304.081 28.8291C303.653 28.6195 303.327 28.346 303.104 28.0088C302.885 27.667 302.775 27.3047 302.775 26.9219H303.589C303.616 27.3047 303.737 27.6077 303.951 27.8311C304.165 28.0498 304.427 28.2048 304.737 28.2959C305.052 28.387 305.362 28.4326 305.667 28.4326C306.086 28.4326 306.437 28.3711 306.72 28.248C307.002 28.125 307.216 27.9632 307.362 27.7627C307.508 27.5622 307.581 27.3457 307.581 27.1133ZM318.471 27.5645V18.5H319.291V29H318.525L318.471 27.5645ZM313.337 25.377V25.2334C313.337 24.6592 313.403 24.1419 313.535 23.6816C313.667 23.2168 313.856 22.8203 314.103 22.4922C314.353 22.1595 314.654 21.9066 315.005 21.7334C315.356 21.5557 315.752 21.4668 316.194 21.4668C316.627 21.4668 317.01 21.5374 317.343 21.6787C317.675 21.82 317.96 22.0228 318.197 22.2871C318.439 22.5514 318.632 22.8659 318.778 23.2305C318.929 23.5951 319.038 24.0007 319.106 24.4473V26.2725C319.052 26.6917 318.951 27.0768 318.806 27.4277C318.66 27.7741 318.466 28.0771 318.225 28.3369C317.983 28.5921 317.691 28.7904 317.35 28.9316C317.012 29.0684 316.623 29.1367 316.181 29.1367C315.743 29.1367 315.349 29.0456 314.998 28.8633C314.647 28.681 314.349 28.4235 314.103 28.0908C313.856 27.7536 313.667 27.3548 313.535 26.8945C313.403 26.4342 313.337 25.9284 313.337 25.377ZM314.157 25.2334V25.377C314.157 25.8099 314.201 26.2109 314.287 26.5801C314.374 26.9492 314.506 27.2705 314.684 27.5439C314.861 27.8174 315.087 28.0316 315.36 28.1865C315.634 28.3415 315.957 28.4189 316.331 28.4189C316.8 28.4189 317.195 28.3301 317.514 28.1523C317.833 27.9701 318.088 27.7308 318.279 27.4346C318.471 27.1338 318.61 26.8057 318.696 26.4502V24.3242C318.642 24.0827 318.562 23.8366 318.457 23.5859C318.352 23.3353 318.209 23.1051 318.026 22.8955C317.849 22.6813 317.621 22.5104 317.343 22.3828C317.069 22.2507 316.737 22.1846 316.345 22.1846C315.966 22.1846 315.641 22.262 315.367 22.417C315.094 22.5719 314.866 22.7884 314.684 23.0664C314.506 23.3398 314.374 23.6611 314.287 24.0303C314.201 24.3994 314.157 24.8005 314.157 25.2334ZM322.354 21.6035V29H321.54V21.6035H322.354ZM321.396 19.4639C321.396 19.3089 321.444 19.179 321.54 19.0742C321.64 18.9648 321.777 18.9102 321.95 18.9102C322.123 18.9102 322.26 18.9648 322.36 19.0742C322.465 19.179 322.518 19.3089 322.518 19.4639C322.518 19.6143 322.465 19.7441 322.36 19.8535C322.26 19.9583 322.123 20.0107 321.95 20.0107C321.777 20.0107 321.64 19.9583 321.54 19.8535C321.444 19.7441 321.396 19.6143 321.396 19.4639ZM325.402 22.8271V29H324.589V21.6035H325.382L325.402 22.8271ZM328.021 21.5488L328 22.3008C327.909 22.2871 327.82 22.2757 327.733 22.2666C327.647 22.2575 327.553 22.2529 327.453 22.2529C327.098 22.2529 326.785 22.319 326.517 22.4512C326.252 22.5788 326.029 22.7588 325.847 22.9912C325.664 23.2191 325.525 23.488 325.43 23.7979C325.334 24.1032 325.279 24.4313 325.266 24.7822L324.965 24.8984C324.965 24.4154 325.015 23.9665 325.115 23.5518C325.215 23.137 325.368 22.7747 325.573 22.4648C325.783 22.1504 326.045 21.9066 326.359 21.7334C326.678 21.5557 327.052 21.4668 327.48 21.4668C327.585 21.4668 327.688 21.4759 327.788 21.4941C327.893 21.5078 327.97 21.526 328.021 21.5488ZM332.026 29.1367C331.543 29.1367 331.099 29.0479 330.693 28.8701C330.292 28.6924 329.941 28.4417 329.641 28.1182C329.344 27.7946 329.114 27.4118 328.95 26.9697C328.791 26.5231 328.711 26.0355 328.711 25.5068V25.2129C328.711 24.6432 328.795 24.1283 328.964 23.668C329.132 23.2077 329.365 22.8135 329.661 22.4854C329.957 22.1572 330.295 21.9066 330.673 21.7334C331.056 21.5557 331.457 21.4668 331.876 21.4668C332.345 21.4668 332.762 21.5511 333.127 21.7197C333.492 21.8838 333.797 22.1185 334.043 22.4238C334.294 22.7246 334.483 23.0824 334.61 23.4971C334.738 23.9072 334.802 24.3607 334.802 24.8574V25.3564H329.203V24.6592H333.988V24.5635C333.979 24.1488 333.895 23.7614 333.735 23.4014C333.58 23.0368 333.348 22.7406 333.038 22.5127C332.728 22.2848 332.341 22.1709 331.876 22.1709C331.53 22.1709 331.211 22.2438 330.919 22.3896C330.632 22.5355 330.383 22.7451 330.174 23.0186C329.969 23.2874 329.809 23.6087 329.695 23.9824C329.586 24.3516 329.531 24.7617 329.531 25.2129V25.5068C329.531 25.917 329.59 26.2998 329.709 26.6553C329.832 27.0062 330.005 27.3161 330.229 27.585C330.456 27.8538 330.725 28.0635 331.035 28.2139C331.345 28.3643 331.687 28.4395 332.061 28.4395C332.498 28.4395 332.885 28.3597 333.223 28.2002C333.56 28.0361 333.863 27.7786 334.132 27.4277L334.645 27.8242C334.485 28.0612 334.285 28.2799 334.043 28.4805C333.806 28.681 333.521 28.8405 333.188 28.959C332.856 29.0775 332.468 29.1367 332.026 29.1367ZM337.324 21.6035V29H336.511V21.6035H337.324ZM336.367 19.4639C336.367 19.3089 336.415 19.179 336.511 19.0742C336.611 18.9648 336.748 18.9102 336.921 18.9102C337.094 18.9102 337.231 18.9648 337.331 19.0742C337.436 19.179 337.488 19.3089 337.488 19.4639C337.488 19.6143 337.436 19.7441 337.331 19.8535C337.231 19.9583 337.094 20.0107 336.921 20.0107C336.748 20.0107 336.611 19.9583 336.511 19.8535C336.415 19.7441 336.367 19.6143 336.367 19.4639ZM342.355 21.6035V22.2734H338.65V21.6035H342.355ZM340.011 19.7031H340.824V27.2021C340.824 27.5439 340.87 27.8014 340.961 27.9746C341.052 28.1478 341.171 28.264 341.316 28.3232C341.462 28.3825 341.619 28.4121 341.788 28.4121C341.911 28.4121 342.03 28.4053 342.144 28.3916C342.257 28.3734 342.36 28.3551 342.451 28.3369L342.485 29.0273C342.385 29.0592 342.255 29.0843 342.096 29.1025C341.936 29.1253 341.777 29.1367 341.617 29.1367C341.303 29.1367 341.025 29.0798 340.783 28.9658C340.542 28.8473 340.353 28.6468 340.216 28.3643C340.079 28.0771 340.011 27.6875 340.011 27.1953V19.7031ZM343.483 25.418V25.1924C343.483 24.6546 343.561 24.1579 343.716 23.7021C343.871 23.2464 344.092 22.8522 344.379 22.5195C344.671 22.1868 345.019 21.9294 345.425 21.7471C345.83 21.5602 346.282 21.4668 346.778 21.4668C347.28 21.4668 347.733 21.5602 348.139 21.7471C348.544 21.9294 348.893 22.1868 349.185 22.5195C349.476 22.8522 349.7 23.2464 349.854 23.7021C350.009 24.1579 350.087 24.6546 350.087 25.1924V25.418C350.087 25.9557 350.009 26.4525 349.854 26.9082C349.7 27.3594 349.476 27.7513 349.185 28.084C348.897 28.4167 348.551 28.6764 348.146 28.8633C347.74 29.0456 347.289 29.1367 346.792 29.1367C346.291 29.1367 345.837 29.0456 345.432 28.8633C345.026 28.6764 344.677 28.4167 344.386 28.084C344.094 27.7513 343.871 27.3594 343.716 26.9082C343.561 26.4525 343.483 25.9557 343.483 25.418ZM344.297 25.1924V25.418C344.297 25.8236 344.352 26.2087 344.461 26.5732C344.57 26.9333 344.73 27.2546 344.939 27.5371C345.149 27.8151 345.409 28.0339 345.719 28.1934C346.029 28.3529 346.386 28.4326 346.792 28.4326C347.193 28.4326 347.546 28.3529 347.852 28.1934C348.161 28.0339 348.421 27.8151 348.631 27.5371C348.84 27.2546 348.998 26.9333 349.103 26.5732C349.212 26.2087 349.267 25.8236 349.267 25.418V25.1924C349.267 24.7913 349.212 24.4108 349.103 24.0508C348.998 23.6908 348.838 23.3695 348.624 23.0869C348.414 22.8044 348.155 22.5811 347.845 22.417C347.535 22.2529 347.179 22.1709 346.778 22.1709C346.377 22.1709 346.022 22.2529 345.712 22.417C345.407 22.5811 345.147 22.8044 344.933 23.0869C344.723 23.3695 344.563 23.6908 344.454 24.0508C344.349 24.4108 344.297 24.7913 344.297 25.1924ZM356.212 27.1133C356.212 26.9128 356.162 26.7145 356.062 26.5186C355.961 26.3226 355.768 26.1426 355.48 25.9785C355.198 25.8145 354.781 25.6755 354.229 25.5615C353.819 25.4704 353.452 25.3678 353.129 25.2539C352.81 25.14 352.541 25.0033 352.322 24.8438C352.104 24.6842 351.937 24.4928 351.823 24.2695C351.709 24.0462 351.652 23.7819 351.652 23.4766C351.652 23.2031 351.712 22.9456 351.83 22.7041C351.953 22.458 352.126 22.2438 352.35 22.0615C352.577 21.8747 352.851 21.7288 353.17 21.624C353.493 21.5192 353.856 21.4668 354.257 21.4668C354.826 21.4668 355.314 21.5648 355.72 21.7607C356.13 21.9521 356.442 22.2142 356.656 22.5469C356.875 22.8796 356.984 23.2555 356.984 23.6748H356.171C356.171 23.4196 356.096 23.1781 355.945 22.9502C355.799 22.7223 355.583 22.5355 355.296 22.3896C355.013 22.2438 354.667 22.1709 354.257 22.1709C353.833 22.1709 353.489 22.2347 353.225 22.3623C352.96 22.4899 352.767 22.6517 352.644 22.8477C352.525 23.0436 352.466 23.2464 352.466 23.4561C352.466 23.6201 352.491 23.7705 352.541 23.9072C352.596 24.0394 352.691 24.1624 352.828 24.2764C352.969 24.3903 353.17 24.4974 353.43 24.5977C353.689 24.6979 354.027 24.7959 354.441 24.8916C355.038 25.0238 355.526 25.1855 355.904 25.377C356.287 25.5638 356.57 25.7962 356.752 26.0742C356.934 26.3477 357.025 26.6803 357.025 27.0723C357.025 27.3776 356.962 27.6579 356.834 27.9131C356.706 28.1637 356.522 28.3802 356.28 28.5625C356.043 28.7448 355.756 28.8861 355.419 28.9863C355.086 29.0866 354.713 29.1367 354.298 29.1367C353.674 29.1367 353.145 29.0342 352.712 28.8291C352.284 28.6195 351.958 28.346 351.734 28.0088C351.516 27.667 351.406 27.3047 351.406 26.9219H352.22C352.247 27.3047 352.368 27.6077 352.582 27.8311C352.796 28.0498 353.058 28.2048 353.368 28.2959C353.683 28.387 353.993 28.4326 354.298 28.4326C354.717 28.4326 355.068 28.3711 355.351 28.248C355.633 28.125 355.847 27.9632 355.993 27.7627C356.139 27.5622 356.212 27.3457 356.212 27.1133ZM363.109 22.8271V29H362.296V21.6035H363.089L363.109 22.8271ZM365.728 21.5488L365.707 22.3008C365.616 22.2871 365.527 22.2757 365.44 22.2666C365.354 22.2575 365.26 22.2529 365.16 22.2529C364.805 22.2529 364.493 22.319 364.224 22.4512C363.959 22.5788 363.736 22.7588 363.554 22.9912C363.371 23.2191 363.232 23.488 363.137 23.7979C363.041 24.1032 362.986 24.4313 362.973 24.7822L362.672 24.8984C362.672 24.4154 362.722 23.9665 362.822 23.5518C362.923 23.137 363.075 22.7747 363.28 22.4648C363.49 22.1504 363.752 21.9066 364.066 21.7334C364.385 21.5557 364.759 21.4668 365.188 21.4668C365.292 21.4668 365.395 21.4759 365.495 21.4941C365.6 21.5078 365.677 21.526 365.728 21.5488ZM369.733 29.1367C369.25 29.1367 368.806 29.0479 368.4 28.8701C367.999 28.6924 367.648 28.4417 367.348 28.1182C367.051 27.7946 366.821 27.4118 366.657 26.9697C366.498 26.5231 366.418 26.0355 366.418 25.5068V25.2129C366.418 24.6432 366.502 24.1283 366.671 23.668C366.84 23.2077 367.072 22.8135 367.368 22.4854C367.664 22.1572 368.002 21.9066 368.38 21.7334C368.763 21.5557 369.164 21.4668 369.583 21.4668C370.052 21.4668 370.469 21.5511 370.834 21.7197C371.199 21.8838 371.504 22.1185 371.75 22.4238C372.001 22.7246 372.19 23.0824 372.317 23.4971C372.445 23.9072 372.509 24.3607 372.509 24.8574V25.3564H366.91V24.6592H371.695V24.5635C371.686 24.1488 371.602 23.7614 371.442 23.4014C371.287 23.0368 371.055 22.7406 370.745 22.5127C370.435 22.2848 370.048 22.1709 369.583 22.1709C369.237 22.1709 368.918 22.2438 368.626 22.3896C368.339 22.5355 368.09 22.7451 367.881 23.0186C367.676 23.2874 367.516 23.6087 367.402 23.9824C367.293 24.3516 367.238 24.7617 367.238 25.2129V25.5068C367.238 25.917 367.298 26.2998 367.416 26.6553C367.539 27.0062 367.712 27.3161 367.936 27.585C368.163 27.8538 368.432 28.0635 368.742 28.2139C369.052 28.3643 369.394 28.4395 369.768 28.4395C370.205 28.4395 370.592 28.3597 370.93 28.2002C371.267 28.0361 371.57 27.7786 371.839 27.4277L372.352 27.8242C372.192 28.0612 371.992 28.2799 371.75 28.4805C371.513 28.681 371.228 28.8405 370.896 28.959C370.563 29.0775 370.175 29.1367 369.733 29.1367ZM378.552 27.1133C378.552 26.9128 378.502 26.7145 378.401 26.5186C378.301 26.3226 378.107 26.1426 377.82 25.9785C377.538 25.8145 377.121 25.6755 376.569 25.5615C376.159 25.4704 375.792 25.3678 375.469 25.2539C375.15 25.14 374.881 25.0033 374.662 24.8438C374.443 24.6842 374.277 24.4928 374.163 24.2695C374.049 24.0462 373.992 23.7819 373.992 23.4766C373.992 23.2031 374.051 22.9456 374.17 22.7041C374.293 22.458 374.466 22.2438 374.689 22.0615C374.917 21.8747 375.191 21.7288 375.51 21.624C375.833 21.5192 376.196 21.4668 376.597 21.4668C377.166 21.4668 377.654 21.5648 378.06 21.7607C378.47 21.9521 378.782 22.2142 378.996 22.5469C379.215 22.8796 379.324 23.2555 379.324 23.6748H378.511C378.511 23.4196 378.436 23.1781 378.285 22.9502C378.139 22.7223 377.923 22.5355 377.636 22.3896C377.353 22.2438 377.007 22.1709 376.597 22.1709C376.173 22.1709 375.829 22.2347 375.564 22.3623C375.3 22.4899 375.106 22.6517 374.983 22.8477C374.865 23.0436 374.806 23.2464 374.806 23.4561C374.806 23.6201 374.831 23.7705 374.881 23.9072C374.936 24.0394 375.031 24.1624 375.168 24.2764C375.309 24.3903 375.51 24.4974 375.77 24.5977C376.029 24.6979 376.367 24.7959 376.781 24.8916C377.378 25.0238 377.866 25.1855 378.244 25.377C378.627 25.5638 378.91 25.7962 379.092 26.0742C379.274 26.3477 379.365 26.6803 379.365 27.0723C379.365 27.3776 379.301 27.6579 379.174 27.9131C379.046 28.1637 378.862 28.3802 378.62 28.5625C378.383 28.7448 378.096 28.8861 377.759 28.9863C377.426 29.0866 377.052 29.1367 376.638 29.1367C376.013 29.1367 375.485 29.0342 375.052 28.8291C374.623 28.6195 374.298 28.346 374.074 28.0088C373.855 27.667 373.746 27.3047 373.746 26.9219H374.56C374.587 27.3047 374.708 27.6077 374.922 27.8311C375.136 28.0498 375.398 28.2048 375.708 28.2959C376.022 28.387 376.332 28.4326 376.638 28.4326C377.057 28.4326 377.408 28.3711 377.69 28.248C377.973 28.125 378.187 27.9632 378.333 27.7627C378.479 27.5622 378.552 27.3457 378.552 27.1133ZM384.075 29.1367C383.592 29.1367 383.148 29.0479 382.742 28.8701C382.341 28.6924 381.99 28.4417 381.689 28.1182C381.393 27.7946 381.163 27.4118 380.999 26.9697C380.84 26.5231 380.76 26.0355 380.76 25.5068V25.2129C380.76 24.6432 380.844 24.1283 381.013 23.668C381.181 23.2077 381.414 22.8135 381.71 22.4854C382.006 22.1572 382.343 21.9066 382.722 21.7334C383.104 21.5557 383.506 21.4668 383.925 21.4668C384.394 21.4668 384.811 21.5511 385.176 21.7197C385.54 21.8838 385.846 22.1185 386.092 22.4238C386.342 22.7246 386.532 23.0824 386.659 23.4971C386.787 23.9072 386.851 24.3607 386.851 24.8574V25.3564H381.252V24.6592H386.037V24.5635C386.028 24.1488 385.944 23.7614 385.784 23.4014C385.629 23.0368 385.397 22.7406 385.087 22.5127C384.777 22.2848 384.39 22.1709 383.925 22.1709C383.578 22.1709 383.259 22.2438 382.968 22.3896C382.681 22.5355 382.432 22.7451 382.223 23.0186C382.018 23.2874 381.858 23.6087 381.744 23.9824C381.635 24.3516 381.58 24.7617 381.58 25.2129V25.5068C381.58 25.917 381.639 26.2998 381.758 26.6553C381.881 27.0062 382.054 27.3161 382.277 27.585C382.505 27.8538 382.774 28.0635 383.084 28.2139C383.394 28.3643 383.736 28.4395 384.109 28.4395C384.547 28.4395 384.934 28.3597 385.271 28.2002C385.609 28.0361 385.912 27.7786 386.181 27.4277L386.693 27.8242C386.534 28.0612 386.333 28.2799 386.092 28.4805C385.855 28.681 385.57 28.8405 385.237 28.959C384.905 29.0775 384.517 29.1367 384.075 29.1367ZM389.277 22.8271V29H388.464V21.6035H389.257L389.277 22.8271ZM391.896 21.5488L391.875 22.3008C391.784 22.2871 391.695 22.2757 391.608 22.2666C391.522 22.2575 391.428 22.2529 391.328 22.2529C390.973 22.2529 390.66 22.319 390.392 22.4512C390.127 22.5788 389.904 22.7588 389.722 22.9912C389.539 23.2191 389.4 23.488 389.305 23.7979C389.209 24.1032 389.154 24.4313 389.141 24.7822L388.84 24.8984C388.84 24.4154 388.89 23.9665 388.99 23.5518C389.09 23.137 389.243 22.7747 389.448 22.4648C389.658 22.1504 389.92 21.9066 390.234 21.7334C390.553 21.5557 390.927 21.4668 391.355 21.4668C391.46 21.4668 391.563 21.4759 391.663 21.4941C391.768 21.5078 391.845 21.526 391.896 21.5488ZM395.484 28.2139L397.856 21.6035H398.697L395.929 29H395.334L395.484 28.2139ZM393.338 21.6035L395.737 28.2344L395.867 29H395.266L392.49 21.6035H393.338ZM404.433 27.6738V23.8594C404.433 23.5085 404.36 23.2054 404.214 22.9502C404.068 22.695 403.854 22.499 403.571 22.3623C403.289 22.2256 402.94 22.1572 402.525 22.1572C402.143 22.1572 401.801 22.2256 401.5 22.3623C401.204 22.4945 400.969 22.6745 400.796 22.9023C400.627 23.1257 400.543 23.374 400.543 23.6475L399.723 23.6406C399.723 23.3626 399.791 23.0938 399.928 22.834C400.064 22.5742 400.258 22.3418 400.509 22.1367C400.759 21.9316 401.058 21.7699 401.404 21.6514C401.755 21.5283 402.14 21.4668 402.56 21.4668C403.088 21.4668 403.553 21.5557 403.954 21.7334C404.36 21.9111 404.676 22.1777 404.904 22.5332C405.132 22.8887 405.246 23.3353 405.246 23.873V27.4482C405.246 27.7035 405.264 27.9678 405.301 28.2412C405.342 28.5146 405.399 28.7402 405.472 28.918V29H404.604C404.549 28.8359 404.506 28.6309 404.474 28.3848C404.446 28.1341 404.433 27.8971 404.433 27.6738ZM404.624 24.6934L404.638 25.3223H403.031C402.612 25.3223 402.236 25.361 401.903 25.4385C401.575 25.5114 401.297 25.6208 401.069 25.7666C400.841 25.9079 400.666 26.0788 400.543 26.2793C400.424 26.4798 400.365 26.7077 400.365 26.9629C400.365 27.2272 400.431 27.4688 400.563 27.6875C400.7 27.9062 400.892 28.0817 401.138 28.2139C401.388 28.3415 401.685 28.4053 402.026 28.4053C402.482 28.4053 402.883 28.321 403.229 28.1523C403.58 27.9837 403.87 27.7627 404.098 27.4893C404.326 27.2158 404.478 26.9173 404.556 26.5938L404.911 27.0654C404.852 27.2933 404.743 27.528 404.583 27.7695C404.428 28.0065 404.225 28.2298 403.975 28.4395C403.724 28.6445 403.428 28.8132 403.086 28.9453C402.749 29.0729 402.366 29.1367 401.938 29.1367C401.454 29.1367 401.033 29.0456 400.673 28.8633C400.317 28.681 400.039 28.4326 399.839 28.1182C399.643 27.7992 399.545 27.4391 399.545 27.0381C399.545 26.6735 399.622 26.3477 399.777 26.0605C399.932 25.7689 400.156 25.5228 400.447 25.3223C400.743 25.1172 401.099 24.9622 401.514 24.8574C401.933 24.748 402.402 24.6934 402.922 24.6934H404.624ZM412.246 27.5645V18.5H413.066V29H412.301L412.246 27.5645ZM407.112 25.377V25.2334C407.112 24.6592 407.178 24.1419 407.311 23.6816C407.443 23.2168 407.632 22.8203 407.878 22.4922C408.129 22.1595 408.429 21.9066 408.78 21.7334C409.131 21.5557 409.528 21.4668 409.97 21.4668C410.403 21.4668 410.785 21.5374 411.118 21.6787C411.451 21.82 411.736 22.0228 411.973 22.2871C412.214 22.5514 412.408 22.8659 412.554 23.2305C412.704 23.5951 412.813 24.0007 412.882 24.4473V26.2725C412.827 26.6917 412.727 27.0768 412.581 27.4277C412.435 27.7741 412.242 28.0771 412 28.3369C411.758 28.5921 411.467 28.7904 411.125 28.9316C410.788 29.0684 410.398 29.1367 409.956 29.1367C409.519 29.1367 409.124 29.0456 408.773 28.8633C408.423 28.681 408.124 28.4235 407.878 28.0908C407.632 27.7536 407.443 27.3548 407.311 26.8945C407.178 26.4342 407.112 25.9284 407.112 25.377ZM407.933 25.2334V25.377C407.933 25.8099 407.976 26.2109 408.062 26.5801C408.149 26.9492 408.281 27.2705 408.459 27.5439C408.637 27.8174 408.862 28.0316 409.136 28.1865C409.409 28.3415 409.733 28.4189 410.106 28.4189C410.576 28.4189 410.97 28.3301 411.289 28.1523C411.608 27.9701 411.863 27.7308 412.055 27.4346C412.246 27.1338 412.385 26.8057 412.472 26.4502V24.3242C412.417 24.0827 412.337 23.8366 412.232 23.5859C412.128 23.3353 411.984 23.1051 411.802 22.8955C411.624 22.6813 411.396 22.5104 411.118 22.3828C410.845 22.2507 410.512 22.1846 410.12 22.1846C409.742 22.1846 409.416 22.262 409.143 22.417C408.869 22.5719 408.641 22.7884 408.459 23.0664C408.281 23.3398 408.149 23.6611 408.062 24.0303C407.976 24.3994 407.933 24.8005 407.933 25.2334ZM414.769 25.418V25.1924C414.769 24.6546 414.846 24.1579 415.001 23.7021C415.156 23.2464 415.377 22.8522 415.664 22.5195C415.956 22.1868 416.304 21.9294 416.71 21.7471C417.116 21.5602 417.567 21.4668 418.063 21.4668C418.565 21.4668 419.018 21.5602 419.424 21.7471C419.829 21.9294 420.178 22.1868 420.47 22.5195C420.761 22.8522 420.985 23.2464 421.14 23.7021C421.295 24.1579 421.372 24.6546 421.372 25.1924V25.418C421.372 25.9557 421.295 26.4525 421.14 26.9082C420.985 27.3594 420.761 27.7513 420.47 28.084C420.183 28.4167 419.836 28.6764 419.431 28.8633C419.025 29.0456 418.574 29.1367 418.077 29.1367C417.576 29.1367 417.122 29.0456 416.717 28.8633C416.311 28.6764 415.963 28.4167 415.671 28.084C415.379 27.7513 415.156 27.3594 415.001 26.9082C414.846 26.4525 414.769 25.9557 414.769 25.418ZM415.582 25.1924V25.418C415.582 25.8236 415.637 26.2087 415.746 26.5732C415.855 26.9333 416.015 27.2546 416.225 27.5371C416.434 27.8151 416.694 28.0339 417.004 28.1934C417.314 28.3529 417.672 28.4326 418.077 28.4326C418.478 28.4326 418.831 28.3529 419.137 28.1934C419.447 28.0339 419.706 27.8151 419.916 27.5371C420.126 27.2546 420.283 26.9333 420.388 26.5732C420.497 26.2087 420.552 25.8236 420.552 25.418V25.1924C420.552 24.7913 420.497 24.4108 420.388 24.0508C420.283 23.6908 420.123 23.3695 419.909 23.0869C419.7 22.8044 419.44 22.5811 419.13 22.417C418.82 22.2529 418.465 22.1709 418.063 22.1709C417.662 22.1709 417.307 22.2529 416.997 22.417C416.692 22.5811 416.432 22.8044 416.218 23.0869C416.008 23.3695 415.849 23.6908 415.739 24.0508C415.634 24.4108 415.582 24.7913 415.582 25.1924ZM427.497 27.1133C427.497 26.9128 427.447 26.7145 427.347 26.5186C427.246 26.3226 427.053 26.1426 426.766 25.9785C426.483 25.8145 426.066 25.6755 425.515 25.5615C425.104 25.4704 424.738 25.3678 424.414 25.2539C424.095 25.14 423.826 25.0033 423.607 24.8438C423.389 24.6842 423.222 24.4928 423.108 24.2695C422.994 24.0462 422.938 23.7819 422.938 23.4766C422.938 23.2031 422.997 22.9456 423.115 22.7041C423.238 22.458 423.411 22.2438 423.635 22.0615C423.863 21.8747 424.136 21.7288 424.455 21.624C424.779 21.5192 425.141 21.4668 425.542 21.4668C426.112 21.4668 426.599 21.5648 427.005 21.7607C427.415 21.9521 427.727 22.2142 427.941 22.5469C428.16 22.8796 428.27 23.2555 428.27 23.6748H427.456C427.456 23.4196 427.381 23.1781 427.23 22.9502C427.085 22.7223 426.868 22.5355 426.581 22.3896C426.299 22.2438 425.952 22.1709 425.542 22.1709C425.118 22.1709 424.774 22.2347 424.51 22.3623C424.245 22.4899 424.052 22.6517 423.929 22.8477C423.81 23.0436 423.751 23.2464 423.751 23.4561C423.751 23.6201 423.776 23.7705 423.826 23.9072C423.881 24.0394 423.977 24.1624 424.113 24.2764C424.255 24.3903 424.455 24.4974 424.715 24.5977C424.975 24.6979 425.312 24.7959 425.727 24.8916C426.324 25.0238 426.811 25.1855 427.189 25.377C427.572 25.5638 427.855 25.7962 428.037 26.0742C428.219 26.3477 428.311 26.6803 428.311 27.0723C428.311 27.3776 428.247 27.6579 428.119 27.9131C427.992 28.1637 427.807 28.3802 427.565 28.5625C427.328 28.7448 427.041 28.8861 426.704 28.9863C426.371 29.0866 425.998 29.1367 425.583 29.1367C424.959 29.1367 424.43 29.0342 423.997 28.8291C423.569 28.6195 423.243 28.346 423.02 28.0088C422.801 27.667 422.691 27.3047 422.691 26.9219H423.505C423.532 27.3047 423.653 27.6077 423.867 27.8311C424.081 28.0498 424.343 28.2048 424.653 28.2959C424.968 28.387 425.278 28.4326 425.583 28.4326C426.002 28.4326 426.353 28.3711 426.636 28.248C426.918 28.125 427.132 27.9632 427.278 27.7627C427.424 27.5622 427.497 27.3457 427.497 27.1133Z" fill="white"/>
<path d="M1125.99 26.5851V29.3057H1117.17V15.6237H1120.27V26.5851H1125.99ZM1085.19 29.3057C1088.37 29.3057 1091.04 27.127 1091.81 24.1919L1099.56 30.2427L1107.29 24.2032V29.317H1116.12V26.5964H1110.39V15.635H1107.28V20.7488L1099.86 26.5512L1098.2 25.253L1101.76 22.476L1105.63 19.4506L1103.42 17.7234L1096 23.5258L1094.34 22.2276L1101.76 16.4252L1099.54 14.698L1091.81 20.7488C1091.04 17.8024 1088.37 15.635 1085.19 15.635H1079.64V29.317H1085.19V29.3057ZM1082.75 26.5851V18.3443H1085.19C1087.25 18.3443 1088.92 20.1844 1088.92 22.4647C1088.92 24.745 1087.25 26.5851 1085.19 26.5851H1082.75Z" fill="white"/>
<path d="M1136.23 16.7525H1132L1131.81 16.9444V29.0573L1131.62 29.2492H1130.85L1130.66 29.0573V16.9557L1130.46 16.7637H1126.23L1126.04 16.5718V15.9961L1126.23 15.8042H1136.23L1136.43 15.9961V16.5718L1136.23 16.7525Z" fill="white"/>
<path d="M1135.88 24.8354L1135.69 25.0273C1135.69 26.1788 1136.46 28.493 1138.97 28.493C1140.5 28.493 1141.27 27.7253 1141.65 26.5739L1141.84 26.382H1142.61L1142.8 26.5739C1142.61 27.7253 1141.65 29.4638 1138.95 29.4638C1135.87 29.4638 1134.53 27.1609 1134.53 24.4629V24.079C1134.53 21.3923 1136.06 19.4619 1138.76 19.4619C1141.46 19.4619 1143 21.381 1143 24.079V24.6548L1142.8 24.8467H1135.88V24.8354ZM1141.84 23.6839C1141.84 22.3406 1141.08 20.4102 1138.76 20.4102C1136.45 20.4102 1135.68 22.3293 1135.68 23.6839L1135.87 23.8758H1141.64L1141.84 23.6839Z" fill="white"/>
<path d="M1148.41 28.493C1150.33 28.493 1151.1 27.3415 1151.3 26.19L1151.5 25.9981H1152.26L1152.46 26.19C1152.26 28.1091 1150.73 29.4638 1148.41 29.4638C1145.92 29.4638 1143.99 27.9285 1143.99 24.4629C1143.99 20.9972 1145.91 19.4619 1148.41 19.4619C1150.72 19.4619 1152.26 20.8053 1152.46 22.7357L1152.26 22.9276H1151.5L1151.3 22.7357C1151.11 21.5842 1150.34 20.4328 1148.41 20.4328C1146.49 20.4328 1145.14 21.7761 1145.14 24.4741C1145.14 27.1722 1146.48 28.493 1148.41 28.493Z" fill="white"/>
<path d="M1161.71 29.2605H1160.94L1160.75 29.0686V23.3C1160.75 21.3809 1159.79 20.4101 1158.26 20.4101C1156.15 20.4101 1155.18 21.7535 1155.18 23.8758V29.0686L1154.98 29.2605H1154.22L1154.02 29.0686V15.9849L1154.22 15.793H1154.98L1155.18 15.9849V20.9858H1155.37C1155.94 20.0263 1157.09 19.4505 1158.45 19.4505C1160.56 19.4505 1161.92 20.7939 1161.92 23.3V29.0686L1161.71 29.2605Z" fill="white"/>
<path d="M1171.53 29.2604H1170.77L1170.57 29.0685V23.2999C1170.57 21.3808 1169.61 20.41 1168.08 20.41C1165.97 20.41 1165 21.7534 1165 23.8757V29.0685L1164.81 29.2604H1164.04L1163.85 29.0685V19.8343L1164.04 19.6423H1164.61L1164.81 19.8343L1165 20.9857H1165.19C1165.76 20.0262 1166.92 19.4504 1168.27 19.4504C1170.38 19.4504 1171.74 20.7938 1171.74 23.2999V29.0685L1171.53 29.2604Z" fill="white"/>
<path d="M1173.31 24.4514C1173.31 21.1776 1175.22 19.4504 1177.73 19.4504C1180.23 19.4504 1182.16 21.1776 1182.16 24.4514C1182.16 27.7251 1180.24 29.4523 1177.73 29.4523C1175.22 29.4523 1173.31 27.7138 1173.31 24.4514ZM1174.46 24.4514C1174.46 26.9462 1175.8 28.4928 1177.73 28.4928C1179.65 28.4928 1181 26.9575 1181 24.4514C1181 21.9453 1179.66 20.41 1177.73 20.41C1175.8 20.41 1174.46 21.9453 1174.46 24.4514Z" fill="white"/>
<path d="M1184.27 29.2605H1183.5L1183.31 29.0686V15.9849L1183.5 15.793H1184.27L1184.46 15.9849V29.0573L1184.27 29.2605Z" fill="white"/>
<path d="M1186.03 24.4514C1186.03 21.1776 1187.95 19.4504 1190.45 19.4504C1192.95 19.4504 1194.88 21.1776 1194.88 24.4514C1194.88 27.7251 1192.96 29.4523 1190.45 29.4523C1187.95 29.4523 1186.03 27.7138 1186.03 24.4514ZM1187.18 24.4514C1187.18 26.9462 1188.52 28.4928 1190.45 28.4928C1192.38 28.4928 1193.73 26.9575 1193.73 24.4514C1193.73 21.9453 1192.38 20.41 1190.45 20.41C1188.52 20.41 1187.18 21.9453 1187.18 24.4514Z" fill="white"/>
<path d="M1202.97 27.917C1202.59 28.6847 1201.63 29.4523 1199.89 29.4523C1197.2 29.4523 1195.85 27.3413 1195.85 24.4514C1195.85 21.5614 1197.19 19.4504 1199.89 19.4504C1201.62 19.4504 1202.58 20.2181 1202.97 20.9857H1203.16L1203.36 19.8343L1203.55 19.6423H1204.12L1204.32 19.8343V27.9058C1204.32 31.7552 1202.78 33.2905 1200.27 33.2905C1197.97 33.2905 1196.81 32.1391 1196.62 30.6038L1196.81 30.4119H1197.58L1197.77 30.6038C1197.96 31.5633 1198.54 32.331 1200.26 32.331C1202.57 32.331 1203.15 30.4119 1203.15 27.9058H1202.97V27.917ZM1203.16 24.4514C1203.16 21.7646 1202.01 20.41 1200.08 20.41C1198.15 20.41 1197 21.7534 1197 24.4514C1197 27.1494 1198.15 28.4928 1200.08 28.4928C1202.01 28.4928 1203.16 27.1381 1203.16 24.4514Z" fill="white"/>
<path d="M1207.22 18.1071H1206.45L1206.26 17.9151V16.7637L1206.45 16.5718H1207.22L1207.41 16.7637V17.9151L1207.22 18.1071ZM1207.22 29.2604H1206.45L1206.26 29.0685V19.8342L1206.45 19.6423H1207.22L1207.41 19.8342V29.0685L1207.22 29.2604Z" fill="white"/>
<path d="M1210.33 24.8354L1210.14 25.0273C1210.14 26.1788 1210.91 28.493 1213.42 28.493C1214.95 28.493 1215.72 27.7253 1216.1 26.5739L1216.29 26.382H1217.06L1217.25 26.5739C1217.06 27.7253 1216.1 29.4638 1213.4 29.4638C1210.32 29.4638 1208.98 27.1609 1208.98 24.4629V24.079C1208.98 21.3923 1210.51 19.4619 1213.21 19.4619C1215.9 19.4619 1217.45 21.381 1217.45 24.079V24.6548L1217.25 24.8467H1210.33V24.8354ZM1216.29 23.6839C1216.29 22.3406 1215.53 20.4102 1213.21 20.4102C1210.91 20.4102 1210.13 22.3293 1210.13 23.6839L1210.32 23.8758H1216.09L1216.29 23.6839Z" fill="white"/>
<path d="M1221.88 29.4525C1219.58 29.4525 1218.22 28.1091 1218.22 26.3707L1218.42 26.1788H1219.18L1219.38 26.3707C1219.38 27.5221 1220.14 28.4817 1221.87 28.4817C1223.79 28.4817 1224.37 27.714 1224.37 26.7545C1224.37 25.2192 1223.41 25.0273 1221.48 24.6435C1219.56 24.2597 1218.39 23.492 1218.39 21.9567C1218.39 20.6134 1219.54 19.4619 1221.67 19.4619C1223.59 19.4619 1225.13 20.2296 1225.13 22.1486L1224.94 22.3406H1224.17L1223.98 22.1486C1223.98 21.1891 1223.41 20.4215 1221.68 20.4215C1220.34 20.4215 1219.57 20.9972 1219.57 21.9567C1219.57 23.3001 1220.72 23.492 1222.65 23.8758C1224.57 24.2597 1225.54 25.0273 1225.54 26.7658C1225.54 28.301 1224.38 29.4525 1221.88 29.4525Z" fill="white"/>
<path d="M1067.03 15.0593V20.0264C1067.03 20.0376 1067.02 20.0376 1067.02 20.0264C1066.32 19.1345 1065.09 18.6153 1063.6 18.6153C1060.76 18.6153 1059.12 20.5795 1058.95 23.9323C1058.95 23.9323 1058.94 24.2935 1058.94 24.3387C1058.92 27.2851 1058.19 28.6284 1056.7 28.6284C1055.64 28.6284 1054.62 28.2898 1054.72 26.9012C1054.73 26.7545 1054.85 23.8871 1054.42 21.9229C1053.99 19.936 1052.4 18.5927 1050.04 18.5927C1047.67 18.5927 1044.96 20.3199 1045.28 25.1628C1045.28 25.5466 1045.41 26.3707 1044.84 27.4431C1044.43 28.1995 1043.64 28.6962 1041.85 28.6284L1037.76 28.6736C1035.05 28.6736 1034.33 26.3481 1034.28 25.3208L1034.34 25.2644H1041.4C1041.69 25.2644 1042.02 25.2192 1042.23 25.0386C1042.57 24.7451 1042.56 24.4516 1042.56 24.1242C1042.56 21.2794 1041.06 19.2136 1038.65 18.7394C1038.33 18.6717 1037.99 18.6378 1037.66 18.6378C1036.28 18.6378 1034.98 18.9991 1033.99 20.0038C1032.99 21.0198 1032.43 22.5438 1032.43 23.9662V24.5645C1032.43 26.111 1032.9 27.5673 1033.67 28.6623L1031.02 28.6849C1029 28.6849 1027.36 27.2399 1027.36 25.2192V15.048C1027.36 14.54 1026.96 14.1336 1026.45 14.1336C1025.94 14.1336 1025.52 14.5513 1025.52 15.0593V25.4901C1025.52 28.2559 1027.77 30.4911 1030.52 30.4911H1037.72H1039.48H1042.33C1044.57 30.4911 1045.7 29.588 1046.27 28.6623H1046.28C1047.24 29.9379 1048.67 30.4685 1050.03 30.4685C1051.93 30.4685 1052.79 29.6331 1053.31 28.8655H1053.32C1053.94 30.0282 1055.13 30.4798 1056.51 30.4798C1058.11 30.4798 1059.21 30.0395 1059.88 28.6623H1059.89C1060.72 29.8363 1062 30.4911 1063.6 30.4911H1063.82C1066.6 30.4911 1068.88 28.2107 1068.88 25.4224V15.0254C1068.88 14.5287 1068.48 14.1223 1067.98 14.1223C1067.46 14.1223 1067.03 14.54 1067.03 15.0593ZM1060.78 24.3048C1060.82 22.4986 1061.41 20.4666 1063.83 20.4666C1066.34 20.4666 1066.87 22.6905 1066.87 24.5532C1066.87 26.4158 1066.34 28.6397 1063.83 28.6397C1061.37 28.6397 1060.8 26.5287 1060.78 24.6886C1060.78 24.6435 1060.78 24.6096 1060.78 24.5645V24.3048ZM1052.85 24.5193C1052.85 27.206 1051.86 28.6284 1049.98 28.6284C1048.2 28.6284 1047.1 27.0593 1047.1 24.5193C1047.1 21.9906 1048.2 20.4102 1049.98 20.4102C1051.86 20.4215 1052.85 21.8326 1052.85 24.5193ZM1034.4 23.3453C1034.43 22.2615 1035.12 20.4892 1037.5 20.4892C1038.46 20.4892 1039.22 20.7263 1039.74 21.1891C1040.53 21.9003 1040.62 22.9614 1040.62 23.3904C1040.62 23.3904 1040.62 23.3904 1040.61 23.3904H1034.44L1034.4 23.3453Z" fill="white"/>
<path d="M1056.35 31.6877C1056.12 31.4958 1055.83 31.4281 1055.55 31.4958C1055.39 31.5297 1055.25 31.62 1055.12 31.7441C1053.96 32.8505 1052.52 33.5391 1050.94 33.7423C1050.72 33.7648 1050.49 33.7874 1050.28 33.7987C1050.18 33.7987 1050.08 33.81 1049.96 33.81C1048.12 33.81 1046.36 33.1327 1044.97 31.8909C1044.81 31.7329 1044.61 31.6538 1044.41 31.6313C1044.08 31.6087 1043.78 31.7554 1043.6 32.0151C1043.33 32.3989 1043.38 32.9295 1043.72 33.2343C1045.46 34.8034 1047.66 35.6501 1049.96 35.6501C1050.09 35.6501 1050.22 35.6501 1050.35 35.6388C1050.62 35.6275 1050.89 35.6049 1051.16 35.5711C1053.15 35.3114 1054.97 34.4422 1056.41 33.0536C1056.59 32.873 1056.69 32.6247 1056.69 32.365C1056.68 32.0941 1056.56 31.857 1056.35 31.6877Z" fill="white"/>
<path d="M1058.22 18.491C1056.48 15.4205 1053.23 13.603 1049.72 13.7497C1049.57 13.761 1049.43 13.761 1049.29 13.7723C1046.27 14.0319 1043.56 15.7478 1042.04 18.3781C1041.82 18.7507 1041.89 19.2135 1042.2 19.4957L1042.22 19.5183C1042.4 19.6876 1042.63 19.7779 1042.87 19.7666C1043.19 19.7554 1043.47 19.586 1043.63 19.3151C1044.86 17.2041 1047.04 15.8269 1049.46 15.6124C1049.57 15.6011 1049.68 15.5898 1049.79 15.5898C1052.62 15.4769 1055.24 16.9444 1056.62 19.4167C1056.78 19.6989 1057.09 19.8795 1057.41 19.8795C1057.43 19.8795 1057.44 19.8795 1057.45 19.8795C1057.82 19.8682 1058.15 19.6312 1058.26 19.2699L1058.27 19.2361C1058.36 18.9877 1058.34 18.7168 1058.22 18.491Z" fill="white"/>
</svg>
