<svg width="24" height="24" viewBox="0 0 24 24" fill="none" xmlns="http://www.w3.org/2000/svg">
<path d="M23.8948 10.5C23.186 5.06775 18.932 0.81375 13.5605 0.11175L13.4998 0.105C13.0498 0.039 12.53 0.00075 12.0005 0H11.9998C5.40804 0.0465 0.081543 5.40075 0.081543 12C0.081543 18.0698 4.58754 23.0865 10.4375 23.8882L10.4998 23.895C10.9498 23.961 11.4695 23.9992 11.999 24H11.9998C18.6223 23.994 23.9893 18.6233 23.9893 12C23.9893 11.4713 23.9548 10.9508 23.8888 10.44L23.8955 10.5H23.8948ZM19.7998 18.885C17.8858 21.042 15.107 22.3942 12.0125 22.3942C6.27129 22.3942 1.61754 17.7405 1.61754 11.9992C1.61754 6.258 6.27129 1.60425 12.0125 1.60425C17.2775 1.60425 21.629 5.51925 22.3138 10.5967L22.3198 10.65C22.3723 11.0452 22.4023 11.5013 22.4023 11.9655C22.4023 14.622 21.416 17.0475 19.7893 18.897L19.799 18.885H19.7998ZM12.8548 5.25H11.0548V11.1H5.24979V12.9H11.0548V18.75H12.8548V12.9H18.7498V11.1H12.8548V5.25Z" fill="white"/>
</svg>
